<svg width="628" height="528" fill="none" xmlns="http://www.w3.org/2000/svg"><rect x="337.008" y="205.312" width="10.531" height="10.531" rx="5.266" fill="#4A5364"/><rect x="339.114" y="207.418" width="6.319" height="6.319" rx="3.159" fill="#FF4F14"/><rect x="289.616" y="301.148" width="10.531" height="10.531" rx="5.266" fill="#4A5364"/><rect x="291.722" y="303.255" width="6.319" height="6.319" rx="3.159" fill="#FF4F14"/><path d="M342.274 221.109v5.266c0 5.816-4.715 10.531-10.532 10.531h-26.329c-5.816 0-10.531 4.715-10.531 10.532v48.971" stroke="#4A5364" stroke-width="1.675" stroke-linecap="round" stroke-dasharray="3.35 6.71"/><path fill="#fff" d="M258.022 35.754h127.431v146.388H258.022z"/><path d="M308.411 70.266l-10.978 10.978a3.555 3.555 0 002.514 6.07h41.493a3.556 3.556 0 002.514-6.07l-2.729-2.73a5.333 5.333 0 00-7.542 0 5.333 5.333 0 01-7.542 0l-8.249-8.248a6.704 6.704 0 00-9.481 0z" stroke="#4A5364" stroke-width="3.352"/><circle cx="329.911" cy="66.364" r="5.028" fill="#FC0" stroke="#FF7F2A" stroke-width="3.352"/><circle cx="371.811" cy="131.728" r="5.028" fill="#4A5364"/><rect x="266.224" y="156.867" width="110.615" height="13.408" rx="1.676" fill="#FF4F14"/><path d="M267.9 128.376h51.955M267.9 138.431h36.871" stroke="#4A5364" stroke-width="3.352" stroke-linecap="round"/><path d="M202.536 36.196h204.471M242.76 116.643h170.951m-177.655 65.364h204.471M385.219 1v204.471M257.844 22.788v204.471" stroke="#4A5364" stroke-width="1.676" stroke-linecap="round" stroke-dasharray="3.35 6.7"/><path fill="#fff" stroke="#4A5364" stroke-width="1.676" stroke-linecap="round" stroke-dasharray="3.35 6.7" d="M170.489 361.208h144.135v145.811H170.489z"/><path d="M205.685 388.024h11.732" stroke="#FC0" stroke-width="3.352" stroke-linecap="round"/><path d="M224.121 411.488h36.872m-55.308 11.732h36.872m-36.872-11.732h11.732m-11.732-11.732h45.252m-45.252 72.068h11.732" stroke="#4A5364" stroke-width="3.352" stroke-linecap="round"/><path d="M224.121 460.091h36.872" stroke="#FF4F14" stroke-width="3.352" stroke-linecap="round"/><path d="M205.685 483.555h36.872" stroke="#FF7F2A" stroke-width="3.352" stroke-linecap="round"/><path d="M205.685 460.091h11.732" stroke="#FF4F14" stroke-width="3.352" stroke-linecap="round"/><path d="M205.685 448.359h45.252" stroke="#4A5364" stroke-width="3.352" stroke-linecap="round"/><path d="M190.601 382.996l5.028 5.028-5.028 5.028" stroke="#4A5364" stroke-width="3.352" stroke-linecap="round" stroke-linejoin="round"/><path d="M239.51 176c-14.142-5.239-15.582-11.915-28.391-20.02l-5.145 31.855c8.771 3.129 12.558 7.93 21.797 9.311L239.51 176z" fill="#262A31"/><path d="M205.974 187.835c8.771 3.129 12.558 7.93 21.797 9.311-13.621-5.385-1.764-25.179-13.139-37.77l-8.658 28.459z" fill="#211E1E"/><path d="M240.97 176.596a1.58 1.58 0 00-2.755-1.546l2.755 1.546zm-14.867 20.044a1.58 1.58 0 002.756 1.546l-2.756-1.546zm12.112-21.59l-12.112 21.59 2.756 1.546 12.111-21.59-2.755-1.546z" fill="#FF4F14"/><path fill-rule="evenodd" clip-rule="evenodd" d="M329.244 153.237l3.522-4.181a1.678 1.678 0 00.214-1.836l-3.442-6.809a2.388 2.388 0 01-.158-.466c-.07-.266-.14-.53-.336-.702-.615-.543-2.934-.769-11.41 3.057-8.332 3.76-19.554 15.856-19.554 15.856l-33.613 24.533c-13.477-1.108-19.141-2.89-31.433-8.423l-14.494 18.476s34.56 16.039 54.416 4.645c19.857-11.393 31.208-26.323 31.208-26.323 3.749-4.281 4.418-4.068 6.267-3.478 1.186.378 2.858.911 6.14.513l.516-.063c2.831-.339 3.901-.468 7.542-2.116 2.173-.984 2.477-2.596 2.761-4.1.067-.357.134-.707.223-1.041 1.085-4.049.041-5.082-1.145-6.255-.842-.832-1.755-1.735-2.029-3.837 1.123-5.795 4.805 2.55 4.805 2.55z" fill="#FEC37F"/><path d="M271 194c-13.478-1.108-16.208 5.533-28.5 0-12.292-5.533-23.96-1.258-23.96-1.258s34.56 16.039 54.416 4.645c19.857-11.393 31.208-26.323 31.208-26.323S293.998 175.994 288 180c-7.152 4.777-3.522 15.108-17 14z" fill="#EDB16C"/><path d="M243.912 335.656l20.725-5.017s19.474 2.218 32.877 8.809c3.279 1.612.164 7.595.164 7.595l-50.496 4.466-3.27-15.853z" fill="#FF4F14"/><path d="M246.964 350.569l51.254-3.885m-12.592-12.183c-2.466-.661-4.971.303-5.812 1.966m.059-3.508c-2.466-.661-3.328.743-4.169 2.407m-.763-3.728c-2.466-.661-3.127 1.805-3.567 3.449" stroke="#000" stroke-width="1.676" stroke-linecap="round"/><path d="M271.693 368.922l20.725-5.018s19.474 2.219 32.877 8.809c3.279 1.613.164 7.595.164 7.595l-50.496 4.466-3.27-15.852z" fill="#FF4F14"/><path d="M271.693 368.922l12.807.578c7 4 1.5 6.5 11.5 10.808 3.356 1.446 29.459 0 29.459 0l-50.496 4.466-3.27-15.852z" fill="#EE4A14"/><path d="M274.745 383.834l51.254-3.885m-12.593-12.183c-2.465-.661-4.971.303-5.812 1.966m.06-3.508c-2.466-.661-3.328.743-4.169 2.407m-.763-3.728c-2.466-.661-3.127 1.805-3.567 3.449" stroke="#000" stroke-width="1.676" stroke-linecap="round"/><path d="M147.822 303.903c-26.148-14.49-20.422-69.775-20.422-69.775l57.011-5.957 2.553 34.888s44.81-20.45 61.541-17.745c41.136 6.652 21.151 82.04 21.151 82.04h-26.279v-42.943s-69.778 33.776-95.555 19.492z" fill="#3D4656"/><path d="M147.822 303.903c-26.148-14.49-20.422-69.776-20.422-69.776l25.144 25.171-4.722 25.113s20.148-6.257 32.282-2.68c7.743 2.282 10.102 8.35 17.946 10.255 17.736 4.308 34.538-30.53 49.353-19.869 11.594 8.344-4.617 22.374 0 35.892 2.658 7.784 8.332 19.345 8.332 19.345h-12.358v-42.943s-69.778 33.776-95.555 19.492z" fill="#323A49"/><path d="M135.375 301.001c-21.506-20.763-1.667-72.683-1.667-72.683l56.611 9.002-6.564 34.36s26.458 4.288 41.918 11.232c38.013 17.072 72.369 78.413 72.369 78.413l-27.317 16.466-53.2-64.468s-60.948 8.147-82.15-12.322z" fill="#4A5364"/><path d="M135.375 301.001c-21.507-20.763-1.667-72.683-1.667-72.683l56.611 9.002-47.569 39.4s-12.897 10.362 2.563 17.305c8.989 4.037 18.905-11.363 30.765-3.846 12.934 8.198 7.114 10.675 14.241 13.46 10.07 3.935-5.07-22.429 27.206-5.128 20.312 10.889 31.148 52.558 66.858 71.047l-13.658 8.233-53.2-64.468s-60.948 8.147-82.15-12.322z" fill="#3D4656"/><path d="M204.719 153.665c2.603-9.714 3.12-13.522 10.279-18.935l-12.777-13.834c-7.188 9.07-9.194 14.887-14.76 19.469 5.671 10.753 5.749 13.146 17.258 13.3z" fill="#FEC37F"/><path d="M214.998 134.73l-12.777-13.834c-.791.999-1.52 1.958-2.198 2.881 0 0 3.368 12.181 8.6 15.318 1.43.857 2.606-1.037 2.606-1.037 1.009-1.085 2.237-2.17 3.769-3.328z" fill="#EDB16C"/><path d="M205.599 130.399s22.477 19.456 28.303 13.204c5.054-5.424 6.572-6.46 8.717-15.122.681-2.747 5.695-2.822 5.999-5.754-5.861-16.161-3.489-34.18-3.489-34.18s-33.18-.172-40.183 15.052c-4.376 9.511.653 26.8.653 26.8z" fill="#FEC37F"/><path d="M252.15 72.253c-4.379-7.019-12.025-9.85-19.792-7.184-20.815 7.145-31.7-1.201-43.523 11.974-7.44 8.29-8.629 19.471-5.664 25.682 4.013 8.408 12.708 28.591 13.962 31.34 1.831-.215 2.065-1.127 2.189-3.042l1.794 4.977c11.672-1.192 9.579-5.19 10.225-15.364-5.783-2.779-7.655-21.12 4.952-13.141 4.166 2.636 1.783 16.847 5.615 13.747 3.331-2.694.163-6.62.168-10.968 0 0 13.346 5.294 20.586-4.628 5.673-7.774 14.594-25.208 9.488-33.393z" fill="#000"/><path d="M186.19 74.604c1.27 3.15 16.51 28.354 16.51 28.354l5.08-2.101s-7.62-33.604-12.7-34.654c-5.08-1.05-10.16 5.25-8.89 8.4z" fill="#FF4000"/><circle cx="210.294" cy="108.824" r="10.894" fill="#FF7F2A"/><circle cx="209.456" cy="107.986" r="10.056" fill="#FF4F14"/><path d="M199.019 255.711c-14.049-12.388-7.22-35.225 11.378-64.955 18.599-29.731-4.434-38.494-4.434-38.494-9.555.043-14.671-10.003-15.46-15.42-7.976 1.708-20.312-4.183-28.25 3.708-15.343 15.254-26.015 54.3-39.436 105.085 4.649 13.469 17.635 19.548 34.374 22.374 16.683 2.817 55.878.091 41.828-12.298z" fill="#262A31"/><path d="M190.73 136.284c2.404 9.597 5.442 13.389 15.797 15.511" stroke="#FF4F14" stroke-width="3.352" stroke-linecap="round"/><path d="M122.818 245.636c4.648 13.468 17.634 19.547 34.373 22.373-24.278-25.078-23.731-52.18-19.266-64.655 4.465-12.475 11.928-18.812 24.426-22.161 12.498-3.348 24.861-20.542 16.852-37.482-2.878-6.087-9.011-11.052-16.949-3.16-15.344 15.253-26.016 54.299-39.436 105.085z" fill="#211E1E"/><path d="M113.894 191.56c10.965-7.915 16.427-10.241 29.366-14.023l-.988-23.461s-36.692 10.265-44.381 31.827c-7.69 21.563-6.618 40.287-6.618 40.287l13.012 5.859 9.609-40.489z" fill="#FEC37F"/><path d="M113.894 191.56c10.965-7.915 16.427-10.241 29.366-14.022 0 0-8.853-1.334-14.26-.001-7.774 1.918-11.969 5.234-17 11.463-6.069 7.514-6.368 13.935-7.715 23.5-1.064 7.56 0 19.549 0 19.549l9.609-40.489z" fill="#EDB16C"/><path d="M95.541 179.645s.978-2.466 3.218-5.865c1.445-2.192 4.894-4.611 4.894-4.611m-9.856 4.963c.84-2.902 5.675-7.068 7.247-7.654" stroke="#B5BFD2" stroke-width="1.676" stroke-linecap="round"/><path d="M79.316 222.838l30.746 48.82c.36.571.342 1.302-.045 1.854l-20.448 29.222a1.676 1.676 0 01-2.768-.032l-29.009-43.576a1.675 1.675 0 01-.078-1.728l18.71-34.466a1.676 1.676 0 012.892-.094z" fill="#000"/><ellipse rx="4.19" ry="5.866" transform="scale(-1 1) rotate(15 -1035.825 -172.215)" fill="#fff"/><path d="M104.176 231.955s9.686 19.102 2.206 24.356c-5.592 3.928-7.068-.847-6.704-3.472-6.496 6.321-15.347 15.805-18.435 9.337-.779-1.63-3.545-16.2-2.293-18.872 1.796-3.831 2.509-4.494 4.71-6.892 5.72-6.231 7.391-.975 7.503-10.315l13.013 5.858z" fill="#FEC37F"/><path d="M127.181 156.782c8.253-4.814 24.905-17.015 37.701-19.568 24.118-4.812 11.728 10.097 8.04 23.858-3.687 13.76-36.866 20.227-36.866 20.227l-8.875-24.517z" fill="#262A31"/><path d="M128.39 156.329a1.58 1.58 0 00-2.971 1.074l2.971-1.074zm5.981 25.824a1.58 1.58 0 002.971-1.075l-2.971 1.075zm-8.952-24.75l8.952 24.75 2.971-1.075-8.952-24.749-2.971 1.074z" fill="#FF4F14"/><path fill-rule="evenodd" clip-rule="evenodd" d="M309.177 129.773a2.514 2.514 0 00-.322 3.541l26.3 31.655 3.352-3.352-25.789-31.522a2.516 2.516 0 00-3.541-.322z" fill="#000"/><path d="M335.155 164.969l3.352-3.352 1.676 5.028-5.028-1.676z" fill="#4A5364"/><path d="M330.283 458.056l12.944-14.729-13.212-14.29-12.241 17.356 12.509 11.663z" fill="#FEC37F"/><path d="M330.283 458.056l12.944-14.729-5.486-6.183L325.5 454.5l4.783 3.556z" fill="#EDB16C"/><path d="M325.861 467.273l10.758-12.093-7.119-6.68-9-2-.5-1.5s3.639-.661 3.52-2.299c-.091-1.259-2.341-2.23-2.341-2.23s-17.974-7.815-32.877-8.809c-3.646-.243-3.939 6.496-3.939 6.496l41.498 29.115z" fill="#4B80E4"/><path d="M325.861 467.273l10.758-12.094-7.012-6.679c0 10-15.607 6.68-3.746 18.773z" fill="#3768C7"/><path d="M326.52 466.568l-42.445-28.991" stroke="#000" stroke-width="1.676" stroke-linecap="round"/><path d="M437.217 502.888l3.846-19.228-18.588-5.768-1.923 21.151 16.665 3.845z" fill="#FEC37F"/><path d="M437.217 502.888l3.846-19.228-10.14-4.311L429 500.5l8.217 2.388z" fill="#EDB16C"/><path d="M437.894 515.506l3.27-15.852-10.363-2.509-7.772 2.509L421 499s3.109-2.475 2.029-3.737c-.676-.791-2.59-.627-2.59-.627s-19.474 2.219-32.877 8.809c-3.279 1.613-.164 7.596-.164 7.596l50.496 4.465z" fill="#4B80E4"/><path d="M437.894 515.506l3.27-15.852-10.363-2.509-2.301.855c-3.5 9 3.225 11.191-3.5 16.366l12.894 1.14z" fill="#3F72D5"/><path d="M438.112 514.567l-51.254-3.886" stroke="#000" stroke-width="1.676" stroke-linecap="round"/><path d="M481.791 371.749c21.507-20.764 1.667-72.684 1.667-72.684l-44.215 11.547-5.831 31.815s-26.459 4.289-41.919 11.232c-38.013 17.072-72.368 78.414-72.368 78.414l27.316 16.466 52.223-60.412s61.925 4.091 83.127-16.378z" fill="#292424"/><path d="M481.792 371.749c21.507-20.764 1.667-72.683 1.667-72.683s-9.376 64.756-41.211 76.884c-18.959 7.223-38.199-16.872-51.916-1.923-6.694 7.296-3.573 15.414-8.973 23.715-7.462 11.471-19.782 10.757-26.919 22.433-6.003 9.819-7.998 28.364-7.998 28.364l52.222-60.411s61.926 4.09 83.128-16.379z" fill="#211C1C"/><path d="M493.063 365.725c15.4-25.623-17.202-70.638-17.202-70.638l-40.03 25.022 2.912 29.815-14.864 55.471c-9.326 34.806-4.543 78.863-4.543 78.863l25.093 6.723 13.428-69.542s20.024-30.455 35.206-55.714z" fill="#353434"/><path d="M493.063 365.725c15.4-25.622-17.201-70.638-17.201-70.638s14.011 67.123-12.463 91.759c-7.013 6.526-15.103 5.551-20.51 13.46-8.483 12.407 6.789 24.372 1.541 38.456-3.415 9.162-11.511 11.157-14.36 20.51-3.231 10.612 1.813 28.347 1.813 28.347l12.547 3.362 13.428-69.542s20.024-30.455 35.205-55.714z" fill="#292424"/><path d="M449.418 240.501c-2.603-9.713-3.12-13.522-10.279-18.934l12.777-13.835c7.188 9.071 9.194 14.888 14.759 19.47-5.67 10.753-5.748 13.146-17.257 13.299z" fill="#FEC37F"/><path d="M439.139 221.567l12.777-13.835a100 100 0 012.198 2.882s-3.368 12.18-8.6 15.317c-1.43.857-2.606-1.037-2.606-1.037-1.009-1.084-2.237-2.169-3.769-3.327z" fill="#EDB16C"/><path d="M448.538 217.236s-14.194 14.882-22.74 14.882c-3.352 0-12.652-9.956-14.798-18.618-2.324-9.38.942-23.293-1.992-38.117 0 0 33.181-.171 40.184 15.053 4.375 9.511-.654 26.8-.654 26.8z" fill="#EDB16C"/><path d="M448.538 217.236S434.546 232 426 232c-3.352 0-3.788-7.102-5.934-15.764-.68-2.747-6.399-1.46-6.704-4.392 5.862-16.16 1.646-37.461 1.646-37.461s27.181.829 34.184 16.053c4.375 9.511-.654 26.8-.654 26.8z" fill="#FEC37F"/><path d="M406.366 180.536c1.539 18.315 32.681 16.76 32.681 16.76s8.709-5.297 10.953-1.796c3 10-4.79 11.5-4.79 11.5 3.881 5.878 8.404 12.224 9.759 12.084 4.19-.431 9.575-16.676 12.728-27.189 2.514-8.381 2.262-16.992-3.51-24.303-.13-.165.253-.721 1.306-1.247-.527-1.053-2.125-.095-2.107-.527.031-.713 1.054-2.106 0-2.633 0 1.053-1.219 2.114-1.579 1.762-17.774-17.402-57.69-11.165-55.441 15.589z" fill="#000"/><path d="M395.903 278.205c11.702-6.777 16.056-10.814 24.791-21.081l21.013 10.481s-24.351 29.303-47.174 27.519c-43.984-3.439-56.995-44.153 1.37-16.919z" fill="#F5B264"/><path d="M416 287.5c4-3 4.5-7 8-12s17.707-7.895 17.707-7.895-24.351 29.303-47.174 27.518c6.967-6.623 16.21-3.681 21.467-7.623z" fill="#E8A961"/><path d="M414.31 260.931c12.848-7.898 14.136-20.558 25.81-26.299l9.39 31.363c-7.992 4.78-10.768 10.228-19.561 13.385l-15.639-18.449z" fill="#FC0"/><path d="M449.511 265.994c-7.992 4.78-10.769 10.228-19.561 13.385.876-6.199-8.342-21.283 9.18-41.132l10.381 27.747z" fill="#EDBE05"/><path d="M418.083 333.571c9.436-14.822 12.748-30.418 12.986-65.597.238-35.178 14.246-36.033 14.246-36.033 9.218 2.514 16.759-5.866 18.924-10.894 7.262 3.714 20.702 1.217 26.327 10.894 10.873 18.704 11.076 59.182 10.894 111.711-7.976 11.806-22.092 14.317-38.992 12.714-16.844-1.597-53.822-7.972-44.385-22.795z" fill="#FC0"/><path d="M501.46 343.652c-7.976 11.806-22.092 14.317-38.992 12.714 29.941-17.94 36.427-44.259 35.343-57.465-1.084-13.205-8.325-8.123-28.437-17.341-20.112-9.217 4.544-1.474 6.124-44.654.246-6.728 9.443-14.642 15.068-4.965 10.873 18.704 11.076 59.182 10.894 111.711z" fill="#EDBE05"/><path d="M450.938 314.242l-47.766 5.028-56.146-17.598 46.09-5.866 57.822 18.436z" fill="#9EABC4"/><path d="M450.938 315.918v-1.676l-47.766 5.028v1.676l47.766-5.028z" fill="#8999B6"/><path d="M403.172 320.946v-1.676l-55.308-17.598v1.676l55.308 17.598z" fill="#7D90B3"/><path d="M403.037 317.69l-2.64-47.462a1.675 1.675 0 00-1.181-1.509l-54.009-16.598a1.675 1.675 0 00-2.162 1.743l4.006 47.525a1.678 1.678 0 001.168 1.458l52.643 16.535a1.676 1.676 0 002.175-1.692z" fill="#B5BFD2"/><ellipse rx="4.19" ry="5.866" transform="scale(-1 1) rotate(15 -1266.382 -1256.191)" fill="#4A5364"/><path opacity=".1" d="M458.978 304.368c8.724-10.332 11.458-15.603 16.209-28.217l23.32 2.765s-14.306 30.113-36.39 36.145c-7.586 2.072-31.406-7.691-3.139-10.693z" fill="#464335"/><path d="M457.198 295.36c8.724-10.332 11.458-15.603 16.21-28.217l23.319 2.765s-13.018 35.807-35.102 41.839c-22.084 6.032-45.045-4.209-45.045-4.209v-15.922s12.345 3.02 20.42 3.744c7.856.705 20.198 0 20.198 0z" fill="#F7BC77"/><path d="M454.5 307.538c8.5-4.209 15.748-.423 20.5-13.038 4.752-12.615 21.727-24.593 21.727-24.593s-13.019 35.807-35.102 41.84c-22.084 6.032-45.045-4.209-45.045-4.209V304.5c2.725 0 14.173 3.039 16.92 3.038 7.463-.003 12.5 4.209 21 0z" fill="#EDB16C"/><path d="M416.58 307.538v-15.922c-4.2-1.326-10.734-6.824-14.246-4.19-3.352 2.514 3.352 5.866-5.866 3.79-6.704-2.952-10.139 6.93-5.028 12.97 11.536 7.155 11.732 5.866 25.14 3.352z" fill="#F6BC77"/><path d="M391.44 304.186c11.536 7.155 11.732 5.866 25.14 3.352 0-1.038.213-1.888-.08-3.038-5.5 2.5-10.74 2.622-13.5 2-7.5-3-8.5-3.5-11.56-2.314z" fill="#EDB16C"/><path d="M496 287.5c5.028-5.866 18.625-50.44-7.109-59.463-12.971-4.547-13.942 6.718-13.942 20.964C474.949 263.248 465 275 465 275l31 12.5z" fill="#FC0"/><path d="M464.589 221.047c-4.805 8.647-8.721 11.524-19.274 10.894" stroke="#FF7F2A" stroke-width="3.352" stroke-linecap="round"/><path d="M377.259 356.656s1.676-2.057 4.838-4.622c2.039-1.654 6.056-2.92 6.056-2.92m-10.894 1.759c1.676-2.513 7.542-5.027 9.219-5.111m115.643 7.626c-1.073 12.147-3.38 18.623-11.732 29.33" stroke="#B5BFD2" stroke-width="1.676" stroke-linecap="round"/><path d="M503.01 371.221a.837.837 0 111.574.574l-1.574-.574zm-17.632 26.25a.838.838 0 01-1.009-1.338l1.009 1.338zm14.204-14.708a.836.836 0 11-1.436-.862l1.436.862zm-6.868 6.176a.838.838 0 011.206 1.164l-1.206-1.164zm11.87-17.144c-1.567 4.295-3.108 7.815-5.002 10.968l-1.436-.862c1.816-3.026 3.315-6.436 4.864-10.68l1.574.574zm-10.664 18.308c-2.312 2.392-5.086 4.76-8.542 7.368l-1.009-1.338c3.413-2.576 6.114-4.886 8.345-7.194l1.206 1.164z" fill="#B5BFD2"/><path d="M495.417 342.494c-9.211-2.54 3.63-5.819 6.974-12.57 4.002-8.08-70.662-5.866-56.983 16.961 14.805 24.709 86.144 10.726 77.663-4.391-5.978-10.656-11.732 4.391-27.654 0z" fill="#D18858"/><ellipse rx="11.732" ry="3.352" transform="matrix(-1 0 0 1 473.629 331.6)" fill="#E6E9EE"/><ellipse rx="10.056" ry="3.352" transform="matrix(-1 0 0 1 473.629 334.951)" fill="#232C3D"/><path d="M483.372 335.852s1.67-1.198 2.725-.831c2.11.736.229 4.807-1.362 6.648-.864.999-2.726 1.662-2.726 1.662" stroke="#B5BFD2" stroke-width="1.676"/><path d="M483.067 341.919l2.294-10.32c-.745 3.352-22.719 3.352-23.464 0l2.293 10.32c.691 3.112 2.573 5.619 5.75 5.879 2.311.19 5.067.19 7.378 0 3.177-.26 5.058-2.767 5.749-5.879z" fill="#fff"/></svg>