<svg width="621" height="364" fill="none" xmlns="http://www.w3.org/2000/svg"><path fill="#fff" d="M0 34h621v330H0zm0-16h621v16H0z"/><path fill="#E3E8ED" d="M0 33.6h621v.5H0z"/><path d="M39.502 24.895a2.587 2.587 0 100 1.724" stroke="#5E7285" stroke-width=".862" stroke-linecap="round"/><path d="M40.08 22.956l-2.37 2.37h2.37v-2.37z" fill="#5E7285" stroke="#5E7285" stroke-width=".431"/><circle cx="611.119" cy="23.172" r=".862" fill="#5E7285"/><circle cx="611.119" cy="25.758" r=".862" fill="#5E7285"/><circle cx="611.119" cy="28.343" r=".862" fill="#5E7285"/><mask id="a" maskUnits="userSpaceOnUse" x="593" y="21" width="9" height="10"><circle cx="597.327" cy="25.758" r="4.31" fill="#F9FCFF"/></mask><g mask="url(#a)"><circle cx="597.327" cy="25.758" r="4.31" fill="#FF7F2A"/><path d="M597.975 29.173c-.183-.683-.22-.951-.723-1.332l.898-.973c.506.638.647 1.047 1.038 1.37-.399.756-.404.924-1.213.935z" fill="#FEC37F"/><path d="M597.252 27.84l.898-.972c.056.07.107.138.155.203 0 0-.237.856-.605 1.077-.101.06-.183-.073-.183-.073a2.085 2.085 0 00-.265-.234z" fill="#EDB16C"/><path d="M597.913 27.536s-.999 1.047-1.6 1.047c-.235 0-.889-.7-1.04-1.31-.164-.66.066-1.638-.14-2.68 0 0 2.333-.012 2.826 1.058.307.67-.046 1.885-.046 1.885z" fill="#EDB16C"/><path d="M597.913 27.536s-.984 1.039-1.585 1.039c-.236 0-.267-.5-.417-1.109-.048-.193-.451-.103-.472-.309.412-1.137.116-2.635.116-2.635s1.911.059 2.404 1.13c.308.668-.046 1.884-.046 1.884z" fill="#FEC37F"/><path d="M594.947 24.955c.108 1.288 2.298 1.179 2.298 1.179s.613-.373.771-.126c.211.703-.337.808-.337.808.273.414.591.86.686.85.295-.03.673-1.172.895-1.912.177-.59.159-1.195-.247-1.71-.009-.01.018-.05.092-.087-.037-.074-.149-.006-.148-.037.002-.05.074-.148 0-.185 0 .074-.086.149-.111.124-1.25-1.224-4.057-.785-3.899 1.096z" fill="#000"/><path d="M595.771 35.718c.663-1.042.896-2.14.913-4.613.017-2.474 1.002-2.535 1.002-2.535.648.177 1.179-.412 1.331-.766.511.262 1.456.086 1.851.767.765 1.315.779 4.162.767 7.856-.561.83-1.554 1.007-2.743.894-1.184-.112-3.785-.56-3.121-1.603z" fill="#FC0"/><path d="M599.042 27.804c-.338.609-.614.81-1.356.767" stroke="#FF7F2A" stroke-width=".236" stroke-linecap="round"/></g><path d="M23.488 28.128l2.37-2.37m-.431 0h-4.74m2.801-2.371l2.37 2.37M9.266 28.128l-2.37-2.37m.431 0h4.74m-2.801-2.371l-2.37 2.37" stroke="#5E7285" stroke-width=".862" stroke-linecap="round"/><rect x="46.545" y="19.724" width="541.301" height="12.067" rx="6.034" fill="#E3E8ED"/><path d="M578.581 23.172l.813 1.771 1.988.204-1.485 1.299.415 1.897-1.731-.969-1.732.97.415-1.898-1.485-1.299 1.988-.204.814-1.771z" stroke="#5E7285" stroke-width=".862"/><path d="M64.525 26.209c0 .52-.119.939-.357 1.256-.238.318-.56.477-.966.477-.414 0-.74-.132-.978-.395v1.645h-.584v-4.729h.533l.029.38c.238-.295.568-.443.99-.443.411 0 .735.155.973.464.24.31.36.74.36 1.291v.054zm-.584-.066c0-.385-.082-.69-.246-.913a.793.793 0 00-.676-.334c-.353 0-.618.157-.795.47v1.632a.86.86 0 00.802.467c.28 0 .502-.11.666-.331.166-.223.249-.554.249-.991zm1.963 1.736h-.584V23.03h.584v4.849zm3.047 0a1.225 1.225 0 01-.083-.36 1.303 1.303 0 01-.972.423c-.337 0-.613-.095-.83-.284a.931.931 0 01-.322-.726c0-.356.135-.631.404-.827.272-.198.652-.297 1.143-.297h.568v-.268a.65.65 0 00-.183-.486c-.122-.122-.302-.183-.54-.183a.852.852 0 00-.524.157c-.14.106-.211.233-.211.382h-.587c0-.17.06-.334.18-.492.121-.16.286-.286.492-.379.208-.092.436-.139.685-.139.393 0 .702.1.925.297.223.196.338.466.347.811v1.572c0 .314.04.563.12.748v.05h-.612zm-.97-.445c.184 0 .357-.048.521-.142a.859.859 0 00.357-.37v-.7H68.4c-.715 0-1.073.209-1.073.628 0 .183.061.326.183.429a.703.703 0 00.47.155zm3.17-3.798v.827h.637v.452h-.637v2.118c0 .137.028.24.085.31.057.067.153.1.29.1.068 0 .16-.012.278-.038v.474a1.693 1.693 0 01-.448.063c-.261 0-.458-.079-.59-.237-.133-.158-.2-.382-.2-.672v-2.118h-.621v-.452h.622v-.827h.584zm1.61 4.243v-2.964h-.54v-.452h.54v-.35c0-.366.097-.65.293-.85.196-.199.472-.299.83-.299.135 0 .268.018.401.054l-.032.473a1.68 1.68 0 00-.315-.028c-.19 0-.336.056-.439.167-.103.11-.155.267-.155.474v.36h.73v.45h-.73v2.965h-.584zm1.805-1.74c0-.334.065-.635.196-.902a1.48 1.48 0 01.549-.619c.236-.145.504-.218.805-.218.465 0 .84.161 1.127.483.288.322.432.75.432 1.285v.041c0 .332-.064.631-.192.896a1.438 1.438 0 01-.547.616c-.235.147-.507.22-.814.22-.463 0-.838-.16-1.127-.482-.286-.322-.43-.748-.43-1.278v-.041zm.587.07c0 .379.087.683.262.912.177.23.412.344.707.344a.84.84 0 00.707-.347c.175-.233.262-.56.262-.978 0-.375-.09-.678-.268-.91a.843.843 0 00-.707-.35.839.839 0 00-.698.344c-.177.23-.265.558-.265.985zm4.905-1.222a1.753 1.753 0 00-.287-.022c-.383 0-.643.163-.78.49v2.424h-.584v-3.416h.569l.01.395a.91.91 0 01.813-.458c.114 0 .2.015.26.045v.542zm1.09-.524l.015.38c.25-.295.588-.443 1.013-.443.478 0 .803.183.976.55.113-.165.26-.297.442-.398a1.32 1.32 0 01.647-.152c.749 0 1.13.397 1.142 1.19v2.289H84.8v-2.254c0-.244-.055-.426-.167-.546-.111-.122-.299-.183-.562-.183a.77.77 0 00-.54.196.781.781 0 00-.249.52v2.267h-.587V25.64c0-.497-.243-.745-.73-.745-.382 0-.644.163-.785.49v2.493h-.584v-3.416h.552zm5.132 3.11a.37.37 0 01.088-.253c.061-.067.152-.1.272-.1.12 0 .21.033.271.1a.354.354 0 01.095.253.336.336 0 01-.095.243c-.06.065-.151.098-.271.098-.12 0-.21-.033-.272-.098a.35.35 0 01-.088-.243zm2.244-3.11l.02.43c.26-.329.6-.493 1.022-.493.722 0 1.086.408 1.092 1.222v2.257h-.584v-2.26c-.002-.247-.059-.428-.17-.546-.11-.118-.281-.177-.515-.177-.19 0-.356.05-.499.151a1.03 1.03 0 00-.334.398v2.434h-.584v-3.416h.552zm4.432 3.479c-.463 0-.84-.152-1.13-.455-.29-.305-.436-.712-.436-1.221v-.107c0-.34.064-.641.193-.906.13-.268.311-.476.543-.625a1.36 1.36 0 01.757-.228c.444 0 .79.147 1.036.439.246.293.369.711.369 1.256v.243h-2.314c.009.337.106.61.294.818.19.206.43.31.72.31.206 0 .38-.043.523-.127a1.3 1.3 0 00.376-.335l.357.278c-.286.44-.716.66-1.288.66zm-.073-3.062a.777.777 0 00-.593.259c-.16.17-.259.41-.297.72h1.711v-.045c-.017-.296-.097-.526-.24-.688a.731.731 0 00-.58-.246zm4.192 2.661c-.227.267-.56.4-1 .4-.365 0-.642-.104-.834-.315-.19-.212-.285-.526-.287-.94v-2.223h.584v2.207c0 .517.21.776.631.776.446 0 .743-.166.89-.498v-2.485h.584v3.416h-.555l-.013-.338zm3.109-2.554a1.747 1.747 0 00-.287-.022c-.383 0-.643.163-.78.49v2.424h-.584v-3.416h.569l.01.395a.909.909 0 01.814-.458c.113 0 .199.015.258.045v.542zm2.522 2.892a1.249 1.249 0 01-.082-.36 1.301 1.301 0 01-.972.423c-.337 0-.613-.095-.83-.284a.93.93 0 01-.322-.726c0-.356.135-.631.404-.827.272-.198.652-.297 1.143-.297h.568v-.268a.65.65 0 00-.183-.486c-.122-.122-.302-.183-.54-.183a.852.852 0 00-.524.157c-.141.106-.211.233-.211.382h-.588c0-.17.06-.334.18-.492a1.25 1.25 0 01.493-.379c.208-.092.436-.139.685-.139.393 0 .702.1.925.297.223.196.338.466.347.811v1.572c0 .314.04.563.12.748v.05h-.613zm-.969-.445c.183 0 .357-.048.521-.142a.863.863 0 00.357-.37v-.7h-.458c-.715 0-1.073.209-1.073.628 0 .183.061.326.183.429a.703.703 0 00.47.155zm5.269-1.225c0 .522-.12.942-.36 1.26-.24.315-.562.473-.966.473-.431 0-.765-.153-1.001-.458l-.028.395h-.537V23.03h.584v1.809c.236-.292.561-.439.976-.439.414 0 .739.157.975.47.238.314.357.743.357 1.288v.051zm-.584-.066c0-.398-.077-.705-.231-.922-.153-.217-.374-.325-.663-.325-.385 0-.661.179-.83.537v1.477c.179.357.458.536.837.536.28 0 .497-.108.653-.325.156-.216.234-.543.234-.978zm1.168-.003c0-.335.065-.636.195-.903.133-.267.316-.474.55-.619a1.5 1.5 0 01.804-.218c.466 0 .841.161 1.127.483.289.322.433.75.433 1.285v.041c0 .332-.064.631-.193.896a1.435 1.435 0 01-.546.616c-.236.147-.507.22-.814.22-.463 0-.839-.16-1.127-.482-.286-.322-.429-.748-.429-1.278v-.041zm.587.069c0 .379.087.683.262.912.176.23.412.344.707.344a.841.841 0 00.707-.347c.175-.233.262-.56.262-.978 0-.375-.09-.678-.268-.91a.844.844 0 00-.708-.35.838.838 0 00-.697.344c-.177.23-.265.558-.265.985zm4.046-2.573v.827h.638v.452h-.638v2.118c0 .137.029.24.086.31.056.067.153.1.29.1.067 0 .16-.012.278-.038v.474a1.694 1.694 0 01-.448.063c-.261 0-.458-.079-.591-.237-.132-.158-.199-.382-.199-.672v-2.118h-.621v-.452h.621v-.827h.584zm1.336 3.937a.37.37 0 01.088-.253c.061-.067.152-.1.271-.1.12 0 .211.033.272.1a.356.356 0 01.095.253.337.337 0 01-.095.243c-.061.065-.152.098-.272.098-.119 0-.21-.033-.271-.098a.349.349 0 01-.088-.243zm2.326.306h-.584v-3.416h.584v3.416zm-.631-4.322c0-.094.028-.174.085-.24.059-.065.145-.097.259-.097.113 0 .2.032.259.098a.349.349 0 01.088.24c0 .094-.03.173-.088.236-.059.063-.146.095-.259.095-.114 0-.2-.032-.259-.095a.34.34 0 01-.085-.236zm1.414 2.583c0-.335.065-.636.196-.903a1.48 1.48 0 01.549-.619c.235-.145.504-.218.805-.218.465 0 .84.161 1.127.483.288.322.432.75.432 1.285v.041c0 .332-.064.631-.193.896a1.435 1.435 0 01-.546.616c-.235.147-.507.22-.814.22-.463 0-.839-.16-1.127-.482-.286-.322-.429-.748-.429-1.278v-.041zm.587.069c0 .379.087.683.262.912.177.23.412.344.707.344a.84.84 0 00.707-.347c.175-.233.262-.56.262-.978 0-.375-.089-.678-.268-.91a.843.843 0 00-.707-.35.839.839 0 00-.698.344c-.177.23-.265.558-.265.985zm3.371 2.064h-.502l1.919-4.99h.499l-1.916 4.99zm3.182-.394h-.584V23.03h.584v4.849zm3.046 0a1.216 1.216 0 01-.082-.36 1.304 1.304 0 01-.972.423c-.337 0-.614-.095-.831-.284a.932.932 0 01-.321-.726c0-.356.134-.631.404-.827.271-.198.652-.297 1.142-.297h.568v-.268a.65.65 0 00-.183-.486c-.122-.122-.302-.183-.539-.183a.85.85 0 00-.524.157c-.141.106-.212.233-.212.382h-.587c0-.17.06-.334.18-.492a1.25 1.25 0 01.492-.379 1.67 1.67 0 01.685-.139c.394 0 .702.1.925.297.223.196.339.466.347.811v1.572c0 .314.04.563.12.748v.05h-.612zm-.969-.445c.183 0 .357-.048.521-.142a.855.855 0 00.356-.37v-.7h-.457c-.716 0-1.074.209-1.074.628 0 .183.062.326.184.429a.701.701 0 00.47.155zm5.268-1.225c0 .522-.12.942-.36 1.26-.24.315-.562.473-.966.473-.431 0-.765-.153-1-.458l-.029.395h-.536V23.03h.584v1.809c.235-.292.561-.439.975-.439.415 0 .74.157.975.47.238.314.357.743.357 1.288v.051zm-.584-.066c0-.398-.077-.705-.23-.922-.154-.217-.375-.325-.663-.325-.385 0-.662.179-.83.537v1.477c.179.357.457.536.836.536a.76.76 0 00.654-.325c.155-.216.233-.543.233-.978z" fill="#464E57"/><rect x="52.794" y="25.542" width="3.017" height="2.586" rx=".215" fill="#5E7285" stroke="#5E7285" stroke-width=".431"/><path d="M53.44 25.326v-.43c0-.477.387-.862.863-.862v0c.476 0 .862.386.862.861v.431" stroke="#5E7285" stroke-width=".431"/><path d="M0 3.448A3.448 3.448 0 013.448 0h614.104A3.448 3.448 0 01621 3.448V18H0V3.448z" fill="#555F69"/><circle cx="8.189" cy="9.05" r="2.586" fill="#FF5C1C"/><circle cx="16.808" cy="9.05" r="2.586" fill="#FC0"/><circle cx="25.427" cy="9.05" r="2.586" fill="#27AE60"/><path d="M33.448 6.448A3.448 3.448 0 0136.896 3h72.403a3.448 3.448 0 013.448 3.448v8.104A3.447 3.447 0 00116.194 18H30a3.448 3.448 0 003.448-3.448V6.448z" fill="#fff"/><g clip-path="url(#clip0)"><circle cx="40.345" cy="11.066" r=".805" fill="#224DE5"/><path d="M40.31 11.066l2.064-1.715 1.61 1.645 1.084-2.1" stroke="#224DE5" stroke-width=".433"/><circle cx="42.339" cy="9.354" r=".63" fill="#224DE5"/><circle cx="45.033" cy="8.9" r=".455" fill="#224DE5"/><circle cx="43.494" cy="7.778" r=".315" fill="#224DE5"/><circle cx="42.409" cy="12.782" r=".49" fill="#224DE5"/><circle cx="43.983" cy="10.994" r=".525" fill="#224DE5"/></g><path d="M50.967 12h-.495V8.247h.495V12zm2.412-.74a.347.347 0 00-.147-.299c-.096-.072-.266-.134-.508-.186a2.425 2.425 0 01-.575-.185.832.832 0 01-.314-.258.622.622 0 01-.1-.356c0-.228.095-.422.288-.58.194-.158.441-.237.742-.237.316 0 .572.082.768.245a.777.777 0 01.297.627h-.48a.43.43 0 00-.167-.338.618.618 0 00-.418-.142c-.173 0-.31.038-.407.113a.357.357 0 00-.147.297.29.29 0 00.137.26c.09.059.255.115.492.168.239.053.432.117.58.19a.829.829 0 01.327.269.64.64 0 01.109.379c0 .249-.1.45-.3.6-.199.15-.457.225-.775.225-.224 0-.421-.04-.593-.119a.977.977 0 01-.405-.33.809.809 0 01-.144-.461h.477a.5.5 0 00.19.381c.12.093.279.14.475.14a.77.77 0 00.433-.109.34.34 0 00.165-.294zm2.775.464c-.185.218-.458.328-.817.328-.297 0-.524-.086-.68-.258-.155-.174-.233-.43-.235-.768V9.21h.477v1.802c0 .422.172.634.515.634.365 0 .607-.136.727-.408V9.211h.477V12h-.453l-.01-.276zm1.925-1.015l-.299.311V12h-.477V8.04h.477v2.395l.255-.306.869-.918h.58l-1.085 1.165L59.61 12h-.559l-.972-1.291zm4.298-.382c-.424-.122-.733-.271-.928-.449a.865.865 0 01-.288-.66c0-.295.117-.54.353-.732.237-.194.544-.29.923-.29.257 0 .487.049.688.149.203.1.36.237.47.412.11.175.167.367.167.575h-.498c0-.227-.072-.405-.216-.534-.145-.13-.348-.196-.611-.196-.244 0-.435.055-.573.163a.535.535 0 00-.203.446c0 .153.064.282.193.389.13.105.352.201.663.289a3 3 0 01.732.291c.177.105.307.228.392.369a.94.94 0 01.128.497.88.88 0 01-.355.732c-.238.182-.555.274-.952.274-.257 0-.498-.05-.721-.147a1.233 1.233 0 01-.519-.408.996.996 0 01-.18-.585h.497c0 .227.084.407.25.539.169.13.393.196.673.196.262 0 .462-.053.601-.16a.52.52 0 00.209-.436.506.506 0 00-.194-.425c-.128-.101-.362-.201-.7-.299zm2.557-1.792v.676h.52v.368h-.52v1.73c0 .112.023.196.07.253.046.055.125.082.236.082.056 0 .131-.01.227-.03V12a1.382 1.382 0 01-.366.052c-.213 0-.373-.065-.482-.194-.108-.129-.162-.312-.162-.549V9.58h-.508v-.368h.508v-.676h.477zm2.757 3.19c-.185.217-.458.327-.817.327-.297 0-.524-.086-.68-.258-.155-.174-.233-.43-.235-.768V9.21h.477v1.802c0 .422.172.634.515.634.365 0 .607-.136.727-.408V9.211h.477V12h-.454l-.01-.276zm1.03-1.143c0-.428.102-.771.305-1.031a.961.961 0 01.796-.392c.327 0 .585.112.776.335V8.04h.477V12h-.438l-.023-.299c-.191.234-.457.35-.797.35a.957.957 0 01-.791-.396c-.203-.265-.304-.61-.304-1.037v-.036zm.477.054c0 .317.066.564.196.743a.636.636 0 00.542.268.696.696 0 00.662-.408V9.96a.7.7 0 00-.657-.395.636.636 0 00-.547.27c-.13.181-.196.448-.196.802zM72.291 12h-.477V9.21h.477V12zm-.516-3.53a.29.29 0 01.07-.195c.048-.053.119-.08.212-.08.092 0 .163.027.21.08a.282.282 0 01.073.196.272.272 0 01-.072.193c-.048.052-.119.078-.212.078-.092 0-.163-.026-.21-.078a.278.278 0 01-.07-.193zm1.11 2.11c0-.274.054-.52.16-.738.109-.218.258-.386.45-.505.192-.118.41-.178.656-.178.38 0 .687.132.92.395.236.263.354.612.354 1.049v.033c0 .272-.052.516-.157.732a1.175 1.175 0 01-.446.503c-.193.12-.415.18-.665.18-.379 0-.685-.13-.92-.394-.234-.263-.351-.61-.351-1.044v-.033zm.48.056c0 .31.072.558.214.745a.692.692 0 00.578.281.686.686 0 00.577-.283c.143-.191.214-.457.214-.8 0-.305-.073-.553-.22-.742a.688.688 0 00-.576-.286.685.685 0 00-.57.281c-.145.187-.217.455-.217.804zm3.863 1.114c0-.082.024-.151.072-.206.05-.055.124-.083.222-.083s.171.028.221.083a.29.29 0 01.078.206.271.271 0 01-.078.198c-.05.054-.123.08-.221.08s-.172-.026-.222-.08a.285.285 0 01-.072-.198zm.002-2.276c0-.083.024-.152.072-.207.05-.054.124-.082.222-.082s.172.027.222.082a.29.29 0 01.077.207.27.27 0 01-.077.198c-.05.053-.124.08-.222.08s-.172-.027-.222-.08a.285.285 0 01-.072-.198zM79.817 12V8.247h1.06c.326 0 .615.072.866.216.25.145.444.35.58.616.137.267.207.573.208.918v.24c0 .354-.068.664-.206.93-.136.267-.33.471-.585.614a1.807 1.807 0 01-.884.219h-1.04zm.495-3.346v2.941h.52c.382 0 .678-.118.89-.356.213-.237.32-.574.32-1.013v-.219c0-.426-.101-.757-.302-.992-.2-.237-.483-.358-.85-.361h-.578zm4.008 3.398c-.378 0-.686-.124-.923-.372-.237-.249-.356-.581-.356-.997v-.088c0-.277.052-.523.157-.74.107-.218.255-.388.444-.51.19-.124.397-.186.618-.186.363 0 .645.12.846.359.2.238.301.58.301 1.025v.199h-1.89c.008.275.088.497.24.668a.766.766 0 00.588.252.831.831 0 00.428-.103c.117-.069.22-.16.307-.273l.291.227c-.233.359-.584.539-1.051.539zm-.06-2.5a.634.634 0 00-.484.21c-.131.14-.212.336-.243.588h1.397v-.036c-.013-.242-.079-.43-.195-.562a.597.597 0 00-.475-.201zm3.281 1.708a.347.347 0 00-.147-.299c-.096-.072-.265-.134-.508-.186a2.425 2.425 0 01-.575-.185.83.83 0 01-.314-.258.622.622 0 01-.1-.356c0-.228.096-.422.288-.58.194-.158.442-.237.743-.237.316 0 .572.082.768.245a.776.776 0 01.296.627h-.48a.43.43 0 00-.167-.338.618.618 0 00-.417-.142c-.174 0-.31.038-.408.113a.357.357 0 00-.147.297.29.29 0 00.137.26c.091.059.255.115.492.168.24.053.433.117.58.19a.829.829 0 01.328.269c.072.103.108.23.108.379 0 .249-.1.45-.3.6-.198.15-.457.225-.775.225-.223 0-.421-.04-.593-.119a.979.979 0 01-.405-.33.81.81 0 01-.144-.461h.477a.5.5 0 00.19.381.76.76 0 00.475.14.77.77 0 00.433-.109.339.339 0 00.165-.294zm1.572.74h-.477V9.21h.477V12zm-.516-3.53c0-.076.023-.142.07-.195.048-.053.118-.08.211-.08s.163.027.212.08a.282.282 0 01.072.196.272.272 0 01-.072.193c-.049.052-.119.078-.212.078s-.163-.026-.211-.078a.278.278 0 01-.07-.193zm1.123 2.112c0-.435.1-.78.302-1.036a.964.964 0 01.8-.387c.34 0 .605.12.796.361l.023-.31h.435v2.723c0 .36-.107.645-.322.853-.213.208-.5.312-.86.312-.202 0-.399-.043-.591-.129a1.017 1.017 0 01-.44-.353l.247-.286c.204.253.454.379.75.379.232 0 .412-.065.541-.196.13-.13.196-.315.196-.552v-.24c-.19.22-.451.33-.781.33a.956.956 0 01-.794-.394c-.201-.263-.302-.621-.302-1.075zm.48.054c0 .315.064.562.193.743a.63.63 0 00.541.268c.301 0 .522-.137.663-.41V9.964c-.146-.267-.365-.4-.657-.4a.634.634 0 00-.544.27c-.13.181-.196.448-.196.802zm3.005-1.425l.015.35c.213-.268.492-.402.835-.402.59 0 .887.333.892.998V12h-.477v-1.846c-.001-.2-.048-.35-.139-.446-.09-.096-.23-.144-.42-.144a.688.688 0 00-.407.124.84.84 0 00-.273.324V12h-.477V9.21h.45zm2.401 3.537l-.27-.186a1.24 1.24 0 00.252-.696v-.43h.467v.373c0 .174-.043.347-.129.521a1.19 1.19 0 01-.32.418zm4.634-2.112c0 .427-.098.77-.294 1.029a.94.94 0 01-.789.387c-.352 0-.625-.125-.817-.374l-.023.322h-.438V8.04h.476v1.478c.193-.24.458-.359.797-.359.338 0 .604.128.796.384.195.256.292.607.292 1.052v.041zm-.477-.054c0-.325-.063-.575-.188-.753a.623.623 0 00-.542-.265c-.314 0-.54.146-.678.438v1.207c.146.292.374.438.684.438a.62.62 0 00.533-.266c.127-.177.19-.443.19-.799z" fill="url(#paint0_linear)"/><path d="M104.271 8.746l3.16 3.16m0-3.16l-3.16 3.16" stroke="#5E7285" stroke-width=".5" stroke-linecap="round"/><path d="M119.811 8.188v4.31m2.154-2.155h-4.309" stroke="#F9FCFF" stroke-width=".5" stroke-linecap="round"/><defs><linearGradient id="paint0_linear" x1="50" y1="11.556" x2="101" y2="11.556" gradientUnits="userSpaceOnUse"><stop stop-color="#4A5364"/><stop offset=".891" stop-color="#4A5364"/><stop offset="1" stop-color="#4A5364" stop-opacity="0"/></linearGradient><clipPath id="clip0"><path fill="#fff" transform="translate(39 7)" d="M0 0h6.92v7H0z"/></clipPath></defs></svg>