<svg width="879" height="651" fill="none" xmlns="http://www.w3.org/2000/svg"><g opacity=".3"><mask id="a" maskUnits="userSpaceOnUse" x="0" y="0" width="879" height="651"><path d="M879 0H0v651h688L879 0z" fill="url(#paint0_radial)"/></mask><g mask="url(#a)" stroke="#5E7285" stroke-linecap="round"><path d="M879 98h-997m997 92h-997m997 93h-997m997 184h-997"/><path d="M879 650.5H-18.5" stroke-dasharray="2 4"/><path d="M879 375h-997m997 184h-997"/><path d="M879 144h-997m997 92.5H-18.5M879 329h-997m997 184h-997m997-92h-997m997 184h-997M807 .5v639" stroke-dasharray="2 4"/><path d="M669 .5v639M577 .5v639M485 .5v639M393 .5v639M301 .5v639M209 .5v639M117 .5v639M25 .5v639"/><path d="M761 .5v639M715 .5v639M623 .5v639M531 .5v639M439 .5v639M347 .5v639M255 .5v639M163 .5v639M71 .5v639" stroke-dasharray="2 4"/></g></g><defs><radialGradient id="paint0_radial" cx="0" cy="0" r="1" gradientUnits="userSpaceOnUse" gradientTransform="matrix(661.00005 -116.50004 66.7124 378.514 245 400.5)"><stop stop-color="#fff"/><stop offset="1" stop-color="#fff" stop-opacity="0"/></radialGradient></defs></svg>