<svg width="879" height="651" fill="none" xmlns="http://www.w3.org/2000/svg"><g opacity=".3"><mask id="a" maskUnits="userSpaceOnUse" x="0" y="0" width="879" height="651"><path d="M0 0h879v651H191L0 0z" fill="url(#paint0_radial)"/></mask><g mask="url(#a)" stroke="#5E7285" stroke-linecap="round"><path d="M0 98h997M0 190h997M0 283h997M0 467h997"/><path d="M0 650.5h897.5" stroke-dasharray="2 4"/><path d="M0 375h997M0 559h997"/><path d="M0 144h997M0 236.5h897.5M0 329h997M0 513h997M0 421h997M0 605h997M72 .5v639" stroke-dasharray="2 4"/><path d="M210 .5v639m92-639v639m92-639v639m92-639v639m92-639v639m92-639v639m92-639v639m92-639v639"/><path d="M118 .5v639m46-639v639m92-639v639m92-639v639m92-639v639m92-639v639m92-639v639m92-639v639m92-639v639" stroke-dasharray="2 4"/></g></g><defs><radialGradient id="paint0_radial" cx="0" cy="0" r="1" gradientUnits="userSpaceOnUse" gradientTransform="rotate(-170.004 334.513 172.527) scale(671.188 384.348)"><stop stop-color="#fff"/><stop offset="1" stop-color="#fff" stop-opacity="0"/></radialGradient></defs></svg>