<svg width="422" height="205" fill="none" xmlns="http://www.w3.org/2000/svg"><circle cx="81.413" cy="69.557" r="8.023" fill="#224DE5"/><path d="M81.064 69.556l20.58-17.091 16.045 16.394 10.813-20.928" stroke="#224DE5" stroke-width="4.313"/><circle cx="101.296" cy="52.465" r="6.278" fill="#224DE5"/><circle cx="128.153" cy="47.931" r="4.534" fill="#224DE5"/><circle cx="112.806" cy="36.769" r="3.139" fill="#224DE5"/><circle cx="101.993" cy="86.648" r="4.883" fill="#224DE5"/><circle cx="117.689" cy="68.859" r="5.232" fill="#224DE5"/><path d="M160.105 51.078c-2.672 0-4.986 1.197-6.223 3.072v-2.593h-5.824V72.18h5.824V59.854l.04.12c0-2.234 1.875-3.99 4.308-3.99 2.314 0 3.91 1.756 3.91 4.309V72.18h5.624V59.056c0-4.667-3.191-7.978-7.659-7.978zm20.714 16.435c-2.434 0-4.229-1.516-4.907-3.75h14.879c0-7.778-3.789-12.685-10.252-12.685-6.023 0-10.61 4.508-10.61 10.73 0 6.343 4.786 10.85 10.93 10.85 3.031 0 6.582-1.276 8.416-3.19l-3.709-3.79c-1.117 1.077-3.112 1.835-4.747 1.835zm-.04-11.29c2.353 0 3.869 1.317 4.428 3.352h-9.215c.758-2.075 2.593-3.351 4.787-3.351zm26.039-4.666v12.326l-.04-.12c0 2.234-1.874 3.99-4.308 3.99-2.313 0-3.909-1.756-3.909-4.309V51.557h-5.625V64.68c0 4.667 3.192 7.978 7.659 7.978 2.673 0 4.987-1.197 6.223-3.072v2.593h5.824V51.557h-5.824zm15.049 3.83v-3.83h-5.824V72.18h5.824v-9.853c0-3.87 2.753-6.342 7.061-6.342v-4.907c-3.151 0-5.704 1.636-7.061 4.308zm18.04-4.309c-2.872 0-5.704.798-8.616 2.274l1.954 3.87c1.636-.839 3.431-1.477 5.346-1.477 3.39 0 4.747 1.915 4.747 4.109v.399c-1.756-.678-3.591-1.037-5.266-1.037-4.787 0-8.576 2.792-8.576 6.86 0 3.95 3.39 6.583 7.778 6.583 2.234 0 4.588-.878 6.064-2.553v2.074h5.624V59.854c0-5.385-3.67-8.776-9.055-8.776zm-1.316 17.552c-1.995 0-3.471-1.037-3.471-2.713 0-1.675 1.676-2.912 3.79-2.912 1.595 0 3.111.28 4.428.758v1.915c-.399 1.915-2.514 2.952-4.747 2.952zM265 51.078c-2.872 0-5.265 1.237-6.901 3.35v-10.13h-5.824V72.18h5.824v-2.912c1.636 2.154 4.029 3.39 6.901 3.39 5.505 0 9.494-4.467 9.494-10.81 0-6.302-3.989-10.77-9.494-10.77zm-1.675 16.674c-2.832 0-4.907-2.074-5.226-5.106v-1.595c.319-2.992 2.394-5.066 5.226-5.066 3.231 0 5.505 2.433 5.505 5.864 0 3.47-2.274 5.903-5.505 5.903zm23.821 4.907c6.103 0 11.209-4.947 11.209-10.81 0-5.864-5.106-10.771-11.209-10.771-6.143 0-11.289 4.907-11.289 10.77 0 5.864 5.146 10.81 11.289 10.81zm0-4.907c-3.112 0-5.704-2.712-5.704-5.903 0-3.192 2.592-5.864 5.704-5.864 3.071 0 5.664 2.672 5.664 5.864 0 3.19-2.593 5.903-5.664 5.903zm24.405-.678c-.399.4-1.197.678-1.995.678-1.077 0-1.955-.957-1.955-2.313v-9.175h4.468v-4.707h-4.468v-5.665h-5.584v5.665h-2.833v4.707h2.833v10.092c0 3.71 2.553 6.303 6.183 6.303 1.675 0 3.55-.718 4.747-1.795l-1.396-3.79z" fill="#224DE5"/><path d="M1 12h363M12 114h364M350 1v122M34 4v122" stroke="#224DE5" stroke-linecap="round" stroke-dasharray="2 4"/><ellipse cx="354.5" cy="137" rx="66.5" ry="67" fill="#fff" stroke="#000" stroke-linecap="round" stroke-dasharray="2 4"/><path d="M397.789 126.91h-8.127l-9.288 10.818 2.999 4.852 6.192 9.411h8.127l-9.627-13.972 9.724-11.109zm-28.075 0v14.987l-.048-.145c0 2.716-2.274 4.85-5.224 4.85-2.805 0-4.74-2.134-4.74-5.238V126.91h-6.819v15.957c0 5.675 3.869 9.701 9.286 9.701 3.24 0 6.046-1.455 7.545-3.735v3.153h7.061V126.91h-7.061zm-31.459 25.658c6.148 0 10.166-3.152 10.166-8.099 0-5.479-4.792-6.934-9.101-8.049-3.388-.922-4.405-1.31-4.405-2.667 0-.873 1.21-1.504 2.953-1.504 2.13 0 4.744.825 7.02 2.231l2.856-5.043c-2.76-1.843-6.294-3.104-9.876-3.104-5.906 0-9.827 3.395-9.779 8.147.049 4.946 4.018 6.353 9.15 7.613 2.566.679 4.405 1.164 4.405 2.716 0 1.115-1.355 1.891-3.243 1.891-3.341 0-6.148-1.212-8.375-2.812l-3.05 4.897c3.001 2.425 7.261 3.783 11.279 3.783zm-22.649-.577h7.052V126.91h-7.052v25.081z" fill="#000"/><path d="M319.204 121.432c4.531 0 8.204-3.678 8.204-8.216 0-4.537-3.673-8.216-8.204-8.216-4.531 0-8.204 3.679-8.204 8.216 0 4.538 3.673 8.216 8.204 8.216z" fill="#FC0"/><path d="M326.256 117.613a8.258 8.258 0 01-6.98 3.819 8.261 8.261 0 01-6.981-3.819 8.26 8.26 0 016.981-3.82 8.257 8.257 0 016.98 3.82z" fill="#FF7F2A"/><path d="M333.206 168.856h1.8v-5.714h2.189v-1.637h-6.189v1.637h2.2v5.714zM319.28 169c1.821 0 2.946-.924 2.946-2.407 0-1.386-1.06-1.859-2.711-2.213-1.093-.237-1.446-.387-1.446-.838 0-.366.332-.645.921-.645.686 0 1.425.268 2.101.784l.932-1.311c-.782-.655-1.747-1.01-2.979-1.01-1.682 0-2.818.946-2.818 2.364 0 1.483 1.168 1.913 2.743 2.267 1.071.258 1.414.355 1.414.796 0 .397-.353.676-1.039.676-.9 0-1.704-.343-2.422-.934l-1.028 1.235c.889.806 2.078 1.236 3.386 1.236zm59.654-.144h1.727v-7.351h-1.727v7.351zm-16.264 0h2.656c2.497 0 4.253-1.53 4.253-3.681s-1.756-3.67-4.253-3.67h-2.656v7.351zm1.81-1.659v-4.034h1.121c1.238 0 2.127.835 2.127 2.012s-.889 2.022-2.127 2.022h-1.121zM349.789 169c1.993 0 3.382-1.383 3.382-3.356v-4.139h-1.802v4.053c0 1.04-.658 1.78-1.58 1.78-.912 0-1.569-.74-1.569-1.78v-4.053h-1.814v4.139c0 1.973 1.4 3.356 3.383 3.356zm43.533 0c2.114 0 3.891-1.751 3.891-3.825 0-2.074-1.777-3.815-3.891-3.815-2.104 0-3.881 1.741-3.881 3.815s1.777 3.825 3.881 3.825zm0-1.665c-1.105 0-2.041-.989-2.041-2.16 0-1.161.936-2.149 2.041-2.149 1.104 0 2.04.988 2.04 2.149 0 1.171-.936 2.16-2.04 2.16z" fill="#000"/></svg>