<svg width="144" height="137" fill="none" xmlns="http://www.w3.org/2000/svg"><path d="M64.172 42.328l-6.55 6.55a2.121 2.121 0 001.5 3.622h24.757a2.121 2.121 0 001.5-3.621L83.75 47.25a3.182 3.182 0 00-4.5 0 3.182 3.182 0 01-4.5 0l-4.922-4.922a4 4 0 00-5.656 0z" fill="#464E57" stroke="#464E57" stroke-width="2"/><circle cx="77" cy="40" r="3" fill="#FC0" stroke="#FF7F2A" stroke-width="2"/><circle cx="102" cy="79" r="2.5" fill="#464E57" stroke="#464E57"/><rect x="39" y="94" width="66" height="8" rx="1" fill="#FF4F14"/><path d="M40 77h31m-31 6h22" stroke="#464E57" stroke-width="2" stroke-linecap="round"/><path d="M1 22h122M25 70h102M21 109h122M110 1v122M34 14v122" stroke="#C0CFDE" stroke-linecap="round" stroke-dasharray="2 4"/></svg>