<svg width="40" height="29" fill="none" xmlns="http://www.w3.org/2000/svg"><path d="M31.391 29c-3.43 0-5.914-1.217-7.454-3.651-.7-1.043-1.26-2.33-1.68-3.86a18.05 18.05 0 01-.63-4.798c0-3.617.91-6.885 2.73-9.806 1.89-2.921 4.654-5.216 8.294-6.885l.945 1.878c-2.03.834-3.815 2.12-5.354 3.86-1.47 1.738-2.345 3.511-2.625 5.32a9.829 9.829 0 00-.315 2.399c0 .695.105 1.356.315 1.982 1.54-1.67 3.57-2.504 6.089-2.504 2.45 0 4.445.73 5.984 2.19 1.54 1.392 2.31 3.339 2.31 5.843 0 2.364-.805 4.311-2.415 5.841C35.975 28.27 33.911 29 31.391 29zM9.764 29c-3.43 0-5.914-1.217-7.454-3.651-.7-1.043-1.26-2.33-1.68-3.86A18.037 18.037 0 010 16.691c0-3.617.91-6.885 2.73-9.806C4.62 3.964 7.384 1.669 11.024 0l.945 1.878c-2.03.834-3.815 2.12-5.355 3.86-1.47 1.738-2.345 3.511-2.624 5.32a9.83 9.83 0 00-.315 2.399c0 .695.105 1.356.315 1.982 1.54-1.67 3.569-2.504 6.089-2.504 2.45 0 4.444.73 5.984 2.19 1.54 1.392 2.31 3.339 2.31 5.843 0 2.364-.805 4.311-2.415 5.841C14.348 28.27 12.283 29 9.764 29z" fill="#FF5C1C"/></svg>