<svg width="621" height="359" viewBox="0 0 621 359" fill="none" xmlns="http://www.w3.org/2000/svg">
<rect y="34" width="621" height="320" fill="white"/>
<rect y="18" width="621" height="16" fill="white"/>
<rect y="33.6" width="621" height="0.5" fill="#E3E8ED"/>
<path d="M39.5023 24.8955C39.1473 23.8912 38.1895 23.1716 37.0636 23.1716C35.6355 23.1716 34.4778 24.3293 34.4778 25.7575C34.4778 27.1856 35.6355 28.3433 37.0636 28.3433C38.1895 28.3433 39.1473 27.6237 39.5023 26.6194" stroke="#5E7285" stroke-width="0.861945" stroke-linecap="round"/>
<path d="M40.0806 22.9562L37.7102 25.3265H40.0806V22.9562Z" fill="#5E7285" stroke="#5E7285" stroke-width="0.430972"/>
<circle cx="611.119" cy="23.1717" r="0.861945" fill="#5E7285"/>
<circle cx="611.119" cy="25.7575" r="0.861945" fill="#5E7285"/>
<circle cx="611.119" cy="28.3433" r="0.861945" fill="#5E7285"/>
<mask id="mask0" mask-type="alpha" maskUnits="userSpaceOnUse" x="593" y="21" width="9" height="10">
<circle cx="597.327" cy="25.7575" r="4.30972" fill="#F9FCFF"/>
</mask>
<g mask="url(#mask0)">
<circle cx="597.327" cy="25.7575" r="4.30972" fill="#FF7F2A"/>
<path d="M597.975 29.1726C597.792 28.4895 597.755 28.2216 597.252 27.8409L598.15 26.8679C598.656 27.5059 598.797 27.915 599.188 28.2372C598.789 28.9935 598.784 29.1618 597.975 29.1726Z" fill="#FEC37F"/>
<path d="M597.252 27.8409L598.15 26.8679C598.206 26.9382 598.257 27.0057 598.305 27.0706C598.305 27.0706 598.068 27.9273 597.7 28.1479C597.599 28.2082 597.517 28.075 597.517 28.075C597.446 27.9987 597.359 27.9224 597.252 27.8409Z" fill="#EDB16C"/>
<path d="M597.913 27.5363C597.913 27.5363 596.914 28.5829 596.313 28.5829C596.078 28.5829 595.424 27.8827 595.273 27.2735C595.109 26.6139 595.339 25.6353 595.133 24.5927C595.133 24.5927 597.466 24.5807 597.959 25.6514C598.266 26.3203 597.913 27.5363 597.913 27.5363Z" fill="#EDB16C"/>
<path d="M597.913 27.5363C597.913 27.5363 596.929 28.5746 596.328 28.5746C596.092 28.5746 596.061 28.0751 595.911 27.466C595.863 27.2728 595.46 27.3633 595.439 27.1571C595.851 26.0205 595.555 24.5224 595.555 24.5224C595.555 24.5224 597.466 24.5807 597.959 25.6514C598.267 26.3203 597.913 27.5363 597.913 27.5363Z" fill="#FEC37F"/>
<path d="M594.947 24.9552C595.055 26.2432 597.245 26.1339 597.245 26.1339C597.245 26.1339 597.858 25.7613 598.016 26.0076C598.227 26.7109 597.679 26.8164 597.679 26.8164C597.952 27.2298 598.27 27.6761 598.365 27.6663C598.66 27.636 599.038 26.4935 599.26 25.754C599.437 25.1646 599.419 24.559 599.013 24.0448C599.004 24.0332 599.031 23.9941 599.105 23.9571C599.068 23.883 598.956 23.9505 598.957 23.92C598.959 23.8699 599.031 23.7719 598.957 23.7349C598.957 23.8089 598.871 23.8836 598.846 23.8588C597.596 22.6349 594.789 23.0736 594.947 24.9552Z" fill="black"/>
<path d="M595.771 35.7182C596.434 34.6758 596.667 33.5789 596.684 31.1048C596.701 28.6306 597.686 28.5705 597.686 28.5705C598.334 28.7473 598.865 28.1579 599.017 27.8043C599.528 28.0656 600.473 27.8899 600.868 28.5705C601.633 29.886 601.647 32.7328 601.635 36.4272C601.074 37.2575 600.081 37.4341 598.892 37.3214C597.708 37.2091 595.107 36.7607 595.771 35.7182Z" fill="#FFCC00"/>
<path d="M599.042 27.8043C598.704 28.4125 598.428 28.6148 597.686 28.5705" stroke="#FF7F2A" stroke-width="0.235747" stroke-linecap="round"/>
</g>
<path d="M23.4878 28.1279L25.8582 25.7575" stroke="#5E7285" stroke-width="0.861945" stroke-linecap="round"/>
<path d="M25.4272 25.7575H20.6866" stroke="#5E7285" stroke-width="0.861945" stroke-linecap="round"/>
<path d="M23.4878 23.3871L25.8582 25.7575" stroke="#5E7285" stroke-width="0.861945" stroke-linecap="round"/>
<path d="M9.26586 28.1279L6.89551 25.7575" stroke="#5E7285" stroke-width="0.861945" stroke-linecap="round"/>
<path d="M7.32666 25.7575H12.0674" stroke="#5E7285" stroke-width="0.861945" stroke-linecap="round"/>
<path d="M9.26586 23.3871L6.89551 25.7575" stroke="#5E7285" stroke-width="0.861945" stroke-linecap="round"/>
<rect x="46.5452" y="19.7239" width="541.301" height="12.0672" rx="6.03361" fill="#E3E8ED"/>
<path d="M578.581 23.1716L579.394 24.9434L581.382 25.147L579.897 26.4457L580.312 28.3433L578.581 27.3741L576.849 28.3433L577.264 26.4457L575.779 25.147L577.767 24.9434L578.581 23.1716Z" stroke="#5E7285" stroke-width="0.861945"/>
<path d="M64.525 26.209C64.525 26.7288 64.4061 27.1475 64.1683 27.4653C63.9305 27.783 63.6085 27.9419 63.2024 27.9419C62.7878 27.9419 62.4617 27.8104 62.2239 27.5473V29.1919H61.6399V24.4634H62.1734L62.2018 24.8422C62.4396 24.5476 62.77 24.4003 63.1929 24.4003C63.6033 24.4003 63.9273 24.555 64.1651 24.8643C64.405 25.1736 64.525 25.604 64.525 26.1553V26.209ZM63.941 26.1427C63.941 25.7576 63.859 25.4535 63.6948 25.2305C63.5307 25.0074 63.3055 24.8959 63.0193 24.8959C62.6658 24.8959 62.4006 25.0526 62.2239 25.3662V26.9981C62.3985 27.3096 62.6658 27.4653 63.0256 27.4653C63.3055 27.4653 63.5275 27.3548 63.6917 27.1338C63.8579 26.9108 63.941 26.5804 63.941 26.1427ZM65.9044 27.8788H65.3204V23.0303H65.9044V27.8788ZM68.9505 27.8788C68.9168 27.8114 68.8894 27.6915 68.8684 27.5189C68.5969 27.8009 68.2728 27.9419 67.8962 27.9419C67.5595 27.9419 67.2827 27.8472 67.066 27.6578C66.8514 27.4663 66.744 27.2243 66.744 26.9318C66.744 26.5762 66.8787 26.3005 67.1481 26.1048C67.4195 25.907 67.8004 25.8081 68.2907 25.8081H68.8589V25.5398C68.8589 25.3357 68.7979 25.1736 68.6758 25.0537C68.5538 24.9316 68.3739 24.8706 68.1361 24.8706C67.9277 24.8706 67.7531 24.9232 67.6121 25.0284C67.4711 25.1337 67.4006 25.261 67.4006 25.4104H66.8135C66.8135 25.2399 66.8734 25.0758 66.9934 24.918C67.1155 24.758 67.2796 24.6318 67.4858 24.5392C67.6941 24.4466 67.9225 24.4003 68.1708 24.4003C68.5643 24.4003 68.8726 24.4992 69.0957 24.697C69.3187 24.8927 69.4345 25.1631 69.4429 25.5082V27.0802C69.4429 27.3937 69.4829 27.6431 69.5628 27.8283V27.8788H68.9505ZM67.9814 27.4337C68.1645 27.4337 68.3381 27.3864 68.5022 27.2917C68.6664 27.197 68.7853 27.0739 68.8589 26.9224V26.2216H68.4012C67.6857 26.2216 67.328 26.431 67.328 26.8498C67.328 27.0328 67.389 27.1759 67.5111 27.279C67.6331 27.3822 67.7899 27.4337 67.9814 27.4337ZM71.1506 23.6364V24.4634H71.7882V24.9148H71.1506V27.0328C71.1506 27.1696 71.179 27.2727 71.2358 27.3422C71.2926 27.4095 71.3894 27.4432 71.5262 27.4432C71.5935 27.4432 71.6861 27.4306 71.804 27.4053V27.8788C71.6503 27.9209 71.5009 27.9419 71.3557 27.9419C71.0948 27.9419 70.898 27.863 70.7655 27.7052C70.6329 27.5473 70.5666 27.3232 70.5666 27.0328V24.9148H69.9448V24.4634H70.5666V23.6364H71.1506ZM72.7604 27.8788V24.9148H72.2206V24.4634H72.7604V24.113C72.7604 23.7469 72.8582 23.4638 73.0539 23.2639C73.2497 23.064 73.5264 22.9641 73.8841 22.9641C74.0188 22.9641 74.1524 22.9819 74.285 23.0177L74.2534 23.4912C74.1545 23.4723 74.0493 23.4628 73.9378 23.4628C73.7484 23.4628 73.6021 23.5186 73.499 23.6301C73.3959 23.7395 73.3443 23.8973 73.3443 24.1036V24.4634H74.0735V24.9148H73.3443V27.8788H72.7604ZM74.5659 26.1395C74.5659 25.8049 74.6312 25.504 74.7616 25.2368C74.8942 24.9695 75.0773 24.7633 75.3109 24.6181C75.5466 24.4729 75.8149 24.4003 76.1158 24.4003C76.5808 24.4003 76.9565 24.5613 77.2427 24.8832C77.531 25.2052 77.6751 25.6334 77.6751 26.1679V26.209C77.6751 26.5415 77.6109 26.8403 77.4826 27.1054C77.3563 27.3685 77.1743 27.5737 76.9365 27.721C76.7008 27.8683 76.4293 27.9419 76.1221 27.9419C75.6591 27.9419 75.2835 27.7809 74.9952 27.459C74.709 27.137 74.5659 26.7109 74.5659 26.1806V26.1395ZM75.153 26.209C75.153 26.5878 75.2404 26.8918 75.415 27.1212C75.5918 27.3506 75.8275 27.4653 76.1221 27.4653C76.4188 27.4653 76.6545 27.3495 76.8292 27.1181C77.0038 26.8845 77.0912 26.5583 77.0912 26.1395C77.0912 25.765 77.0017 25.4619 76.8229 25.2305C76.6461 24.9969 76.4104 24.8801 76.1158 24.8801C75.8275 24.8801 75.595 24.9948 75.4182 25.2241C75.2414 25.4535 75.153 25.7818 75.153 26.209ZM80.0583 24.9874C79.9699 24.9727 79.8742 24.9653 79.7711 24.9653C79.3881 24.9653 79.1282 25.1284 78.9914 25.4546V27.8788H78.4074V24.4634H78.9756L78.9851 24.858C79.1766 24.5528 79.448 24.4003 79.7995 24.4003C79.9131 24.4003 79.9994 24.415 80.0583 24.4445V24.9874ZM81.1473 24.4634L81.1631 24.8422C81.4135 24.5476 81.7513 24.4003 82.1763 24.4003C82.654 24.4003 82.9791 24.5834 83.1517 24.9495C83.2653 24.7854 83.4126 24.6528 83.5936 24.5518C83.7767 24.4508 83.9924 24.4003 84.2407 24.4003C84.9899 24.4003 85.3708 24.797 85.3834 25.5903V27.8788H84.7994V25.625C84.7994 25.3809 84.7437 25.1989 84.6321 25.0789C84.5206 24.9569 84.3333 24.8959 84.0703 24.8959C83.8535 24.8959 83.6736 24.9611 83.5305 25.0916C83.3874 25.2199 83.3043 25.3935 83.2811 25.6124V27.8788H82.694V25.6408C82.694 25.1442 82.451 24.8959 81.9648 24.8959C81.5819 24.8959 81.3199 25.0589 81.1789 25.3851V27.8788H80.5949V24.4634H81.1473ZM86.2798 27.5726C86.2798 27.4716 86.3093 27.3874 86.3682 27.3201C86.4292 27.2527 86.5197 27.2191 86.6397 27.2191C86.7596 27.2191 86.8501 27.2527 86.9111 27.3201C86.9743 27.3874 87.0058 27.4716 87.0058 27.5726C87.0058 27.6694 86.9743 27.7504 86.9111 27.8157C86.8501 27.8809 86.7596 27.9135 86.6397 27.9135C86.5197 27.9135 86.4292 27.8809 86.3682 27.8157C86.3093 27.7504 86.2798 27.6694 86.2798 27.5726ZM88.5241 24.4634L88.5431 24.8927C88.804 24.5644 89.1449 24.4003 89.5658 24.4003C90.2876 24.4003 90.6516 24.8075 90.6579 25.6219V27.8788H90.074V25.6187C90.0719 25.3725 90.0151 25.1905 89.9035 25.0726C89.7941 24.9548 89.6226 24.8959 89.389 24.8959C89.1996 24.8959 89.0334 24.9464 88.8903 25.0474C88.7472 25.1484 88.6357 25.281 88.5557 25.4451V27.8788H87.9717V24.4634H88.5241ZM92.9559 27.9419C92.4929 27.9419 92.1163 27.7904 91.8259 27.4874C91.5355 27.1822 91.3903 26.775 91.3903 26.2658V26.1585C91.3903 25.8197 91.4544 25.5177 91.5828 25.2525C91.7133 24.9853 91.8943 24.777 92.1257 24.6276C92.3593 24.476 92.6118 24.4003 92.8833 24.4003C93.3273 24.4003 93.6724 24.5465 93.9186 24.839C94.1649 25.1315 94.288 25.5503 94.288 26.0953V26.3384H91.9742C91.9826 26.6751 92.0805 26.9476 92.2678 27.1559C92.4572 27.3622 92.6971 27.4653 92.9875 27.4653C93.1937 27.4653 93.3684 27.4232 93.5115 27.339C93.6546 27.2548 93.7798 27.1433 93.8871 27.0044L94.2438 27.2822C93.9576 27.722 93.5283 27.9419 92.9559 27.9419ZM92.8833 24.8801C92.6476 24.8801 92.4498 24.9664 92.2899 25.1389C92.1299 25.3094 92.031 25.5493 91.9932 25.8586H93.704V25.8144C93.6872 25.5177 93.6072 25.2883 93.4641 25.1263C93.321 24.9621 93.1274 24.8801 92.8833 24.8801ZM97.0752 27.541C96.8479 27.8083 96.5144 27.9419 96.0746 27.9419C95.7105 27.9419 95.4327 27.8367 95.2412 27.6263C95.0518 27.4137 94.9561 27.1002 94.954 26.6856V24.4634H95.538V26.6698C95.538 27.1875 95.7484 27.4463 96.1693 27.4463C96.6154 27.4463 96.9121 27.2801 97.0594 26.9476V24.4634H97.6434V27.8788H97.0878L97.0752 27.541ZM100.184 24.9874C100.096 24.9727 100 24.9653 99.8971 24.9653C99.5141 24.9653 99.2542 25.1284 99.1175 25.4546V27.8788H98.5335V24.4634H99.1017L99.1112 24.858C99.3026 24.5528 99.5741 24.4003 99.9255 24.4003C100.039 24.4003 100.125 24.415 100.184 24.4445V24.9874ZM102.706 27.8788C102.673 27.8114 102.645 27.6915 102.624 27.5189C102.353 27.8009 102.029 27.9419 101.652 27.9419C101.315 27.9419 101.039 27.8472 100.822 27.6578C100.607 27.4663 100.5 27.2243 100.5 26.9318C100.5 26.5762 100.635 26.3005 100.904 26.1048C101.176 25.907 101.556 25.8081 102.047 25.8081H102.615V25.5398C102.615 25.3357 102.554 25.1736 102.432 25.0537C102.31 24.9316 102.13 24.8706 101.892 24.8706C101.684 24.8706 101.509 24.9232 101.368 25.0284C101.227 25.1337 101.157 25.261 101.157 25.4104H100.569C100.569 25.2399 100.629 25.0758 100.749 24.918C100.871 24.758 101.036 24.6318 101.242 24.5392C101.45 24.4466 101.678 24.4003 101.927 24.4003C102.32 24.4003 102.629 24.4992 102.852 24.697C103.075 24.8927 103.19 25.1631 103.199 25.5082V27.0802C103.199 27.3937 103.239 27.6431 103.319 27.8283V27.8788H102.706ZM101.737 27.4337C101.92 27.4337 102.094 27.3864 102.258 27.2917C102.422 27.197 102.541 27.0739 102.615 26.9224V26.2216H102.157C101.442 26.2216 101.084 26.431 101.084 26.8498C101.084 27.0328 101.145 27.1759 101.267 27.279C101.389 27.3822 101.546 27.4337 101.737 27.4337ZM107.006 26.209C107.006 26.7309 106.886 27.1507 106.646 27.4684C106.406 27.7841 106.084 27.9419 105.68 27.9419C105.249 27.9419 104.915 27.7893 104.679 27.4842L104.651 27.8788H104.114V23.0303H104.698V24.839C104.934 24.5465 105.259 24.4003 105.674 24.4003C106.088 24.4003 106.413 24.5571 106.649 24.8706C106.887 25.1842 107.006 25.6134 107.006 26.1585V26.209ZM106.422 26.1427C106.422 25.745 106.345 25.4377 106.191 25.221C106.038 25.0042 105.817 24.8959 105.528 24.8959C105.143 24.8959 104.867 25.0747 104.698 25.4325V26.9097C104.877 27.2675 105.156 27.4463 105.535 27.4463C105.815 27.4463 106.032 27.338 106.188 27.1212C106.344 26.9045 106.422 26.5783 106.422 26.1427ZM107.59 26.1395C107.59 25.8049 107.655 25.504 107.785 25.2368C107.918 24.9695 108.101 24.7633 108.335 24.6181C108.57 24.4729 108.839 24.4003 109.139 24.4003C109.605 24.4003 109.98 24.5613 110.266 24.8832C110.555 25.2052 110.699 25.6334 110.699 26.1679V26.209C110.699 26.5415 110.635 26.8403 110.506 27.1054C110.38 27.3685 110.198 27.5737 109.96 27.721C109.724 27.8683 109.453 27.9419 109.146 27.9419C108.683 27.9419 108.307 27.7809 108.019 27.459C107.733 27.137 107.59 26.7109 107.59 26.1806V26.1395ZM108.177 26.209C108.177 26.5878 108.264 26.8918 108.439 27.1212C108.615 27.3506 108.851 27.4653 109.146 27.4653C109.442 27.4653 109.678 27.3495 109.853 27.1181C110.028 26.8845 110.115 26.5583 110.115 26.1395C110.115 25.765 110.025 25.4619 109.847 25.2305C109.67 24.9969 109.434 24.8801 109.139 24.8801C108.851 24.8801 108.619 24.9948 108.442 25.2241C108.265 25.4535 108.177 25.7818 108.177 26.209ZM112.223 23.6364V24.4634H112.861V24.9148H112.223V27.0328C112.223 27.1696 112.252 27.2727 112.309 27.3422C112.365 27.4095 112.462 27.4432 112.599 27.4432C112.666 27.4432 112.759 27.4306 112.877 27.4053V27.8788C112.723 27.9209 112.574 27.9419 112.429 27.9419C112.168 27.9419 111.971 27.863 111.838 27.7052C111.706 27.5473 111.639 27.3232 111.639 27.0328V24.9148H111.018V24.4634H111.639V23.6364H112.223ZM113.559 27.5726C113.559 27.4716 113.588 27.3874 113.647 27.3201C113.708 27.2527 113.799 27.2191 113.918 27.2191C114.038 27.2191 114.129 27.2527 114.19 27.3201C114.253 27.3874 114.285 27.4716 114.285 27.5726C114.285 27.6694 114.253 27.7504 114.19 27.8157C114.129 27.8809 114.038 27.9135 113.918 27.9135C113.799 27.9135 113.708 27.8809 113.647 27.8157C113.588 27.7504 113.559 27.6694 113.559 27.5726ZM115.885 27.8788H115.301V24.4634H115.885V27.8788ZM115.254 23.5575C115.254 23.4628 115.282 23.3828 115.339 23.3176C115.398 23.2524 115.484 23.2197 115.598 23.2197C115.711 23.2197 115.798 23.2524 115.857 23.3176C115.915 23.3828 115.945 23.4628 115.945 23.5575C115.945 23.6522 115.915 23.7311 115.857 23.7942C115.798 23.8574 115.711 23.8889 115.598 23.8889C115.484 23.8889 115.398 23.8574 115.339 23.7942C115.282 23.7311 115.254 23.6522 115.254 23.5575ZM116.668 26.1395C116.668 25.8049 116.733 25.504 116.864 25.2368C116.996 24.9695 117.179 24.7633 117.413 24.6181C117.648 24.4729 117.917 24.4003 118.218 24.4003C118.683 24.4003 119.058 24.5613 119.345 24.8832C119.633 25.2052 119.777 25.6334 119.777 26.1679V26.209C119.777 26.5415 119.713 26.8403 119.584 27.1054C119.458 27.3685 119.276 27.5737 119.038 27.721C118.803 27.8683 118.531 27.9419 118.224 27.9419C117.761 27.9419 117.385 27.7809 117.097 27.459C116.811 27.137 116.668 26.7109 116.668 26.1806V26.1395ZM117.255 26.209C117.255 26.5878 117.342 26.8918 117.517 27.1212C117.694 27.3506 117.929 27.4653 118.224 27.4653C118.521 27.4653 118.756 27.3495 118.931 27.1181C119.106 26.8845 119.193 26.5583 119.193 26.1395C119.193 25.765 119.104 25.4619 118.925 25.2305C118.748 24.9969 118.512 24.8801 118.218 24.8801C117.929 24.8801 117.697 24.9948 117.52 25.2241C117.343 25.4535 117.255 25.7818 117.255 26.209ZM120.626 28.2734H120.124L122.043 23.2829H122.542L120.626 28.2734ZM123.808 27.8788H123.224V23.0303H123.808V27.8788ZM126.854 27.8788C126.82 27.8114 126.793 27.6915 126.772 27.5189C126.5 27.8009 126.176 27.9419 125.8 27.9419C125.463 27.9419 125.186 27.8472 124.969 27.6578C124.755 27.4663 124.648 27.2243 124.648 26.9318C124.648 26.5762 124.782 26.3005 125.052 26.1048C125.323 25.907 125.704 25.8081 126.194 25.8081H126.762V25.5398C126.762 25.3357 126.701 25.1736 126.579 25.0537C126.457 24.9316 126.277 24.8706 126.04 24.8706C125.831 24.8706 125.657 24.9232 125.516 25.0284C125.375 25.1337 125.304 25.261 125.304 25.4104H124.717C124.717 25.2399 124.777 25.0758 124.897 24.918C125.019 24.758 125.183 24.6318 125.389 24.5392C125.598 24.4466 125.826 24.4003 126.074 24.4003C126.468 24.4003 126.776 24.4992 126.999 24.697C127.222 24.8927 127.338 25.1631 127.346 25.5082V27.0802C127.346 27.3937 127.386 27.6431 127.466 27.8283V27.8788H126.854ZM125.885 27.4337C126.068 27.4337 126.242 27.3864 126.406 27.2917C126.57 27.197 126.689 27.0739 126.762 26.9224V26.2216H126.305C125.589 26.2216 125.231 26.431 125.231 26.8498C125.231 27.0328 125.293 27.1759 125.415 27.279C125.537 27.3822 125.693 27.4337 125.885 27.4337ZM131.153 26.209C131.153 26.7309 131.033 27.1507 130.793 27.4684C130.553 27.7841 130.231 27.9419 129.827 27.9419C129.396 27.9419 129.062 27.7893 128.827 27.4842L128.798 27.8788H128.262V23.0303H128.846V24.839C129.081 24.5465 129.407 24.4003 129.821 24.4003C130.236 24.4003 130.561 24.5571 130.796 24.8706C131.034 25.1842 131.153 25.6134 131.153 26.1585V26.209ZM130.569 26.1427C130.569 25.745 130.492 25.4377 130.339 25.221C130.185 25.0042 129.964 24.8959 129.676 24.8959C129.291 24.8959 129.014 25.0747 128.846 25.4325V26.9097C129.025 27.2675 129.303 27.4463 129.682 27.4463C129.962 27.4463 130.18 27.338 130.336 27.1212C130.491 26.9045 130.569 26.5783 130.569 26.1427Z" fill="#464E57"/>
<rect x="52.7943" y="25.542" width="3.01681" height="2.58583" rx="0.215486" fill="#5E7285" stroke="#5E7285" stroke-width="0.430972"/>
<path d="M53.4407 25.3265V24.8955C53.4407 24.4195 53.8266 24.0336 54.3026 24.0336V24.0336C54.7787 24.0336 55.1646 24.4195 55.1646 24.8955V25.3265" stroke="#5E7285" stroke-width="0.430972"/>
<path d="M0 3.44778C0 1.54362 1.54362 0 3.44778 0H617.552C619.456 0 621 1.54362 621 3.44778V18H0V3.44778Z" fill="#555F69"/>
<circle cx="8.18862" cy="9.05037" r="2.58583" fill="#FF5C1C"/>
<circle cx="16.808" cy="9.05037" r="2.58583" fill="#FFCC00"/>
<circle cx="25.4274" cy="9.05037" r="2.58583" fill="#27AE60"/>
<path d="M33.4478 6.44778C33.4478 4.54362 34.9914 3 36.8956 3H109.299C111.203 3 112.747 4.54362 112.747 6.44778V14.5522C112.747 16.4564 114.29 18 116.194 18H30C31.9042 18 33.4478 16.4564 33.4478 14.5522V6.44778Z" fill="white"/>
<g clip-path="url(#clip0)">
<circle cx="40.3451" cy="11.0661" r="0.804612" fill="#224DE5"/>
<path d="M40.3103 11.0656L42.3743 9.35145L43.9835 10.9957L45.068 8.89667" stroke="#224DE5" stroke-width="0.432518"/>
<circle cx="42.3389" cy="9.35412" r="0.629696" fill="#224DE5"/>
<circle cx="45.0329" cy="8.89979" r="0.45478" fill="#224DE5"/>
<circle cx="43.4936" cy="7.77847" r="0.314848" fill="#224DE5"/>
<circle cx="42.4092" cy="12.7822" r="0.489764" fill="#224DE5"/>
<circle cx="43.9832" cy="10.9942" r="0.524747" fill="#224DE5"/>
</g>
<path d="M50.9667 12H50.4717V8.24667H50.9667V12ZM53.3787 11.2602C53.3787 11.1313 53.3298 11.0316 53.2318 10.9611C53.1356 10.889 52.9663 10.8271 52.724 10.7755C52.4834 10.724 52.2918 10.6621 52.1491 10.5899C52.0082 10.5177 51.9034 10.4318 51.8346 10.3321C51.7676 10.2325 51.7341 10.1139 51.7341 9.9764C51.7341 9.74783 51.8303 9.55449 52.0228 9.39638C52.217 9.23828 52.4645 9.15922 52.7652 9.15922C53.0814 9.15922 53.3375 9.24085 53.5334 9.40412C53.731 9.56738 53.8299 9.77619 53.8299 10.0305H53.3504C53.3504 9.89992 53.2945 9.78736 53.1828 9.69284C53.0728 9.59831 52.9336 9.55105 52.7652 9.55105C52.5916 9.55105 52.4559 9.58886 52.3579 9.66448C52.26 9.7401 52.211 9.83891 52.211 9.96093C52.211 10.0761 52.2565 10.1629 52.3476 10.2213C52.4387 10.2797 52.6028 10.3356 52.84 10.3889C53.0789 10.4421 53.2722 10.5057 53.42 10.5796C53.5678 10.6535 53.6769 10.7429 53.7474 10.8477C53.8196 10.9508 53.8556 11.0771 53.8556 11.2266C53.8556 11.4758 53.756 11.6761 53.5566 11.8273C53.3573 11.9768 53.0986 12.0516 52.7807 12.0516C52.5573 12.0516 52.3596 12.012 52.1878 11.933C52.0159 11.8539 51.881 11.7439 51.7831 11.603C51.6868 11.4604 51.6387 11.3066 51.6387 11.1416H52.1156C52.1242 11.3014 52.1878 11.4286 52.3064 11.5231C52.4267 11.6159 52.5848 11.6623 52.7807 11.6623C52.9611 11.6623 53.1055 11.6262 53.2138 11.554C53.3237 11.4801 53.3787 11.3822 53.3787 11.2602ZM56.1543 11.7242C55.9687 11.9424 55.6963 12.0516 55.3371 12.0516C55.0398 12.0516 54.8129 11.9656 54.6565 11.7938C54.5019 11.6202 54.4237 11.3641 54.422 11.0256V9.21078H54.8989V11.0127C54.8989 11.4355 55.0707 11.6468 55.4144 11.6468C55.7788 11.6468 56.0211 11.5111 56.1414 11.2395V9.21078H56.6183V12H56.1646L56.1543 11.7242ZM58.0791 10.7085L57.7801 11.0204V12H57.3032V8.04044H57.7801V10.4353L58.0353 10.1285L58.904 9.21078H59.484L58.3988 10.376L59.6103 12H59.051L58.0791 10.7085ZM62.3773 10.327C61.9529 10.205 61.6435 10.0555 61.4493 9.87844C61.2568 9.69971 61.1606 9.47973 61.1606 9.21851C61.1606 8.92292 61.2783 8.67889 61.5138 8.48641C61.7509 8.29221 62.0585 8.19511 62.4366 8.19511C62.6944 8.19511 62.9238 8.24495 63.1249 8.34463C63.3277 8.4443 63.4841 8.58179 63.5941 8.75708C63.7058 8.93237 63.7616 9.12399 63.7616 9.33194H63.2641C63.2641 9.10509 63.1919 8.92722 63.0476 8.79833C62.9032 8.66772 62.6996 8.60241 62.4366 8.60241C62.1926 8.60241 62.0018 8.65654 61.8643 8.76481C61.7286 8.87136 61.6607 9.02002 61.6607 9.21078C61.6607 9.36373 61.7251 9.49348 61.854 9.60003C61.9846 9.70487 62.2055 9.8011 62.5165 9.88875C62.8293 9.9764 63.0734 10.0735 63.2486 10.18C63.4257 10.2849 63.5563 10.4078 63.6405 10.5487C63.7264 10.6896 63.7694 10.8554 63.7694 11.0462C63.7694 11.3504 63.6508 11.5944 63.4136 11.7783C63.1765 11.9605 62.8594 12.0516 62.4624 12.0516C62.2046 12.0516 61.964 12.0026 61.7406 11.9046C61.5172 11.8049 61.3445 11.6692 61.2225 11.4973C61.1022 11.3255 61.042 11.1304 61.042 10.9122H61.5395C61.5395 11.139 61.6229 11.3186 61.7896 11.4509C61.958 11.5815 62.1823 11.6468 62.4624 11.6468C62.7236 11.6468 62.9238 11.5936 63.063 11.487C63.2022 11.3805 63.2718 11.2352 63.2718 11.0514C63.2718 10.8675 63.2074 10.7257 63.0785 10.626C62.9496 10.5246 62.7159 10.4249 62.3773 10.327ZM64.9337 8.53539V9.21078H65.4545V9.57941H64.9337V11.3091C64.9337 11.4208 64.9569 11.5051 65.0033 11.5618C65.0497 11.6168 65.1288 11.6443 65.2405 11.6443C65.2955 11.6443 65.3711 11.6339 65.4674 11.6133V12C65.3419 12.0344 65.2199 12.0516 65.1013 12.0516C64.8882 12.0516 64.7275 11.9871 64.6192 11.8582C64.511 11.7293 64.4568 11.5463 64.4568 11.3091V9.57941H63.949V9.21078H64.4568V8.53539H64.9337ZM67.6912 11.7242C67.5056 11.9424 67.2332 12.0516 66.8741 12.0516C66.5767 12.0516 66.3499 11.9656 66.1935 11.7938C66.0388 11.6202 65.9606 11.3641 65.9589 11.0256V9.21078H66.4358V11.0127C66.4358 11.4355 66.6077 11.6468 66.9514 11.6468C67.3157 11.6468 67.558 11.5111 67.6783 11.2395V9.21078H68.1552V12H67.7015L67.6912 11.7242ZM68.7216 10.5822C68.7216 10.1543 68.823 9.81056 69.0257 9.55105C69.2285 9.28983 69.4941 9.15922 69.8223 9.15922C70.1488 9.15922 70.4075 9.27093 70.5982 9.49434V8.04044H71.0751V12H70.6369L70.6137 11.701C70.4229 11.9347 70.1574 12.0516 69.8171 12.0516C69.4941 12.0516 69.2303 11.9192 69.0257 11.6546C68.823 11.3899 68.7216 11.0445 68.7216 10.6183V10.5822ZM69.1985 10.6363C69.1985 10.9525 69.2638 11.2 69.3944 11.3787C69.525 11.5575 69.7054 11.6468 69.9357 11.6468C70.2382 11.6468 70.459 11.5111 70.5982 11.2395V9.95835C70.4556 9.69541 70.2365 9.56394 69.9409 9.56394C69.7072 9.56394 69.525 9.65417 69.3944 9.83462C69.2638 10.0151 69.1985 10.2823 69.1985 10.6363ZM72.2911 12H71.8142V9.21078H72.2911V12ZM71.7755 8.47094C71.7755 8.3936 71.7987 8.3283 71.8451 8.27502C71.8932 8.22175 71.9637 8.19511 72.0565 8.19511C72.1493 8.19511 72.2197 8.22175 72.2679 8.27502C72.316 8.3283 72.34 8.3936 72.34 8.47094C72.34 8.54828 72.316 8.61272 72.2679 8.66428C72.2197 8.71583 72.1493 8.74161 72.0565 8.74161C71.9637 8.74161 71.8932 8.71583 71.8451 8.66428C71.7987 8.61272 71.7755 8.54828 71.7755 8.47094ZM72.8857 10.5796C72.8857 10.3064 72.939 10.0606 73.0456 9.84235C73.1538 9.62409 73.3033 9.45567 73.4941 9.33709C73.6866 9.21851 73.9057 9.15922 74.1515 9.15922C74.5313 9.15922 74.838 9.29069 75.0717 9.55363C75.3072 9.81657 75.4249 10.1663 75.4249 10.6028V10.6363C75.4249 10.9079 75.3725 11.1519 75.2677 11.3684C75.1645 11.5832 75.0159 11.7508 74.8217 11.8711C74.6292 11.9914 74.4075 12.0516 74.1566 12.0516C73.7785 12.0516 73.4718 11.9201 73.2363 11.6571C73.0026 11.3942 72.8857 11.0462 72.8857 10.6131V10.5796ZM73.3652 10.6363C73.3652 10.9457 73.4365 11.194 73.5792 11.3813C73.7235 11.5686 73.916 11.6623 74.1566 11.6623C74.3989 11.6623 74.5914 11.5678 74.734 11.3787C74.8767 11.188 74.948 10.9216 74.948 10.5796C74.948 10.2737 74.875 10.0262 74.7289 9.83719C74.5845 9.64643 74.3921 9.55105 74.1515 9.55105C73.916 9.55105 73.7261 9.64472 73.5818 9.83204C73.4374 10.0194 73.3652 10.2875 73.3652 10.6363ZM77.2278 11.7499C77.2278 11.6675 77.2518 11.5987 77.3 11.5437C77.3498 11.4887 77.4237 11.4612 77.5217 11.4612C77.6196 11.4612 77.6935 11.4887 77.7434 11.5437C77.7949 11.5987 77.8207 11.6675 77.8207 11.7499C77.8207 11.829 77.7949 11.8952 77.7434 11.9484C77.6935 12.0017 77.6196 12.0284 77.5217 12.0284C77.4237 12.0284 77.3498 12.0017 77.3 11.9484C77.2518 11.8952 77.2278 11.829 77.2278 11.7499ZM77.2304 9.47372C77.2304 9.39123 77.2544 9.32249 77.3025 9.26749C77.3524 9.2125 77.4263 9.185 77.5242 9.185C77.6222 9.185 77.6961 9.2125 77.7459 9.26749C77.7975 9.32249 77.8233 9.39123 77.8233 9.47372C77.8233 9.55277 77.7975 9.61894 77.7459 9.67221C77.6961 9.72549 77.6222 9.75213 77.5242 9.75213C77.4263 9.75213 77.3524 9.72549 77.3025 9.67221C77.2544 9.61894 77.2304 9.55277 77.2304 9.47372ZM79.8169 12V8.24667H80.8764C81.2029 8.24667 81.4916 8.31885 81.7425 8.46321C81.9935 8.60757 82.1868 8.81293 82.3226 9.07931C82.46 9.34569 82.5296 9.65159 82.5314 9.99702V10.2368C82.5314 10.5908 82.4626 10.901 82.3251 11.1674C82.1894 11.4337 81.9943 11.6382 81.74 11.7809C81.4873 11.9235 81.1926 11.9966 80.8558 12H79.8169ZM80.3118 8.65397V11.5953H80.8326C81.2141 11.5953 81.5105 11.4767 81.7219 11.2395C81.935 11.0024 82.0416 10.6647 82.0416 10.2264V10.0073C82.0416 9.58113 81.941 9.25031 81.74 9.01486C81.5406 8.7777 81.2571 8.6574 80.8893 8.65397H80.3118ZM84.3196 12.0516C83.9415 12.0516 83.6339 11.9278 83.3967 11.6803C83.1596 11.4312 83.041 11.0986 83.041 10.6827V10.5951C83.041 10.3184 83.0934 10.0718 83.1982 9.85524C83.3048 9.63698 83.4526 9.46684 83.6416 9.34483C83.8324 9.22109 84.0386 9.15922 84.2603 9.15922C84.6229 9.15922 84.9048 9.27866 85.1058 9.51754C85.3069 9.75642 85.4074 10.0984 85.4074 10.5435V10.742H83.5179C83.5247 11.017 83.6047 11.2395 83.7576 11.4097C83.9123 11.5781 84.1082 11.6623 84.3454 11.6623C84.5138 11.6623 84.6564 11.6279 84.7733 11.5592C84.8901 11.4904 84.9924 11.3994 85.08 11.2859L85.3713 11.5128C85.1376 11.872 84.787 12.0516 84.3196 12.0516ZM84.2603 9.55105C84.0678 9.55105 83.9063 9.62151 83.7757 9.76244C83.645 9.90164 83.5643 10.0976 83.5333 10.3502H84.9305V10.3141C84.9168 10.0718 84.8515 9.88445 84.7346 9.75213C84.6178 9.61808 84.4596 9.55105 84.2603 9.55105ZM87.5411 11.2602C87.5411 11.1313 87.4921 11.0316 87.3941 10.9611C87.2979 10.889 87.1286 10.8271 86.8863 10.7755C86.6457 10.724 86.4541 10.6621 86.3114 10.5899C86.1705 10.5177 86.0657 10.4318 85.997 10.3321C85.9299 10.2325 85.8964 10.1139 85.8964 9.9764C85.8964 9.74783 85.9927 9.55449 86.1851 9.39638C86.3793 9.23828 86.6268 9.15922 86.9276 9.15922C87.2438 9.15922 87.4998 9.24085 87.6957 9.40412C87.8934 9.56738 87.9922 9.77619 87.9922 10.0305H87.5127C87.5127 9.89992 87.4569 9.78736 87.3452 9.69284C87.2352 9.59831 87.096 9.55105 86.9276 9.55105C86.754 9.55105 86.6182 9.58886 86.5203 9.66448C86.4223 9.7401 86.3733 9.83891 86.3733 9.96093C86.3733 10.0761 86.4189 10.1629 86.5099 10.2213C86.601 10.2797 86.7651 10.3356 87.0023 10.3889C87.2412 10.4421 87.4345 10.5057 87.5823 10.5796C87.7301 10.6535 87.8392 10.7429 87.9097 10.8477C87.9819 10.9508 88.018 11.0771 88.018 11.2266C88.018 11.4758 87.9183 11.6761 87.7189 11.8273C87.5196 11.9768 87.261 12.0516 86.943 12.0516C86.7196 12.0516 86.522 12.012 86.3501 11.933C86.1783 11.8539 86.0434 11.7439 85.9454 11.603C85.8492 11.4604 85.801 11.3066 85.801 11.1416H86.2779C86.2865 11.3014 86.3501 11.4286 86.4687 11.5231C86.589 11.6159 86.7471 11.6623 86.943 11.6623C87.1235 11.6623 87.2678 11.6262 87.3761 11.554C87.4861 11.4801 87.5411 11.3822 87.5411 11.2602ZM89.1128 12H88.6359V9.21078H89.1128V12ZM88.5972 8.47094C88.5972 8.3936 88.6204 8.3283 88.6668 8.27502C88.7149 8.22175 88.7854 8.19511 88.8782 8.19511C88.971 8.19511 89.0414 8.22175 89.0896 8.27502C89.1377 8.3283 89.1617 8.3936 89.1617 8.47094C89.1617 8.54828 89.1377 8.61272 89.0896 8.66428C89.0414 8.71583 88.971 8.74161 88.8782 8.74161C88.7854 8.74161 88.7149 8.71583 88.6668 8.66428C88.6204 8.61272 88.5972 8.54828 88.5972 8.47094ZM89.7203 10.5822C89.7203 10.1474 89.8209 9.80196 90.0219 9.5459C90.223 9.28811 90.4894 9.15922 90.8211 9.15922C91.1613 9.15922 91.4268 9.27952 91.6176 9.52012L91.6408 9.21078H92.0765V11.933C92.0765 12.2939 91.9691 12.5783 91.7542 12.7862C91.5411 12.9942 91.2541 13.0982 90.8932 13.0982C90.6922 13.0982 90.4954 13.0552 90.3029 12.9693C90.1104 12.8833 89.9635 12.7656 89.8621 12.6161L90.1096 12.33C90.3141 12.5826 90.5641 12.7089 90.8597 12.7089C91.0917 12.7089 91.2722 12.6436 91.4011 12.513C91.5317 12.3824 91.597 12.1985 91.597 11.9613V11.7216C91.4062 11.9416 91.1459 12.0516 90.8159 12.0516C90.4894 12.0516 90.2247 11.9201 90.0219 11.6571C89.8209 11.3942 89.7203 11.0359 89.7203 10.5822ZM90.1998 10.6363C90.1998 10.9508 90.2642 11.1983 90.3931 11.3787C90.522 11.5575 90.7025 11.6468 90.9345 11.6468C91.2352 11.6468 91.4561 11.5102 91.597 11.237V9.96351C91.4509 9.69713 91.2318 9.56394 90.9396 9.56394C90.7076 9.56394 90.5263 9.65417 90.3957 9.83462C90.2651 10.0151 90.1998 10.2823 90.1998 10.6363ZM93.2047 9.21078L93.2202 9.56137C93.4333 9.29327 93.7117 9.15922 94.0554 9.15922C94.6449 9.15922 94.9422 9.49176 94.9474 10.1568V12H94.4705V10.1543C94.4687 9.9532 94.4223 9.80454 94.3313 9.7083C94.2419 9.61206 94.1018 9.56394 93.9111 9.56394C93.7564 9.56394 93.6206 9.60519 93.5038 9.68768C93.3869 9.77017 93.2958 9.87844 93.2305 10.0125V12H92.7536V9.21078H93.2047ZM95.6065 12.7476L95.3358 12.562C95.4974 12.3368 95.5816 12.1048 95.5884 11.866V11.4355H96.055V11.8092C96.055 11.9828 96.0121 12.1564 95.9261 12.33C95.8419 12.5035 95.7354 12.6427 95.6065 12.7476ZM100.24 10.6363C100.24 11.0625 100.142 11.4054 99.946 11.6649C99.75 11.9227 99.4871 12.0516 99.1571 12.0516C98.8048 12.0516 98.5324 11.927 98.34 11.6778L98.3168 12H97.8785V8.04044H98.3554V9.51754C98.5479 9.27866 98.8134 9.15922 99.152 9.15922C99.4905 9.15922 99.7561 9.28726 99.9485 9.54332C100.143 9.79939 100.24 10.15 100.24 10.5951V10.6363ZM99.7629 10.5822C99.7629 10.2574 99.7002 10.0065 99.5748 9.82946C99.4493 9.65245 99.2689 9.56394 99.0334 9.56394C98.7189 9.56394 98.4929 9.71002 98.3554 10.0022V11.2086C98.5015 11.5008 98.7292 11.6468 99.0386 11.6468C99.2671 11.6468 99.445 11.5583 99.5722 11.3813C99.6993 11.2043 99.7629 10.9379 99.7629 10.5822Z" fill="url(#paint0_linear)"/>
<path d="M104.271 8.74628L107.431 11.9067" stroke="#5E7285" stroke-width="0.5" stroke-linecap="round"/>
<path d="M107.431 8.74628L104.271 11.9067" stroke="#5E7285" stroke-width="0.5" stroke-linecap="round"/>
<path d="M119.811 8.18848V12.4982M121.965 10.3433H117.656" stroke="#F9FCFF" stroke-width="0.5" stroke-linecap="round"/>
<defs>
<linearGradient id="paint0_linear" x1="50" y1="11.5556" x2="101" y2="11.5556" gradientUnits="userSpaceOnUse">
<stop stop-color="#4A5364"/>
<stop offset="0.890625" stop-color="#4A5364"/>
<stop offset="1" stop-color="#4A5364" stop-opacity="0"/>
</linearGradient>
<clipPath id="clip0">
<rect width="6.92029" height="7" fill="white" transform="translate(39 7)"/>
</clipPath>
</defs>
</svg>
