<svg width="879" height="651" viewBox="0 0 879 651" fill="none" xmlns="http://www.w3.org/2000/svg">
<g opacity="0.3">
<mask id="mask0" mask-type="alpha" maskUnits="userSpaceOnUse" x="0" y="0" width="879" height="651">
<path d="M0 0H879V651H191L0 0Z" fill="url(#paint0_radial)"/>
</mask>
<g mask="url(#mask0)">
<path d="M0 98H997" stroke="#5E7285" stroke-linecap="round"/>
<path d="M0 190H997" stroke="#5E7285" stroke-linecap="round"/>
<path d="M0 283H997" stroke="#5E7285" stroke-linecap="round"/>
<path d="M0 467H997" stroke="#5E7285" stroke-linecap="round"/>
<path d="M0 650.5H897.5" stroke="#5E7285" stroke-linecap="round" stroke-dasharray="2 4"/>
<path d="M0 375H997" stroke="#5E7285" stroke-linecap="round"/>
<path d="M0 559H997" stroke="#5E7285" stroke-linecap="round"/>
<path d="M0 144H997" stroke="#5E7285" stroke-linecap="round" stroke-dasharray="2 4"/>
<path d="M0 236.5H897.5" stroke="#5E7285" stroke-linecap="round" stroke-dasharray="2 4"/>
<path d="M0 329H997" stroke="#5E7285" stroke-linecap="round" stroke-dasharray="2 4"/>
<path d="M0 513H997" stroke="#5E7285" stroke-linecap="round" stroke-dasharray="2 4"/>
<path d="M0 421H997" stroke="#5E7285" stroke-linecap="round" stroke-dasharray="2 4"/>
<path d="M0 605H997" stroke="#5E7285" stroke-linecap="round" stroke-dasharray="2 4"/>
<path d="M72 0.5V639.5" stroke="#5E7285" stroke-linecap="round" stroke-dasharray="2 4"/>
<path d="M210 0.5V639.5" stroke="#5E7285" stroke-linecap="round"/>
<path d="M302 0.5V639.5" stroke="#5E7285" stroke-linecap="round"/>
<path d="M394 0.5V639.5" stroke="#5E7285" stroke-linecap="round"/>
<path d="M486 0.5V639.5" stroke="#5E7285" stroke-linecap="round"/>
<path d="M578 0.5V639.5" stroke="#5E7285" stroke-linecap="round"/>
<path d="M670 0.5V639.5" stroke="#5E7285" stroke-linecap="round"/>
<path d="M762 0.5V639.5" stroke="#5E7285" stroke-linecap="round"/>
<path d="M854 0.5V639.5" stroke="#5E7285" stroke-linecap="round"/>
<path d="M118 0.5V639.5" stroke="#5E7285" stroke-linecap="round" stroke-dasharray="2 4"/>
<path d="M164 0.5V639.5" stroke="#5E7285" stroke-linecap="round" stroke-dasharray="2 4"/>
<path d="M256 0.5V639.5" stroke="#5E7285" stroke-linecap="round" stroke-dasharray="2 4"/>
<path d="M348 0.5V639.5" stroke="#5E7285" stroke-linecap="round" stroke-dasharray="2 4"/>
<path d="M440 0.5V639.5" stroke="#5E7285" stroke-linecap="round" stroke-dasharray="2 4"/>
<path d="M532 0.5V639.5" stroke="#5E7285" stroke-linecap="round" stroke-dasharray="2 4"/>
<path d="M624 0.5V639.5" stroke="#5E7285" stroke-linecap="round" stroke-dasharray="2 4"/>
<path d="M716 0.5V639.5" stroke="#5E7285" stroke-linecap="round" stroke-dasharray="2 4"/>
<path d="M808 0.5V639.5" stroke="#5E7285" stroke-linecap="round" stroke-dasharray="2 4"/>
</g>
</g>
<defs>
<radialGradient id="paint0_radial" cx="0" cy="0" r="1" gradientUnits="userSpaceOnUse" gradientTransform="translate(634 400.5) rotate(-170.004) scale(671.188 384.348)">
<stop stop-color="white"/>
<stop offset="1" stop-color="white" stop-opacity="0"/>
</radialGradient>
</defs>
</svg>
