<svg width="40" height="29" viewBox="0 0 40 29" fill="none" xmlns="http://www.w3.org/2000/svg">
<path d="M31.3911 29C27.9615 29 25.4768 27.783 23.937 25.3489C23.2371 24.3058 22.6772 23.0192 22.2572 21.4892C21.8373 19.9592 21.6273 18.3597 21.6273 16.6906C21.6273 13.0743 22.5372 9.80576 24.357 6.8849C26.2467 3.96403 29.0114 1.66907 32.6509 0L33.5958 1.8777C31.5661 2.71223 29.7813 3.9988 28.2415 5.73741C26.7717 7.47602 25.8968 9.2494 25.6168 11.0576C25.4068 11.8921 25.3018 12.6918 25.3018 13.4568C25.3018 14.1523 25.4068 14.813 25.6168 15.4388C27.1566 13.7698 29.1863 12.9353 31.706 12.9353C34.1557 12.9353 36.1505 13.6655 37.6903 15.1259C39.2301 16.5168 40 18.464 40 20.9676C40 23.3321 39.1951 25.2794 37.5853 26.8094C35.9755 28.2698 33.9108 29 31.3911 29ZM9.76378 29C6.33421 29 3.84952 27.783 2.30971 25.3489C1.6098 24.3058 1.04987 23.0192 0.629921 21.4892C0.209974 19.9592 0 18.3597 0 16.6906C0 13.0743 0.909886 9.80576 2.72966 6.8849C4.61942 3.96403 7.38408 1.66907 11.0236 0L11.9685 1.8777C9.93876 2.71223 8.15398 3.9988 6.61417 5.73741C5.14436 7.47602 4.26947 9.2494 3.9895 11.0576C3.77953 11.8921 3.67454 12.6918 3.67454 13.4568C3.67454 14.1523 3.77953 14.813 3.9895 15.4388C5.52931 13.7698 7.55905 12.9353 10.0787 12.9353C12.5284 12.9353 14.5232 13.6655 16.063 15.1259C17.6028 16.5168 18.3727 18.464 18.3727 20.9676C18.3727 23.3321 17.5678 25.2794 15.958 26.8094C14.3482 28.2698 12.2835 29 9.76378 29Z" fill="#FF5C1C"/>
</svg>
