<svg width="628" height="528" viewBox="0 0 628 528" fill="none" xmlns="http://www.w3.org/2000/svg">
<rect x="337.008" y="205.312" width="10.5315" height="10.5315" rx="5.26576" fill="#4A5364"/>
<rect x="339.114" y="207.418" width="6.31891" height="6.31891" rx="3.15946" fill="#FF4F14"/>
<rect x="289.616" y="301.148" width="10.5315" height="10.5315" rx="5.26576" fill="#4A5364"/>
<rect x="291.722" y="303.255" width="6.31891" height="6.31891" rx="3.15946" fill="#FF4F14"/>
<path d="M342.274 221.109V226.375C342.274 232.191 337.559 236.906 331.742 236.906H305.413C299.597 236.906 294.882 241.621 294.882 247.438V296.409" stroke="#4A5364" stroke-width="1.67451" stroke-linecap="round" stroke-dasharray="3.35 6.71"/>
<rect x="258.022" y="35.7543" width="127.431" height="146.388" fill="white"/>
<path d="M308.411 70.2662L297.433 81.2444C296.766 81.9111 296.392 82.8155 296.392 83.7584C296.392 85.7219 297.984 87.3137 299.947 87.3137H341.44C343.404 87.3137 344.996 85.7219 344.996 83.7584C344.996 82.8155 344.621 81.9111 343.954 81.2444L341.225 78.5147C339.142 76.4321 335.765 76.4321 333.683 78.5147C331.6 80.5974 328.223 80.5974 326.141 78.5147L317.892 70.2662C315.274 67.6482 311.029 67.6482 308.411 70.2662Z" stroke="#4A5364" stroke-width="3.35198"/>
<circle cx="329.911" cy="66.3637" r="5.02797" fill="#FFCC00" stroke="#FF7F2A" stroke-width="3.35198"/>
<circle cx="371.811" cy="131.728" r="5.02797" fill="#4A5364"/>
<rect x="266.224" y="156.867" width="110.615" height="13.4079" rx="1.67599" fill="#FF4F14"/>
<path d="M267.9 128.376H319.855" stroke="#4A5364" stroke-width="3.35198" stroke-linecap="round"/>
<path d="M267.9 138.431H304.771" stroke="#4A5364" stroke-width="3.35198" stroke-linecap="round"/>
<path d="M202.536 36.1957H407.007" stroke="#4A5364" stroke-width="1.67599" stroke-linecap="round" stroke-dasharray="3.35 6.7"/>
<path d="M242.76 116.643H413.711" stroke="#4A5364" stroke-width="1.67599" stroke-linecap="round" stroke-dasharray="3.35 6.7"/>
<path d="M236.056 182.007H440.527" stroke="#4A5364" stroke-width="1.67599" stroke-linecap="round" stroke-dasharray="3.35 6.7"/>
<path d="M385.219 1L385.219 205.471" stroke="#4A5364" stroke-width="1.67599" stroke-linecap="round" stroke-dasharray="3.35 6.7"/>
<path d="M257.844 22.788L257.844 227.259" stroke="#4A5364" stroke-width="1.67599" stroke-linecap="round" stroke-dasharray="3.35 6.7"/>
<rect x="170.489" y="361.208" width="144.135" height="145.811" fill="white" stroke="#4A5364" stroke-width="1.67599" stroke-linecap="round" stroke-dasharray="3.35 6.7"/>
<path d="M205.685 388.024H217.417" stroke="#FFCC00" stroke-width="3.35198" stroke-linecap="round"/>
<path d="M224.121 411.488H260.993" stroke="#4A5364" stroke-width="3.35198" stroke-linecap="round"/>
<path d="M205.685 423.22H242.557" stroke="#4A5364" stroke-width="3.35198" stroke-linecap="round"/>
<path d="M205.685 411.488H217.417" stroke="#4A5364" stroke-width="3.35198" stroke-linecap="round"/>
<path d="M205.685 399.756H250.937" stroke="#4A5364" stroke-width="3.35198" stroke-linecap="round"/>
<path d="M205.685 471.824H217.417" stroke="#4A5364" stroke-width="3.35198" stroke-linecap="round"/>
<path d="M224.121 460.091H260.993" stroke="#FF4F14" stroke-width="3.35198" stroke-linecap="round"/>
<path d="M205.685 483.555H242.557" stroke="#FF7F2A" stroke-width="3.35198" stroke-linecap="round"/>
<path d="M205.685 460.091H217.417" stroke="#FF4F14" stroke-width="3.35198" stroke-linecap="round"/>
<path d="M205.685 448.359H250.937" stroke="#4A5364" stroke-width="3.35198" stroke-linecap="round"/>
<path d="M190.601 382.996L195.629 388.024L190.601 393.052" stroke="#4A5364" stroke-width="3.35198" stroke-linecap="round" stroke-linejoin="round"/>
<path d="M239.51 176C225.368 170.761 223.928 164.085 211.119 155.98L205.974 187.835C214.745 190.964 218.532 195.765 227.771 197.146L239.51 176Z" fill="#262A31"/>
<path d="M205.974 187.835C214.745 190.964 218.532 195.765 227.771 197.146C214.15 191.761 226.007 171.967 214.632 159.376L205.974 187.835Z" fill="#211E1E"/>
<path d="M240.97 176.596C241.397 175.835 241.126 174.872 240.365 174.445C239.604 174.018 238.642 174.289 238.215 175.05L240.97 176.596ZM226.103 196.64C225.676 197.401 225.947 198.364 226.708 198.79C227.469 199.217 228.432 198.946 228.859 198.186L226.103 196.64ZM238.215 175.05L226.103 196.64L228.859 198.186L240.97 176.596L238.215 175.05Z" fill="#FF4F14"/>
<path fill-rule="evenodd" clip-rule="evenodd" d="M329.244 153.237L332.766 149.056C333.198 148.542 333.283 147.82 332.98 147.22L329.538 140.411C329.466 140.269 329.423 140.107 329.38 139.945C329.31 139.679 329.24 139.415 329.044 139.243C328.429 138.7 326.11 138.474 317.634 142.3C309.302 146.06 298.08 158.156 298.08 158.156L298.08 158.156L264.467 182.689C250.99 181.581 245.326 179.799 233.034 174.266L218.54 192.742C218.54 192.742 253.1 208.781 272.956 197.387C292.813 185.994 304.164 171.064 304.164 171.064L304.164 171.064C307.913 166.783 308.582 166.996 310.431 167.586C311.617 167.964 313.289 168.497 316.571 168.099C316.75 168.077 316.922 168.056 317.087 168.036C319.918 167.697 320.988 167.568 324.629 165.92C326.802 164.936 327.106 163.324 327.39 161.82C327.457 161.463 327.524 161.113 327.613 160.779C328.698 156.73 327.654 155.697 326.468 154.524C325.626 153.692 324.713 152.789 324.439 150.687C325.562 144.892 329.244 153.237 329.244 153.237Z" fill="#FEC37F"/>
<path d="M271 194C257.522 192.892 254.792 199.533 242.5 194C230.208 188.467 218.54 192.742 218.54 192.742C218.54 192.742 253.1 208.781 272.956 197.387C292.813 185.994 304.164 171.064 304.164 171.064C304.164 171.064 293.998 175.994 288 180C280.848 184.777 284.478 195.108 271 194Z" fill="#EDB16C"/>
<path d="M243.912 335.656L264.637 330.639C264.637 330.639 284.111 332.857 297.514 339.448C300.793 341.06 297.678 347.043 297.678 347.043L247.182 351.509L243.912 335.656Z" fill="#FF4F14"/>
<path d="M246.964 350.569L298.218 346.684" stroke="black" stroke-width="1.67599" stroke-linecap="round"/>
<path d="M285.626 334.501C283.16 333.84 280.655 334.804 279.814 336.467" stroke="black" stroke-width="1.67599" stroke-linecap="round"/>
<path d="M279.873 332.959C277.407 332.298 276.545 333.702 275.704 335.366" stroke="black" stroke-width="1.67599" stroke-linecap="round"/>
<path d="M274.941 331.638C272.475 330.977 271.814 333.443 271.374 335.087" stroke="black" stroke-width="1.67599" stroke-linecap="round"/>
<path d="M271.693 368.922L292.418 363.904C292.418 363.904 311.892 366.123 325.295 372.713C328.574 374.326 325.459 380.308 325.459 380.308L274.963 384.774L271.693 368.922Z" fill="#FF4F14"/>
<path d="M271.693 368.922L284.5 369.5C291.5 373.5 286 376 296 380.308C299.356 381.754 325.459 380.308 325.459 380.308L274.963 384.774L271.693 368.922Z" fill="#EE4A14"/>
<path d="M274.745 383.834L325.999 379.949" stroke="black" stroke-width="1.67599" stroke-linecap="round"/>
<path d="M313.406 367.766C310.941 367.105 308.435 368.069 307.594 369.732" stroke="black" stroke-width="1.67599" stroke-linecap="round"/>
<path d="M307.654 366.224C305.188 365.563 304.326 366.967 303.485 368.631" stroke="black" stroke-width="1.67599" stroke-linecap="round"/>
<path d="M302.722 364.903C300.256 364.242 299.595 366.708 299.155 368.352" stroke="black" stroke-width="1.67599" stroke-linecap="round"/>
<path d="M147.822 303.903C121.674 289.413 127.4 234.128 127.4 234.128L184.411 228.171L186.964 263.059C186.964 263.059 231.774 242.609 248.505 245.314C289.641 251.966 269.656 327.354 269.656 327.354H243.377V284.411C243.377 284.411 173.599 318.187 147.822 303.903Z" fill="#3D4656"/>
<path d="M147.822 303.903C121.674 289.413 127.4 234.127 127.4 234.127L152.544 259.298L147.822 284.411C147.822 284.411 167.97 278.154 180.104 281.731C187.847 284.013 190.206 290.081 198.05 291.986C215.786 296.294 232.588 261.456 247.403 272.117C258.997 280.461 242.786 294.491 247.403 308.009C250.061 315.793 255.735 327.354 255.735 327.354L243.377 327.354V284.411C243.377 284.411 173.599 318.187 147.822 303.903Z" fill="#323A49"/>
<path d="M135.375 301.001C113.869 280.238 133.708 228.318 133.708 228.318L190.319 237.32L183.755 271.68C183.755 271.68 210.213 275.968 225.673 282.912C263.686 299.984 298.042 361.325 298.042 361.325L270.725 377.791L217.525 313.323C217.525 313.323 156.577 321.47 135.375 301.001Z" fill="#4A5364"/>
<path d="M135.375 301.001C113.868 280.238 133.708 228.318 133.708 228.318L190.319 237.32L142.75 276.72C142.75 276.72 129.853 287.082 145.313 294.025C154.302 298.062 164.218 282.662 176.078 290.179C189.012 298.377 183.192 300.854 190.319 303.639C200.389 307.574 185.249 281.21 217.525 298.511C237.837 309.4 248.673 351.069 284.383 369.558L270.725 377.791L217.525 313.323C217.525 313.323 156.577 321.47 135.375 301.001Z" fill="#3D4656"/>
<path d="M204.719 153.665C207.322 143.951 207.839 140.143 214.998 134.73L202.221 120.896C195.033 129.966 193.027 135.783 187.461 140.365C193.132 151.118 193.21 153.511 204.719 153.665Z" fill="#FEC37F"/>
<path d="M214.998 134.73L202.221 120.896C201.43 121.895 200.701 122.854 200.023 123.777C200.023 123.777 203.391 135.958 208.623 139.095C210.053 139.952 211.229 138.058 211.229 138.058C212.238 136.973 213.466 135.888 214.998 134.73Z" fill="#EDB16C"/>
<path d="M205.599 130.399C205.599 130.399 228.076 149.855 233.902 143.603C238.956 138.179 240.474 137.143 242.619 128.481C243.3 125.734 248.314 125.659 248.618 122.727C242.757 106.566 245.129 88.5464 245.129 88.5464C245.129 88.5464 211.949 88.3749 204.946 103.599C200.57 113.11 205.599 130.399 205.599 130.399Z" fill="#FEC37F"/>
<path d="M252.15 72.253C247.771 65.2341 240.125 62.4023 232.358 65.0686C211.543 72.2142 200.658 63.868 188.835 77.0428C181.395 85.3334 180.206 96.514 183.171 102.725C187.184 111.133 195.879 131.316 197.133 134.065C198.964 133.85 199.198 132.938 199.322 131.023L201.116 136C212.788 134.808 210.695 130.81 211.341 120.636C205.558 117.857 203.686 99.5165 216.293 107.495C220.459 110.131 218.076 124.342 221.908 121.242C225.239 118.548 222.071 114.622 222.076 110.274C222.076 110.274 235.422 115.568 242.662 105.646C248.335 97.8722 257.256 80.4383 252.15 72.253Z" fill="black"/>
<path d="M186.19 74.6037C187.46 77.7539 202.7 102.958 202.7 102.958L207.78 100.857C207.78 100.857 200.16 67.2526 195.08 66.2025C190 65.1524 184.92 71.4535 186.19 74.6037Z" fill="#FF4000"/>
<circle cx="210.294" cy="108.824" r="10.8939" fill="#FF7F2A"/>
<circle cx="209.456" cy="107.986" r="10.0559" fill="#FF4F14"/>
<path d="M199.019 255.711C184.97 243.323 191.799 220.486 210.397 190.756C228.996 161.025 205.963 152.262 205.963 152.262C196.408 152.305 191.292 142.259 190.503 136.842C182.527 138.55 170.191 132.659 162.253 140.55C146.91 155.804 136.238 194.85 122.817 245.635C127.466 259.104 140.452 265.183 157.191 268.009C173.874 270.826 213.069 268.1 199.019 255.711Z" fill="#262A31"/>
<path d="M190.73 136.284C193.134 145.881 196.172 149.673 206.527 151.795" stroke="#FF4F14" stroke-width="3.35198" stroke-linecap="round"/>
<path d="M122.818 245.636C127.466 259.104 140.452 265.183 157.191 268.009C132.913 242.931 133.46 215.829 137.925 203.354C142.39 190.879 149.853 184.542 162.351 181.193C174.849 177.845 187.212 160.651 179.203 143.711C176.325 137.624 170.192 132.659 162.254 140.551C146.91 155.804 136.238 194.85 122.818 245.636Z" fill="#211E1E"/>
<path d="M113.894 191.56C124.859 183.645 130.321 181.319 143.26 177.537L142.272 154.076C142.272 154.076 105.58 164.341 97.8905 185.903C90.2007 207.466 91.2729 226.19 91.2729 226.19L104.285 232.049L113.894 191.56Z" fill="#FEC37F"/>
<path d="M113.894 191.56C124.859 183.645 130.321 181.319 143.26 177.538C143.26 177.538 134.407 176.204 129 177.537C121.226 179.455 117.031 182.771 112 189C105.931 196.514 105.632 202.935 104.285 212.5C103.221 220.06 104.285 232.049 104.285 232.049L113.894 191.56Z" fill="#EDB16C"/>
<path d="M95.541 179.645C95.541 179.645 96.5186 177.179 98.7593 173.78C100.204 171.588 103.653 169.169 103.653 169.169" stroke="#B5BFD2" stroke-width="1.67599" stroke-linecap="round"/>
<path d="M93.7973 174.132C94.637 171.23 99.4716 167.064 101.044 166.478" stroke="#B5BFD2" stroke-width="1.67599" stroke-linecap="round"/>
<path d="M79.3156 222.838L110.062 271.658C110.422 272.229 110.404 272.96 110.017 273.512L89.5691 302.734C88.8924 303.701 87.4548 303.684 86.8008 302.702L57.7921 259.126C57.4478 258.609 57.4179 257.944 57.7143 257.398L76.4245 222.932C77.0357 221.806 78.6329 221.754 79.3156 222.838Z" fill="black"/>
<ellipse rx="4.18998" ry="5.86597" transform="matrix(-0.965926 0.258819 0.258819 0.965926 79.8673 262.223)" fill="white"/>
<path d="M104.176 231.955C104.176 231.955 113.862 251.057 106.382 256.311C100.79 260.239 99.3136 255.464 99.6784 252.839C93.1818 259.16 84.3309 268.644 81.2426 262.176C80.4641 260.546 77.6975 245.976 78.95 243.304C80.7462 239.473 81.4587 238.81 83.6595 236.412C89.3809 230.181 91.0512 235.437 91.1631 226.097L104.176 231.955Z" fill="#FEC37F"/>
<path d="M127.181 156.782C135.434 151.968 152.086 139.767 164.882 137.214C189 132.402 176.61 147.311 172.922 161.072C169.235 174.832 136.056 181.299 136.056 181.299L127.181 156.782Z" fill="#262A31"/>
<path d="M128.39 156.329C128.094 155.508 127.188 155.084 126.368 155.381C125.547 155.677 125.123 156.583 125.419 157.403L128.39 156.329ZM134.371 182.153C134.668 182.973 135.574 183.398 136.394 183.101C137.214 182.804 137.639 181.898 137.342 181.078L134.371 182.153ZM125.419 157.403L134.371 182.153L137.342 181.078L128.39 156.329L125.419 157.403Z" fill="#FF4F14"/>
<path fill-rule="evenodd" clip-rule="evenodd" d="M309.177 129.773C308.11 130.662 307.966 132.247 308.855 133.314L335.155 164.969L338.507 161.617L312.718 130.095C311.829 129.029 310.244 128.885 309.177 129.773Z" fill="black"/>
<path d="M335.155 164.969L338.507 161.617L340.183 166.645L335.155 164.969Z" fill="#4A5364"/>
<path d="M330.283 458.056L343.227 443.327L330.015 429.037L317.774 446.393L330.283 458.056Z" fill="#FEC37F"/>
<path d="M330.283 458.056L343.227 443.327L337.741 437.144L325.5 454.5L330.283 458.056Z" fill="#EDB16C"/>
<path d="M325.861 467.273L336.619 455.18L329.5 448.5L320.5 446.5L320 445C320 445 323.639 444.339 323.52 442.701C323.429 441.442 321.179 440.471 321.179 440.471C321.179 440.471 303.205 432.656 288.302 431.662C284.656 431.419 284.363 438.158 284.363 438.158L325.861 467.273Z" fill="#4B80E4"/>
<path d="M325.861 467.273L336.619 455.179L329.607 448.5C329.607 458.5 314 455.18 325.861 467.273Z" fill="#3768C7"/>
<path d="M326.52 466.568L284.075 437.577" stroke="black" stroke-width="1.67599" stroke-linecap="round"/>
<path d="M437.217 502.888L441.063 483.66L422.475 477.892L420.552 499.043L437.217 502.888Z" fill="#FEC37F"/>
<path d="M437.217 502.888L441.063 483.66L430.923 479.349L429 500.5L437.217 502.888Z" fill="#EDB16C"/>
<path d="M437.894 515.506L441.164 499.654L430.801 497.145L423.029 499.654L421 499C421 499 424.109 496.525 423.029 495.263C422.353 494.472 420.439 494.636 420.439 494.636C420.439 494.636 400.965 496.855 387.562 503.445C384.283 505.058 387.398 511.041 387.398 511.041L437.894 515.506Z" fill="#4B80E4"/>
<path d="M437.894 515.506L441.164 499.654L430.801 497.145L428.5 498C425 507 431.725 509.191 425 514.366L437.894 515.506Z" fill="#3F72D5"/>
<path d="M438.112 514.567L386.858 510.681" stroke="black" stroke-width="1.67599" stroke-linecap="round"/>
<path d="M481.791 371.749C503.298 350.985 483.458 299.065 483.458 299.065L439.243 310.612L433.412 342.427C433.412 342.427 406.953 346.716 391.493 353.659C353.48 370.731 319.125 432.073 319.125 432.073L346.441 448.539L398.664 388.127C398.664 388.127 460.589 392.218 481.791 371.749Z" fill="#292424"/>
<path d="M481.792 371.749C503.299 350.985 483.459 299.066 483.459 299.066C483.459 299.066 474.083 363.822 442.248 375.95C423.289 383.173 404.049 359.078 390.332 374.027C383.638 381.323 386.759 389.441 381.359 397.742C373.897 409.213 361.577 408.499 354.44 420.175C348.437 429.994 346.442 448.539 346.442 448.539L398.664 388.128C398.664 388.128 460.59 392.218 481.792 371.749Z" fill="#211C1C"/>
<path d="M493.063 365.725C508.463 340.102 475.861 295.087 475.861 295.087L435.831 320.109L438.743 349.924L423.879 405.395C414.553 440.201 419.336 484.258 419.336 484.258L444.429 490.981L457.857 421.439C457.857 421.439 477.881 390.984 493.063 365.725Z" fill="#353434"/>
<path d="M493.063 365.725C508.463 340.103 475.862 295.087 475.862 295.087C475.862 295.087 489.873 362.21 463.399 386.846C456.386 393.372 448.296 392.397 442.889 400.306C434.406 412.713 449.678 424.678 444.43 438.762C441.015 447.924 432.919 449.919 430.07 459.272C426.839 469.884 431.883 487.619 431.883 487.619L444.43 490.981L457.858 421.439C457.858 421.439 477.882 390.984 493.063 365.725Z" fill="#292424"/>
<path d="M449.418 240.501C446.815 230.788 446.298 226.979 439.139 221.567L451.916 207.732C459.104 216.803 461.11 222.62 466.675 227.202C461.005 237.955 460.927 240.348 449.418 240.501Z" fill="#FEC37F"/>
<path d="M439.139 221.567L451.916 207.732C452.707 208.731 453.436 209.691 454.114 210.614C454.114 210.614 450.746 222.794 445.514 225.931C444.084 226.788 442.908 224.894 442.908 224.894C441.899 223.81 440.671 222.725 439.139 221.567Z" fill="#EDB16C"/>
<path d="M448.538 217.236C448.538 217.236 434.344 232.118 425.798 232.118C422.446 232.118 413.146 222.162 411 213.5C408.676 204.12 411.942 190.207 409.008 175.383C409.008 175.383 442.189 175.212 449.192 190.436C453.567 199.947 448.538 217.236 448.538 217.236Z" fill="#EDB16C"/>
<path d="M448.538 217.236C448.538 217.236 434.546 232 426 232C422.648 232 422.212 224.898 420.066 216.236C419.386 213.489 413.667 214.776 413.362 211.844C419.224 195.684 415.008 174.383 415.008 174.383C415.008 174.383 442.189 175.212 449.192 190.436C453.567 199.947 448.538 217.236 448.538 217.236Z" fill="#FEC37F"/>
<path d="M406.366 180.536C407.905 198.851 439.047 197.296 439.047 197.296C439.047 197.296 447.756 191.999 450 195.5C453 205.5 445.21 207 445.21 207C449.091 212.878 453.614 219.224 454.969 219.084C459.159 218.653 464.544 202.408 467.697 191.895C470.211 183.514 469.959 174.903 464.187 167.592C464.057 167.427 464.44 166.871 465.493 166.345C464.966 165.292 463.368 166.25 463.386 165.818C463.417 165.105 464.44 163.712 463.386 163.185C463.386 164.238 462.167 165.299 461.807 164.947C444.033 147.545 404.117 153.782 406.366 180.536Z" fill="black"/>
<path d="M395.903 278.205C407.605 271.428 411.959 267.391 420.694 257.124L441.707 267.605C441.707 267.605 417.356 296.908 394.533 295.124C350.549 291.685 337.538 250.971 395.903 278.205Z" fill="#F5B264"/>
<path d="M416 287.5C420 284.5 420.5 280.5 424 275.5C427.5 270.5 441.707 267.605 441.707 267.605C441.707 267.605 417.356 296.908 394.533 295.123C401.5 288.5 410.743 291.442 416 287.5Z" fill="#E8A961"/>
<path d="M414.31 260.931C427.158 253.033 428.446 240.373 440.12 234.632L449.51 265.995C441.518 270.775 438.742 276.223 429.949 279.38L414.31 260.931Z" fill="#FFCC00"/>
<path d="M449.511 265.994C441.519 270.774 438.742 276.222 429.95 279.379C430.826 273.18 421.608 258.096 439.13 238.247L449.511 265.994Z" fill="#EDBE05"/>
<path d="M418.083 333.571C427.519 318.749 430.831 303.153 431.069 267.974C431.307 232.796 445.315 231.941 445.315 231.941C454.533 234.455 462.074 226.075 464.239 221.047C471.501 224.761 484.941 222.264 490.566 231.941C501.439 250.645 501.642 291.123 501.46 343.652C493.484 355.458 479.368 357.969 462.468 356.366C445.624 354.769 408.646 348.394 418.083 333.571Z" fill="#FFCC00"/>
<path d="M501.46 343.652C493.484 355.458 479.368 357.969 462.468 356.366C492.409 338.426 498.895 312.107 497.811 298.901C496.727 285.696 489.486 290.778 469.374 281.56C449.262 272.343 473.918 280.086 475.498 236.906C475.744 230.178 484.941 222.264 490.566 231.941C501.439 250.645 501.642 291.123 501.46 343.652Z" fill="#EDBE05"/>
<path d="M450.938 314.242L403.172 319.27L347.026 301.672L393.116 295.806L450.938 314.242Z" fill="#9EABC4"/>
<path d="M450.938 315.918V314.242L403.172 319.27V320.946L450.938 315.918Z" fill="#8999B6"/>
<path d="M403.172 320.946V319.27L347.864 301.672V303.348L403.172 320.946Z" fill="#7D90B3"/>
<path d="M403.037 317.69L400.397 270.228C400.358 269.527 399.887 268.925 399.216 268.719L345.207 252.121C344.072 251.772 342.945 252.681 343.045 253.864L347.051 301.389C347.109 302.067 347.57 302.643 348.219 302.847L400.862 319.382C401.979 319.733 403.102 318.859 403.037 317.69Z" fill="#B5BFD2"/>
<ellipse rx="4.18998" ry="5.86597" transform="matrix(-0.965926 0.258819 0.258819 0.965926 368.277 284.96)" fill="#4A5364"/>
<path opacity="0.1" d="M458.978 304.368C467.702 294.036 470.436 288.765 475.187 276.151L498.507 278.916C498.507 278.916 484.201 309.029 462.117 315.061C454.531 317.133 430.711 307.37 458.978 304.368Z" fill="#464335"/>
<path d="M457.198 295.36C465.922 285.028 468.656 279.757 473.408 267.143L496.727 269.908C496.727 269.908 483.709 305.715 461.625 311.747C439.541 317.779 416.58 307.538 416.58 307.538L416.58 291.616C416.58 291.616 428.925 294.636 437 295.36C444.856 296.065 457.198 295.36 457.198 295.36Z" fill="#F7BC77"/>
<path d="M454.5 307.538C463 303.329 470.248 307.115 475 294.5C479.752 281.885 496.727 269.907 496.727 269.907C496.727 269.907 483.708 305.714 461.625 311.747C439.541 317.779 416.58 307.538 416.58 307.538C416.58 307.538 416.58 307.538 416.58 304.5C419.305 304.5 430.753 307.539 433.5 307.538C440.963 307.535 446 311.747 454.5 307.538Z" fill="#EDB16C"/>
<path d="M416.58 307.538L416.58 291.616C412.38 290.29 405.846 284.792 402.334 287.426C398.982 289.94 405.686 293.292 396.468 291.216C389.764 288.264 386.329 298.146 391.44 304.186C402.976 311.341 403.172 310.052 416.58 307.538Z" fill="#F6BC77"/>
<path d="M391.44 304.186C402.976 311.341 403.172 310.052 416.58 307.538C416.58 306.5 416.793 305.65 416.5 304.5C411 307 405.76 307.122 403 306.5C395.5 303.5 394.5 303 391.44 304.186Z" fill="#EDB16C"/>
<path d="M496 287.5C501.028 281.634 514.625 237.06 488.891 228.037C475.92 223.49 474.949 234.755 474.949 249.001C474.949 263.248 465 275 465 275L496 287.5Z" fill="#FFCC00"/>
<path d="M464.589 221.047C459.784 229.694 455.868 232.571 445.315 231.941" stroke="#FF7F2A" stroke-width="3.35198" stroke-linecap="round"/>
<path d="M377.259 356.656C377.259 356.656 378.935 354.599 382.097 352.034C384.136 350.38 388.153 349.114 388.153 349.114" stroke="#B5BFD2" stroke-width="1.67599" stroke-linecap="round"/>
<path d="M377.259 350.873C378.935 348.36 384.801 345.846 386.478 345.762" stroke="#B5BFD2" stroke-width="1.67599" stroke-linecap="round"/>
<path d="M502.121 353.388C501.048 365.535 498.741 372.011 490.389 382.718" stroke="#B5BFD2" stroke-width="1.67599" stroke-linecap="round"/>
<path d="M503.01 371.221C503.168 370.786 503.649 370.562 504.084 370.721C504.519 370.879 504.743 371.36 504.584 371.795L503.01 371.221ZM485.378 397.471C485.009 397.749 484.484 397.676 484.205 397.307C483.926 396.937 483.999 396.412 484.369 396.133L485.378 397.471ZM499.582 382.763C499.344 383.16 498.829 383.289 498.433 383.05C498.036 382.812 497.907 382.297 498.146 381.901L499.582 382.763ZM492.714 388.939C493.036 388.606 493.566 388.597 493.899 388.919C494.232 389.24 494.241 389.771 493.92 390.103L492.714 388.939ZM504.584 371.795C503.017 376.09 501.476 379.61 499.582 382.763L498.146 381.901C499.962 378.875 501.461 375.465 503.01 371.221L504.584 371.795ZM493.92 390.103C491.608 392.495 488.834 394.863 485.378 397.471L484.369 396.133C487.782 393.557 490.483 391.247 492.714 388.939L493.92 390.103Z" fill="#B5BFD2"/>
<path d="M495.417 342.494C486.206 339.954 499.047 336.675 502.391 329.924C506.393 321.844 431.729 324.058 445.408 346.885C460.213 371.594 531.552 357.611 523.071 342.494C517.093 331.838 511.339 346.885 495.417 342.494Z" fill="#D18858"/>
<ellipse rx="11.7319" ry="3.35198" transform="matrix(-1 0 0 1 473.629 331.6)" fill="#E6E9EE"/>
<ellipse rx="10.0559" ry="3.35198" transform="matrix(-1 0 0 1 473.629 334.951)" fill="#232C3D"/>
<path d="M483.372 335.852C483.372 335.852 485.042 334.654 486.097 335.021C488.207 335.757 486.326 339.828 484.735 341.669C483.871 342.668 482.009 343.331 482.009 343.331" stroke="#B5BFD2" stroke-width="1.67599"/>
<path d="M483.067 341.919L485.361 331.599C484.616 334.951 462.642 334.951 461.897 331.599L464.19 341.919C464.881 345.031 466.763 347.538 469.94 347.798C472.251 347.988 475.007 347.988 477.318 347.798C480.495 347.538 482.376 345.031 483.067 341.919Z" fill="white"/>
</svg>
