<svg width="144" height="137" viewBox="0 0 144 137" fill="none" xmlns="http://www.w3.org/2000/svg">
<path d="M64.1716 42.3284L57.6213 48.8787C57.2235 49.2765 57 49.8161 57 50.3787C57 51.5503 57.9497 52.5 59.1213 52.5H83.8787C85.0503 52.5 86 51.5503 86 50.3787C86 49.8161 85.7765 49.2765 85.3787 48.8787L83.75 47.25C82.5074 46.0074 80.4926 46.0074 79.25 47.25C78.0074 48.4926 75.9926 48.4926 74.75 47.25L69.8284 42.3284C68.2663 40.7663 65.7337 40.7663 64.1716 42.3284Z" fill="#464E57" stroke="#464E57" stroke-width="2"/>
<circle cx="77" cy="40" r="3" fill="#FFCC00" stroke="#FF7F2A" stroke-width="2"/>
<circle cx="102" cy="79" r="2.5" fill="#464E57" stroke="#464E57"/>
<rect x="39" y="94" width="66" height="8" rx="1" fill="#FF4F14"/>
<path d="M40 77H71" stroke="#464E57" stroke-width="2" stroke-linecap="round"/>
<path d="M40 83H62" stroke="#464E57" stroke-width="2" stroke-linecap="round"/>
<path d="M1 22H123" stroke="#C0CFDE" stroke-linecap="round" stroke-dasharray="2 4"/>
<path d="M25 70H127" stroke="#C0CFDE" stroke-linecap="round" stroke-dasharray="2 4"/>
<path d="M21 109H143" stroke="#C0CFDE" stroke-linecap="round" stroke-dasharray="2 4"/>
<path d="M110 1L110 123" stroke="#C0CFDE" stroke-linecap="round" stroke-dasharray="2 4"/>
<path d="M34 14L34 136" stroke="#C0CFDE" stroke-linecap="round" stroke-dasharray="2 4"/>
</svg>
