<svg width="422" height="205" viewBox="0 0 422 205" fill="none" xmlns="http://www.w3.org/2000/svg">
<circle cx="81.4131" cy="69.5566" r="8.02252" fill="#224DE5"/>
<path d="M81.0645 69.5565L101.644 52.465L117.689 68.8589L128.502 47.9305" stroke="#224DE5" stroke-width="4.3125"/>
<circle cx="101.296" cy="52.465" r="6.27849" fill="#224DE5"/>
<circle cx="128.153" cy="47.9307" r="4.53447" fill="#224DE5"/>
<circle cx="112.806" cy="36.7688" r="3.13925" fill="#224DE5"/>
<circle cx="101.993" cy="86.6479" r="4.88327" fill="#224DE5"/>
<circle cx="117.689" cy="68.8588" r="5.23208" fill="#224DE5"/>
<path d="M160.105 51.078C157.433 51.078 155.119 52.2748 153.882 54.1496V51.5567H148.058V72.1802H153.882V59.854L153.922 59.9736C153.922 57.7398 155.797 55.9846 158.23 55.9846C160.544 55.9846 162.14 57.7398 162.14 60.2928V72.1802H167.764V59.0562C167.764 54.389 164.573 51.078 160.105 51.078ZM180.819 67.513C178.385 67.513 176.59 65.9971 175.912 63.7633H190.791C190.791 55.9846 187.002 51.078 180.539 51.078C174.516 51.078 169.929 55.5857 169.929 61.8086C169.929 68.1512 174.715 72.6589 180.859 72.6589C183.89 72.6589 187.441 71.3824 189.275 69.4676L185.566 65.678C184.449 66.7551 182.454 67.513 180.819 67.513ZM180.779 56.2239C183.132 56.2239 184.648 57.5403 185.207 59.5747H175.992C176.75 57.5004 178.585 56.2239 180.779 56.2239ZM206.818 51.5567V63.8829L206.778 63.7633C206.778 65.9971 204.904 67.7523 202.47 67.7523C200.157 67.7523 198.561 65.9971 198.561 63.4441V51.5567H192.936V64.6807C192.936 69.3479 196.128 72.6589 200.595 72.6589C203.268 72.6589 205.582 71.4621 206.818 69.5873V72.1802H212.642V51.5567H206.818ZM221.867 55.3862V51.5567H216.043V72.1802H221.867V62.3272C221.867 58.4578 224.62 55.9846 228.928 55.9846V51.078C225.777 51.078 223.224 52.7136 221.867 55.3862ZM239.907 51.078C237.035 51.078 234.203 51.8759 231.291 53.3518L233.245 57.2212C234.881 56.3835 236.676 55.7452 238.591 55.7452C241.981 55.7452 243.338 57.66 243.338 59.854V60.2529C241.582 59.5747 239.747 59.2157 238.072 59.2157C233.285 59.2157 229.496 62.0081 229.496 66.0769C229.496 70.0261 232.886 72.6589 237.274 72.6589C239.508 72.6589 241.862 71.7813 243.338 70.1059V72.1802H248.962V59.854C248.962 54.4687 245.292 51.078 239.907 51.078ZM238.591 68.6299C236.596 68.6299 235.12 67.5928 235.12 65.9173C235.12 64.2419 236.796 63.0053 238.91 63.0053C240.505 63.0053 242.021 63.2846 243.338 63.7633V65.678C242.939 67.5928 240.824 68.6299 238.591 68.6299ZM265 51.078C262.128 51.078 259.735 52.3146 258.099 54.4289V44.2966H252.275V72.1802H258.099V69.2682C259.735 71.4223 262.128 72.6589 265 72.6589C270.505 72.6589 274.494 68.1911 274.494 61.8485C274.494 55.5458 270.505 51.078 265 51.078ZM263.325 67.7523C260.493 67.7523 258.418 65.678 258.099 62.6463V61.0507C258.418 58.0589 260.493 55.9846 263.325 55.9846C266.556 55.9846 268.83 58.4179 268.83 61.8485C268.83 65.319 266.556 67.7523 263.325 67.7523ZM287.146 72.6589C293.249 72.6589 298.355 67.7124 298.355 61.8485C298.355 55.9846 293.249 51.078 287.146 51.078C281.003 51.078 275.857 55.9846 275.857 61.8485C275.857 67.7124 281.003 72.6589 287.146 72.6589ZM287.146 67.7523C284.034 67.7523 281.442 65.0398 281.442 61.8485C281.442 58.6573 284.034 55.9846 287.146 55.9846C290.217 55.9846 292.81 58.6573 292.81 61.8485C292.81 65.0398 290.217 67.7523 287.146 67.7523ZM311.551 67.0742C311.152 67.4731 310.354 67.7523 309.556 67.7523C308.479 67.7523 307.601 66.7949 307.601 65.4387V56.2638H312.069V51.5567H307.601V45.8923H302.017V51.5567H299.184V56.2638H302.017V66.3561C302.017 70.066 304.57 72.6589 308.2 72.6589C309.875 72.6589 311.75 71.9408 312.947 70.8638L311.551 67.0742Z" fill="#224DE5"/>
<path d="M1 12H364" stroke="#224DE5" stroke-linecap="round" stroke-dasharray="2 4"/>
<path d="M12 114H376" stroke="#224DE5" stroke-linecap="round" stroke-dasharray="2 4"/>
<path d="M350 1L350 123" stroke="#224DE5" stroke-linecap="round" stroke-dasharray="2 4"/>
<path d="M34 4L34 126" stroke="#224DE5" stroke-linecap="round" stroke-dasharray="2 4"/>
<ellipse cx="354.5" cy="137" rx="66.5" ry="67" fill="white" stroke="black" stroke-linecap="round" stroke-dasharray="2 4"/>
<path d="M397.789 126.91H389.662L380.374 137.728L383.373 142.58L389.565 151.991H397.692L388.065 138.019L397.789 126.91Z" fill="black"/>
<path d="M369.714 126.91V141.897L369.666 141.752C369.666 144.468 367.392 146.602 364.442 146.602C361.637 146.602 359.702 144.468 359.702 141.364V126.91H352.883V142.867C352.883 148.542 356.752 152.568 362.169 152.568C365.409 152.568 368.215 151.113 369.714 148.833V151.986H376.775V126.91H369.714Z" fill="black"/>
<path d="M338.255 152.568C344.403 152.568 348.421 149.416 348.421 144.469C348.421 138.99 343.629 137.535 339.32 136.42C335.932 135.498 334.915 135.11 334.915 133.753C334.915 132.88 336.125 132.249 337.868 132.249C339.998 132.249 342.612 133.074 344.888 134.48L347.744 129.437C344.984 127.594 341.45 126.333 337.868 126.333C331.962 126.333 328.041 129.728 328.089 134.48C328.138 139.426 332.107 140.833 337.239 142.093C339.805 142.772 341.644 143.257 341.644 144.809C341.644 145.924 340.289 146.7 338.401 146.7C335.06 146.7 332.253 145.488 330.026 143.888L326.976 148.785C329.977 151.21 334.237 152.568 338.255 152.568Z" fill="black"/>
<path d="M315.606 151.991H322.658V126.91H315.606V151.991Z" fill="black"/>
<path d="M319.204 121.432C323.735 121.432 327.408 117.754 327.408 113.216C327.408 108.679 323.735 105 319.204 105C314.673 105 311 108.679 311 113.216C311 117.754 314.673 121.432 319.204 121.432Z" fill="#FFCC00"/>
<path d="M326.256 117.613C324.795 119.908 322.215 121.432 319.276 121.432C316.337 121.432 313.757 119.908 312.295 117.613C313.757 115.317 316.337 113.793 319.276 113.793C322.215 113.793 324.795 115.317 326.256 117.613Z" fill="#FF7F2A"/>
<path d="M333.206 168.856H335.006V163.142H337.195V161.505H331.006V163.142H333.206V168.856Z" fill="black"/>
<path d="M319.28 169C321.101 169 322.226 168.076 322.226 166.593C322.226 165.207 321.166 164.734 319.515 164.38C318.422 164.143 318.069 163.993 318.069 163.542C318.069 163.176 318.401 162.897 318.99 162.897C319.676 162.897 320.415 163.165 321.091 163.681L322.023 162.37C321.241 161.715 320.276 161.36 319.044 161.36C317.362 161.36 316.226 162.306 316.226 163.724C316.226 165.207 317.394 165.637 318.969 165.991C320.04 166.249 320.383 166.346 320.383 166.787C320.383 167.184 320.03 167.463 319.344 167.463C318.444 167.463 317.64 167.12 316.922 166.529L315.894 167.764C316.783 168.57 317.972 169 319.28 169Z" fill="black"/>
<path d="M378.934 168.856H380.661V161.505H378.934V168.856Z" fill="black"/>
<path d="M362.67 168.856H365.326C367.823 168.856 369.579 167.326 369.579 165.175C369.579 163.024 367.823 161.505 365.326 161.505H362.67V168.856ZM364.48 167.197V163.163H365.601C366.839 163.163 367.728 163.998 367.728 165.175C367.728 166.352 366.839 167.197 365.601 167.197H364.48Z" fill="black"/>
<path d="M349.789 169C351.782 169 353.171 167.617 353.171 165.644V161.505H351.369V165.558C351.369 166.598 350.711 167.338 349.789 167.338C348.877 167.338 348.22 166.598 348.22 165.558V161.505H346.406V165.644C346.406 167.617 347.806 169 349.789 169Z" fill="black"/>
<path d="M393.322 169C395.436 169 397.213 167.249 397.213 165.175C397.213 163.101 395.436 161.36 393.322 161.36C391.218 161.36 389.441 163.101 389.441 165.175C389.441 167.249 391.218 169 393.322 169ZM393.322 167.335C392.217 167.335 391.281 166.346 391.281 165.175C391.281 164.014 392.217 163.026 393.322 163.026C394.426 163.026 395.362 164.014 395.362 165.175C395.362 166.346 394.426 167.335 393.322 167.335Z" fill="black"/>
</svg>
