<svg width="91" height="26" viewBox="0 0 91 26" fill="none" xmlns="http://www.w3.org/2000/svg">
<g clip-path="url(#clip0)">
<path d="M36.3934 10.4878C35.8915 10.4878 35.4453 10.5889 35.054 10.7903C34.6621 10.9917 34.3252 11.2712 34.0429 11.6275C33.761 11.9845 33.5458 12.4103 33.3966 12.9064C33.2475 13.4031 33.1735 13.9529 33.1735 14.5578C33.1735 15.1471 33.2475 15.6897 33.3966 16.1856C33.5458 16.6818 33.761 17.1081 34.0429 17.4645C34.3252 17.8215 34.6621 18.104 35.054 18.3133C35.4453 18.5225 35.8915 18.6272 36.3934 18.6272C36.8635 18.6272 37.3134 18.5383 37.7445 18.3598C38.1754 18.182 38.5472 17.9218 38.8608 17.5807C39.1743 17.2401 39.425 16.8135 39.6127 16.3018C39.8009 15.79 39.8951 15.2088 39.8951 14.5578C39.8951 13.922 39.7968 13.3522 39.6011 12.8483C39.4048 12.3449 39.1468 11.9179 38.8259 11.5694C38.5044 11.2204 38.1326 10.953 37.7096 10.7673C37.2865 10.581 36.8476 10.4878 36.3934 10.4878ZM36.1581 20.488C35.3279 20.488 34.5913 20.3404 33.9492 20.0458C33.3068 19.7518 32.7657 19.3405 32.3275 18.8136C31.8885 18.2867 31.5596 17.6587 31.3407 16.9297C31.1206 16.2014 31.0112 15.4107 31.0112 14.5578C31.0112 13.7515 31.1329 12.9916 31.3757 12.2785C31.6183 11.5658 31.963 10.9379 32.41 10.3946C32.8563 9.85266 33.393 9.42188 34.0196 9.10432C34.6461 8.78674 35.3511 8.62759 36.1349 8.62759C37.028 8.62759 37.764 8.77894 38.3441 9.08079C38.9231 9.38315 39.4795 9.85266 40.0125 10.4878L40.2473 8.8599H41.8924V25.8829H39.7777V18.8136C39.5894 19.0615 39.3461 19.2902 39.049 19.4996C38.7512 19.7089 38.4377 19.8873 38.1088 20.0342C37.78 20.1818 37.4467 20.2937 37.1099 20.3712C36.7731 20.4487 36.4558 20.488 36.1581 20.488Z" fill="#5E7285"/>
<path d="M46.7888 19.9514H44.6125V8.62766L46.7888 10.5841V19.9514Z" fill="#5E7285"/>
<path d="M53.0642 20.4053C51.365 20.4053 50.0308 20.0668 49.062 19.39L49.3243 17.3354C49.6415 17.6186 50.1298 17.8871 50.7892 18.1382C51.448 18.3901 52.1749 18.516 52.9694 18.516C54.5255 18.516 55.3039 18.0364 55.3039 17.0756C55.3039 16.2103 54.5255 15.5727 52.9694 15.163C52.4929 15.0531 52.0435 14.9235 51.6233 14.7736C51.202 14.6244 50.8252 14.4278 50.4912 14.1834C50.1577 13.9396 49.8838 13.6287 49.6694 13.2504C49.455 12.8726 49.3317 12.4009 49.3 11.8341C49.3 10.8421 49.6576 10.0159 50.3721 9.35449C51.0873 8.6936 52.1909 8.36308 53.6839 8.36308C54.748 8.36308 55.804 8.61493 56.8525 9.11865L56.5904 11.0546C55.7642 10.3623 54.8111 10.0159 53.7316 10.0159C52.2226 10.0159 51.4685 10.5393 51.4685 11.5859C51.4685 11.8396 51.5074 12.0533 51.5874 12.2277C51.6668 12.4027 51.8092 12.5569 52.0162 12.6915C52.2226 12.8266 52.5003 12.9574 52.8498 13.0845C53.1992 13.211 53.6442 13.3529 54.1839 13.5101C54.5174 13.6048 54.8788 13.7349 55.2679 13.9002C55.6571 14.0654 56.0184 14.2816 56.3517 14.5493C56.6858 14.8172 56.9635 15.1477 57.1858 15.5408C57.4083 15.9344 57.5193 16.4068 57.5193 16.9578C57.5193 17.3354 57.4555 17.7291 57.329 18.1382C57.2014 18.548 56.9714 18.9177 56.6381 19.2481C56.3046 19.5786 55.848 19.8543 55.2679 20.0742C54.6879 20.2948 53.9534 20.4053 53.0642 20.4053Z" fill="#5E7285"/>
<path d="M64.7611 20.4053C63.8235 20.4053 62.9981 20.2518 62.2834 19.9446C61.5689 19.6376 60.9611 19.2125 60.4609 18.6695C59.9608 18.1266 59.5834 17.489 59.3294 16.7569C59.0753 16.0254 58.9482 15.2263 58.9482 14.3602C58.9482 13.4789 59.0753 12.6724 59.3294 11.9403C59.5834 11.2081 59.9521 10.5748 60.4373 10.0393C60.9214 9.50435 61.5249 9.09159 62.2476 8.79985C62.9701 8.50867 63.7999 8.36308 64.737 8.36308C66.2936 8.36308 67.4928 8.59158 68.3344 9.04803L68.0009 10.9607C67.0162 10.4883 66.0079 10.2518 64.9755 10.2518C63.689 10.2518 62.7279 10.6063 62.0926 11.3143C61.4574 12.0225 61.1401 13.0378 61.1401 14.3602C61.1401 15.6827 61.4574 16.7097 62.0926 17.4417C62.7279 18.1739 63.689 18.5399 64.9755 18.5399C66.0235 18.5399 67.0397 18.3034 68.0251 17.8312L68.3109 19.5313C67.437 20.1141 66.254 20.4053 64.7611 20.4053Z" fill="#5E7285"/>
<path d="M79.9762 20.253H78.0514L77.8105 18.9718C77.0726 19.9846 75.9822 20.4906 74.5382 20.4906C71.6346 20.4906 70.1831 18.7904 70.1831 15.3892V8.62759H72.3488V14.796C72.3488 17.327 73.2632 18.5922 75.0914 18.5922C76.3427 18.5922 77.249 18.1498 77.8105 17.2635V8.62759L79.9762 10.718V20.253Z" fill="#5E7285"/>
<path d="M86.2255 20.4053C84.5263 20.4053 83.1922 20.0668 82.2234 19.39L82.4857 17.3354C82.8029 17.6186 83.2912 17.8871 83.9506 18.1382C84.6094 18.3901 85.3363 18.516 86.1308 18.516C87.6868 18.516 88.4652 18.0364 88.4652 17.0756C88.4652 16.2103 87.6868 15.5727 86.1308 15.163C85.6542 15.0531 85.2049 14.9235 84.7847 14.7736C84.3633 14.6244 83.9866 14.4278 83.6526 14.1834C83.3191 13.9396 83.0452 13.6287 82.8308 13.2504C82.6164 12.8726 82.4931 12.4009 82.4614 11.8341C82.4614 10.8421 82.819 10.0159 83.5335 9.35449C84.2487 8.6936 85.3523 8.36308 86.8453 8.36308C87.9094 8.36308 88.9653 8.61493 90.0139 9.11865L89.7518 11.0546C88.9256 10.3623 87.9725 10.0159 86.8929 10.0159C85.384 10.0159 84.6299 10.5393 84.6299 11.5859C84.6299 11.8396 84.6688 12.0533 84.7488 12.2277C84.8281 12.4027 84.9706 12.5569 85.1776 12.6915C85.384 12.8266 85.6616 12.9574 86.0112 13.0845C86.3606 13.211 86.8056 13.3529 87.3453 13.5101C87.6788 13.6048 88.0402 13.7349 88.4293 13.9002C88.8185 14.0654 89.1797 14.2816 89.513 14.5493C89.8472 14.8172 90.1248 15.1477 90.3472 15.5408C90.5694 15.9344 90.6807 16.4068 90.6807 16.9578C90.6807 17.3354 90.6164 17.7291 90.4903 18.1382C90.3627 18.548 90.1328 18.9177 89.7995 19.2481C89.466 19.5786 89.0093 19.8543 88.4293 20.0742C87.8493 20.2948 87.1148 20.4053 86.2255 20.4053Z" fill="#5E7285"/>
<path d="M7.01452 1.52588e-05C3.15645 1.52588e-05 0 3.15377 0 7.00824V17.4527C0 21.3071 3.15645 24.4609 7.01452 24.4609H17.4681C18.232 24.4609 19.1544 24.498 19.4453 24.5215C19.8851 24.5158 22.1859 24.7226 23.0769 25.8096C23.5045 26.3312 24.2919 23.9297 23.7419 23.002L23.0262 21.6711C23.9261 20.4926 24.4825 19.0407 24.4825 17.4527V7.00824C24.4825 3.15377 21.326 1.52588e-05 17.4681 1.52588e-05H7.01452ZM3.27714 15.8031V8.61912C3.27714 5.66872 5.69323 3.25494 8.64629 3.25494H15.8364C18.7893 3.25494 21.2055 5.66872 21.2055 8.61912V15.4842C21.2049 15.5866 21.2012 15.7562 21.1882 15.9707C21.1812 16.192 21.1557 16.4084 21.1222 16.6225C21.1054 16.746 21.0457 17.2729 20.8586 17.6465C20.0271 17.3489 18.0258 17.9925 18.3519 18.1596C19.5731 18.7852 20.9822 21.9449 20.9822 21.9449C19.9487 21.1629 17.0375 21.1671 15.8364 21.1671H8.64629C5.69323 21.1671 3.27714 18.7535 3.27714 15.8031Z" fill="#5E7285"/>
</g>
<defs>
<clipPath id="clip0">
<rect width="90.6806" height="25.8829" fill="white"/>
</clipPath>
</defs>
</svg>
