<svg width="121" height="29" viewBox="0 0 121 29" fill="none" xmlns="http://www.w3.org/2000/svg">
<path d="M89.6908 14.6556C88.7337 14.6556 87.9533 14.9169 87.3497 15.4396C86.7596 15.9624 86.3858 16.6609 86.2283 17.5366H92.7795C92.6614 16.6609 92.3334 15.9624 91.7956 15.4396C91.2583 14.9169 90.5565 14.6556 89.6908 14.6556ZM94.5892 18.2424C94.5892 18.4904 94.504 18.6991 94.3335 18.8693C94.1631 19.0261 93.9467 19.1043 93.6846 19.1043H86.2088C86.3529 20.0189 86.7665 20.7575 87.4479 21.3192C88.1432 21.8808 88.989 22.1616 89.9859 22.1616C90.3795 22.1616 90.7862 22.0903 91.2059 21.9464C91.6382 21.8026 91.9925 21.6263 92.2681 21.4172C92.4519 21.2734 92.6678 21.2016 92.9171 21.2016C93.1663 21.2016 93.3631 21.2669 93.5072 21.3978C93.7434 21.5935 93.8615 21.8155 93.8615 22.0639C93.8615 22.2989 93.7564 22.4951 93.5466 22.6519C93.1005 23.0044 92.5432 23.2921 91.8748 23.5141C91.2185 23.7362 90.5894 23.8476 89.9859 23.8476C88.9103 23.8476 87.9464 23.6187 87.0944 23.1612C86.2417 22.6912 85.5728 22.0441 85.0874 21.2211C84.6158 20.3981 84.3792 19.4637 84.3792 18.4183C84.3792 17.3733 84.6024 16.4389 85.048 15.6159C85.5071 14.78 86.1366 14.1329 86.9369 13.6758C87.7499 13.2053 88.668 12.9703 89.6908 12.9703C90.7006 12.9703 91.5728 13.1924 92.307 13.6365C93.0417 14.0806 93.6058 14.7014 93.9991 15.4984C94.3924 16.2954 94.5892 17.21 94.5892 18.2424Z" fill="#5E7285"/>
<path d="M96.1348 9.44167C96.1348 9.15438 96.2265 8.91936 96.4104 8.73621C96.5938 8.55346 96.83 8.46188 97.1186 8.46188C97.4072 8.46188 97.643 8.55346 97.8264 8.73621C98.0103 8.91936 98.1024 9.15438 98.1024 9.44167V20.2015C98.1024 20.6849 98.1942 21.0832 98.3772 21.3968C98.5611 21.7104 98.7973 21.8673 99.0859 21.8673H99.5774C99.8396 21.8673 100.05 21.9588 100.207 22.1416C100.378 22.3243 100.463 22.5598 100.463 22.847C100.463 23.1347 100.338 23.3698 100.089 23.5525C99.8396 23.7353 99.5185 23.8272 99.1248 23.8272H99.0859C98.5221 23.8272 98.0103 23.6769 97.5513 23.3762C97.1056 23.0626 96.7578 22.6315 96.5086 22.0828C96.2594 21.5212 96.1348 20.894 96.1348 20.2015V9.44167Z" fill="#5E7285"/>
<path d="M102.383 14.0479C102.383 13.7472 102.475 13.5053 102.658 13.3225C102.855 13.1398 103.098 13.0482 103.386 13.0482C103.688 13.0482 103.931 13.1398 104.114 13.3225C104.298 13.5053 104.39 13.7472 104.39 14.0479V22.8278C104.39 23.1151 104.298 23.357 104.114 23.5527C103.931 23.7355 103.688 23.8275 103.386 23.8275C103.098 23.8275 102.855 23.7355 102.658 23.5527C102.475 23.357 102.383 23.1151 102.383 22.8278V14.0479Z" fill="#5E7285"/>
<path d="M103.387 9.03529C103.741 9.03529 104.042 9.16577 104.291 9.42713C104.554 9.67552 104.685 9.97577 104.685 10.3287C104.685 10.6812 104.554 10.9884 104.291 11.2497C104.042 11.4981 103.741 11.6221 103.387 11.6221C103.032 11.6221 102.725 11.4981 102.462 11.2497C102.213 10.9884 102.088 10.6812 102.088 10.3287C102.088 9.97577 102.213 9.67552 102.462 9.42713C102.725 9.16577 103.032 9.03529 103.387 9.03529Z" fill="#5E7285"/>
<path d="M106.61 14.0479C106.61 13.7472 106.702 13.5053 106.885 13.3225C107.082 13.1398 107.324 13.0482 107.613 13.0482C107.914 13.0482 108.158 13.1398 108.341 13.3225C108.525 13.5053 108.616 13.7472 108.616 14.0479V22.8278C108.616 23.1151 108.525 23.357 108.341 23.5527C108.158 23.7355 107.914 23.8275 107.613 23.8275C107.324 23.8275 107.082 23.7355 106.885 23.5527C106.702 23.357 106.61 23.1151 106.61 22.8278V14.0479Z" fill="#5E7285"/>
<path d="M107.613 9.03529C107.967 9.03529 108.269 9.16577 108.517 9.42713C108.78 9.67552 108.911 9.97577 108.911 10.3287C108.911 10.6812 108.78 10.9884 108.517 11.2497C108.269 11.4981 107.967 11.6221 107.613 11.6221C107.258 11.6221 106.95 11.4981 106.688 11.2497C106.439 10.9884 106.314 10.6812 106.314 10.3287C106.314 9.97577 106.439 9.67552 106.688 9.42713C106.95 9.16577 107.258 9.03529 107.613 9.03529Z" fill="#5E7285"/>
<path d="M116.178 12.9499C117.083 12.9499 117.896 13.1456 118.618 13.5378C119.339 13.9297 119.903 14.5046 120.309 15.2624C120.716 16.0071 120.919 16.9091 120.919 17.9671V22.847C120.919 23.1347 120.821 23.3758 120.624 23.5723C120.44 23.7551 120.204 23.8466 119.916 23.8466C119.627 23.8466 119.385 23.7551 119.188 23.5723C119.004 23.3758 118.913 23.1347 118.913 22.847V17.9671C118.913 16.9091 118.624 16.1121 118.047 15.576C117.483 15.0274 116.729 14.753 115.785 14.753C115.234 14.753 114.729 14.8641 114.27 15.0861C113.824 15.3082 113.47 15.6088 113.208 15.9877C112.959 16.3666 112.834 16.7912 112.834 17.2617V22.847C112.834 23.1347 112.742 23.3758 112.558 23.5723C112.375 23.7551 112.132 23.8466 111.831 23.8466C111.542 23.8466 111.299 23.7551 111.103 23.5723C110.919 23.3758 110.827 23.1347 110.827 22.847V14.0476C110.827 13.7469 110.919 13.505 111.103 13.3223C111.299 13.1395 111.542 13.0479 111.831 13.0479C112.132 13.0479 112.375 13.1395 112.558 13.3223C112.742 13.505 112.834 13.7469 112.834 14.0476V14.2627C113.254 13.845 113.752 13.5249 114.329 13.3028C114.906 13.0674 115.522 12.9499 116.178 12.9499Z" fill="#5E7285"/>
<path d="M40.5761 21.8872C40.8123 21.8872 41.0088 21.9788 41.1662 22.1619C41.3367 22.3447 41.4219 22.5797 41.4219 22.8674C41.4219 23.1547 41.3107 23.3897 41.0875 23.5728C40.8781 23.7556 40.6025 23.8472 40.2616 23.8472H39.9072C39.2647 23.8472 38.6746 23.6839 38.1368 23.3573C37.612 23.0173 37.1993 22.5602 36.8977 21.9852C36.5957 21.4103 36.4447 20.764 36.4447 20.0451V14.7341H35.5401C35.2649 14.7341 35.0416 14.6555 34.8712 14.4991C34.7007 14.3423 34.6155 14.1462 34.6155 13.9107C34.6155 13.6498 34.7007 13.4403 34.8712 13.2839C35.0416 13.1271 35.2649 13.0489 35.5401 13.0489H36.4447V10.618C36.4447 10.3308 36.5369 10.0953 36.7203 9.91258C36.9042 9.72984 37.14 9.63826 37.4286 9.63826C37.7171 9.63826 37.9534 9.72984 38.1368 9.91258C38.3203 10.0953 38.412 10.3308 38.412 10.618V13.0489H40.0846C40.3598 13.0489 40.5826 13.1271 40.7535 13.2839C40.9235 13.4403 41.0088 13.6498 41.0088 13.9107C41.0088 14.1462 40.9235 14.3423 40.7535 14.4991C40.5826 14.6555 40.3598 14.7341 40.0846 14.7341H38.412V20.0451C38.412 20.5674 38.5565 21.0055 38.8451 21.358C39.1336 21.7109 39.4876 21.8872 39.9072 21.8872H40.5761Z" fill="#5E7285"/>
<path d="M43.2629 14.0481C43.2629 13.7474 43.3551 13.5055 43.5381 13.3228C43.735 13.14 43.9773 13.0485 44.2663 13.0485C44.5674 13.0485 44.8105 13.14 44.994 13.3228C45.1778 13.5055 45.2692 13.7474 45.2692 14.0481V22.8475C45.2692 23.1352 45.1778 23.3763 44.994 23.5728C44.8105 23.7556 44.5674 23.8472 44.2663 23.8472C43.9773 23.8472 43.735 23.7556 43.5381 23.5728C43.3551 23.3763 43.2629 23.1352 43.2629 22.8475V14.0481Z" fill="#5E7285"/>
<path d="M44.2666 9.03546C44.621 9.03546 44.9225 9.16594 45.1713 9.42729C45.4339 9.67568 45.565 9.97594 45.565 10.3289C45.565 10.6814 45.4339 10.9885 45.1713 11.2499C44.9225 11.4983 44.621 11.6227 44.2666 11.6227C43.9123 11.6227 43.6047 11.4983 43.3421 11.2499C43.0929 10.9885 42.9683 10.6814 42.9683 10.3289C42.9683 9.97594 43.0929 9.67568 43.3421 9.42729C43.6047 9.16594 43.9123 9.03546 44.2666 9.03546Z" fill="#5E7285"/>
<path d="M53.0719 21.8872C53.3081 21.8872 53.5045 21.9788 53.662 22.1619C53.8325 22.3447 53.9177 22.5797 53.9177 22.8674C53.9177 23.1547 53.8061 23.3897 53.5833 23.5728C53.3734 23.7556 53.0978 23.8472 52.7573 23.8472H52.403C51.7605 23.8472 51.17 23.6839 50.6322 23.3573C50.1078 23.0173 49.6946 22.5602 49.3931 21.9852C49.0911 21.4103 48.9405 20.764 48.9405 20.0451V14.7341H48.0358C47.7602 14.7341 47.5374 14.6555 47.3669 14.4991C47.1965 14.3423 47.1108 14.1462 47.1108 13.9107C47.1108 13.6498 47.1965 13.4403 47.3669 13.2839C47.5374 13.1271 47.7602 13.0489 48.0358 13.0489H48.9405V10.618C48.9405 10.3308 49.0326 10.0953 49.2161 9.91258C49.3995 9.72984 49.6354 9.63826 49.9243 9.63826C50.2125 9.63826 50.4487 9.72984 50.6322 9.91258C50.816 10.0953 50.9078 10.3308 50.9078 10.618V13.0489H52.58C52.8555 13.0489 53.0784 13.1271 53.2488 13.2839C53.4193 13.4403 53.5045 13.6498 53.5045 13.9107C53.5045 14.1462 53.4193 14.3423 53.2488 14.4991C53.0784 14.6555 52.8555 14.7341 52.58 14.7341H50.9078V20.0451C50.9078 20.5674 51.0518 21.0055 51.3408 21.358C51.629 21.7109 51.9833 21.8872 52.403 21.8872H53.0719Z" fill="#5E7285"/>
<path d="M55.7593 14.0481C55.7593 13.7474 55.851 13.5055 56.0345 13.3228C56.2313 13.14 56.474 13.0485 56.7626 13.0485C57.0642 13.0485 57.3069 13.14 57.4903 13.3228C57.6742 13.5055 57.7659 13.7474 57.7659 14.0481V22.8475C57.7659 23.1352 57.6742 23.3763 57.4903 23.5728C57.3069 23.7556 57.0642 23.8472 56.7626 23.8472C56.474 23.8472 56.2313 23.7556 56.0345 23.5728C55.851 23.3763 55.7593 23.1352 55.7593 22.8475V14.0481Z" fill="#5E7285"/>
<path d="M56.7625 9.03546C57.1168 9.03546 57.418 9.16594 57.6672 9.42729C57.9298 9.67568 58.0613 9.97594 58.0613 10.3289C58.0613 10.6814 57.9298 10.9885 57.6672 11.2499C57.418 11.4983 57.1168 11.6227 56.7625 11.6227C56.4082 11.6227 56.1005 11.4983 55.8379 11.2499C55.5887 10.9885 55.4641 10.6814 55.4641 10.3289C55.4641 9.97594 55.5887 9.67568 55.8379 9.42729C56.1005 9.16594 56.4082 9.03546 56.7625 9.03546Z" fill="#5E7285"/>
<path d="M65.0173 22.0835C65.6728 22.0835 66.2633 21.9267 66.7877 21.6135C67.3255 21.2865 67.7451 20.8489 68.0471 20.3002C68.3617 19.7382 68.5187 19.111 68.5187 18.4185C68.5187 17.726 68.3617 17.0991 68.0471 16.5371C67.7451 15.9755 67.3255 15.5379 66.7877 15.2238C66.2633 14.8976 65.6728 14.7339 65.0173 14.7339C64.3614 14.7339 63.7648 14.8976 63.227 15.2238C62.7026 15.5379 62.2894 15.9755 61.9879 16.5371C61.6859 17.0991 61.5353 17.726 61.5353 18.4185C61.5353 19.111 61.6859 19.7382 61.9879 20.3002C62.2894 20.8489 62.7026 21.2865 63.227 21.6135C63.7648 21.9267 64.3614 22.0835 65.0173 22.0835ZM65.0173 12.9705C66.0271 12.9705 66.9452 13.2116 67.7715 13.6954C68.6109 14.1658 69.2667 14.819 69.7384 15.6554C70.2104 16.4783 70.447 17.3994 70.447 18.4185C70.447 19.438 70.2238 20.3655 69.7781 21.2018C69.3455 22.0248 68.742 22.6715 67.968 23.1419C67.2074 23.6124 66.355 23.8478 65.4106 23.8478C64.6504 23.8478 63.9417 23.691 63.2858 23.3769C62.6304 23.0637 62.0731 22.6261 61.614 22.0641V27.3557C61.614 27.6563 61.5223 27.8982 61.3385 28.081C61.1546 28.2637 60.9123 28.3553 60.6107 28.3553C60.3222 28.3553 60.0795 28.2637 59.883 28.081C59.6991 27.8982 59.6074 27.6563 59.6074 27.3557V18.4185C59.6074 17.3994 59.8432 16.4783 60.3157 15.6554C60.8007 14.819 61.4497 14.1658 62.263 13.6954C63.0894 13.2116 64.0075 12.9705 65.0173 12.9705Z" fill="#5E7285"/>
<path d="M77.4035 22.0834C76.748 22.0834 76.1514 21.9265 75.6132 21.6133C75.0888 21.2863 74.6756 20.8422 74.3741 20.2806C74.0721 19.7186 73.9215 19.0913 73.9215 18.3988C73.9215 17.7063 74.0721 17.0856 74.3741 16.5369C74.6756 15.9753 75.0888 15.5377 75.6132 15.2236C76.1514 14.8975 76.748 14.7338 77.4035 14.7338C78.0594 14.7338 78.6495 14.8975 79.1743 15.2236C79.7117 15.5377 80.1314 15.9753 80.4333 16.5369C80.7479 17.0856 80.9054 17.7063 80.9054 18.3988C80.9054 19.0913 80.7479 19.7186 80.4333 20.2806C80.1314 20.8422 79.7117 21.2863 79.1743 21.6133C78.6495 21.9265 78.0594 22.0834 77.4035 22.0834ZM72.997 8.4624C72.6954 8.4624 72.4527 8.55357 72.2692 8.73673C72.0854 8.91988 71.9937 9.16138 71.9937 9.46204V18.3988C71.9937 19.4179 72.2299 20.3458 72.7019 21.1818C73.1869 22.0051 73.8363 22.6583 74.6493 23.1417C75.4756 23.6122 76.3937 23.8476 77.4035 23.8476C78.4133 23.8476 79.3314 23.6122 80.1577 23.1417C80.9971 22.6583 81.653 22.0051 82.125 21.1818C82.597 20.3458 82.8333 19.4179 82.8333 18.3988C82.8333 17.3797 82.6104 16.4587 82.1644 15.6353C81.7317 14.799 81.1282 14.1458 80.3546 13.6758C79.594 13.2053 78.7413 12.9703 77.7968 12.9703C77.0366 12.9703 76.3284 13.1267 75.6725 13.4403C75.017 13.754 74.4593 14.1916 74.0003 14.7536V9.46204C74.0003 9.16138 73.9017 8.91988 73.7052 8.73673C73.5218 8.55357 73.2855 8.4624 72.997 8.4624Z" fill="#5E7285"/>
<path d="M65.6547 24.7437C65.9969 24.4483 66.5144 24.4852 66.8111 24.8264C69.0032 27.3467 72.9373 27.3787 75.6449 24.7737C75.9708 24.4605 76.4895 24.4694 76.8044 24.7939C77.1186 25.1181 77.1096 25.6351 76.7837 25.9488C73.5124 29.0956 68.478 29.237 65.5719 25.8957C65.2757 25.5549 65.3126 25.0391 65.6547 24.7437Z" fill="#5E7285"/>
<path d="M18.3714 16.6596C20.7575 16.6596 23.3474 16.8849 25.7233 17.4327C26.1913 15.3123 26.4827 13.4147 26.4543 12.6493C26.236 12.4296 25.3913 11.9118 23.3267 11.4847C19.619 10.7185 15.1419 10.8465 13.3938 11.7153L14.2222 16.9019C15.4556 16.7483 16.8737 16.6596 18.3714 16.6596ZM26.4559 19.6107C26.3675 19.6107 26.279 19.5989 26.1921 19.5746C22.6196 18.5806 17.4277 18.3351 13.5663 18.9773C13.3077 19.0191 13.0439 18.9583 12.8312 18.8059C12.619 18.6532 12.4761 18.4226 12.4351 18.1645L10.1797 4.04637C10.094 3.5119 10.4593 3.00904 10.9951 2.92395C11.5312 2.83886 12.0341 3.20273 12.1198 3.7376L13.0756 9.72166C16.1009 8.58668 21.525 8.95866 24.7087 9.79419C26.7502 10.3299 27.9301 11.0361 28.316 11.9531C28.3481 12.0281 28.37 12.1071 28.3822 12.1881C28.6107 13.7117 27.6135 18.0113 27.4114 18.8582C27.3493 19.1171 27.1845 19.34 26.9543 19.4749C26.8017 19.5649 26.6296 19.6107 26.4559 19.6107Z" fill="#5E7285"/>
<path d="M26.2271 22.6843C26.1427 22.6843 26.0574 22.6738 25.9722 22.6507C20.8164 21.2701 14.2872 21.5481 11.1944 22.598C10.9196 22.6908 10.6181 22.6584 10.3697 22.5084C10.1217 22.3585 9.95246 22.1069 9.90781 21.8204L6.67789 1.13227C6.59428 0.596589 6.96119 0.0953509 7.49694 0.0118788C8.03269 -0.0715933 8.53516 0.294306 8.61877 0.829581L11.677 20.418C15.7118 19.4216 21.922 19.5354 26.4808 20.7563C27.0047 20.8969 27.3156 21.4346 27.1748 21.9578C27.0575 22.3954 26.6606 22.6843 26.2271 22.6843Z" fill="#5E7285"/>
<path d="M0.981197 6.38133C0.502675 6.38133 0.0834098 6.03164 0.0107588 5.54498C-0.0687919 5.0089 0.301363 4.5105 0.837924 4.43108L11.0046 2.92169C11.5412 2.84187 12.0408 3.21182 12.1203 3.74709C12.2003 4.28277 11.8297 4.78158 11.2936 4.861L1.1269 6.37039C1.07779 6.37768 1.0295 6.38133 0.981197 6.38133Z" fill="#5E7285"/>
<path d="M22.1443 26.4379C21.7218 26.4379 21.3796 26.0963 21.3796 25.6745C21.3796 25.2531 21.7218 24.9111 22.1443 24.9111C22.5668 24.9111 22.9089 25.2531 22.9089 25.6745C22.9089 26.0963 22.5668 26.4379 22.1443 26.4379ZM22.1443 22.9487C20.6361 22.9487 19.4136 24.1688 19.4136 25.6745C19.4136 27.1803 20.6361 28.4011 22.1443 28.4011C23.6525 28.4011 24.875 27.1803 24.875 25.6745C24.875 24.1688 23.6525 22.9487 22.1443 22.9487Z" fill="#5E7285"/>
<path d="M14.4258 26.4379C14.0033 26.4379 13.6611 26.0963 13.6611 25.6745C13.6611 25.2531 14.0033 24.9111 14.4258 24.9111C14.8479 24.9111 15.1904 25.2531 15.1904 25.6745C15.1904 26.0963 14.8479 26.4379 14.4258 26.4379ZM14.4258 22.9487C12.9176 22.9487 11.6951 24.1688 11.6951 25.6745C11.6951 27.1803 12.9176 28.4011 14.4258 28.4011C15.934 28.4011 17.1565 27.1803 17.1565 25.6745C17.1565 24.1688 15.934 22.9487 14.4258 22.9487Z" fill="#5E7285"/>
</svg>
