<svg width="98" height="25" viewBox="0 0 98 25" fill="none" xmlns="http://www.w3.org/2000/svg">
<path fill-rule="evenodd" clip-rule="evenodd" d="M4.03565 3.9964L0.0566406 7.9475L0.991152 8.88891C1.50516 9.40675 1.96463 9.82929 2.0122 9.82784C2.05976 9.82648 2.32787 9.5976 2.60789 9.31919L3.11697 8.81301L2.69298 8.37898L2.2689 7.94486L5.33059 4.9173L8.39228 1.88981L10.0529 3.59853L11.7136 5.30733L13.414 3.65486C14.3493 2.74596 15.1384 2.00238 15.1676 2.00238C15.2255 2.00238 19.867 6.75007 19.9057 6.84886C19.9187 6.88221 17.8319 8.97935 15.2684 11.5092C12.7048 14.0389 10.5773 16.1398 10.5404 16.1777C10.5035 16.2157 9.55627 15.3303 8.43542 14.2101L6.39741 12.1734L5.84248 12.7234L5.28754 13.2734L7.86202 15.8489C9.27795 17.2655 10.4619 18.4148 10.4931 18.4031C10.6267 18.3525 22.1405 6.9068 22.1185 6.84639C22.1052 6.80972 20.6069 5.26445 18.7891 3.41253L15.4839 0.0453796H11.7492H8.01458L4.03565 3.9964ZM69.3175 1.56104C68.5095 1.94035 68.0838 2.57783 68.0838 3.40811C68.0838 5.29695 70.3775 6.14774 71.6046 4.71411C72.6735 3.46537 71.8284 1.51543 70.1806 1.42873C69.8013 1.40873 69.5644 1.44506 69.3175 1.56104ZM81.1448 7.48846L79.103 13.5682L78.9576 13.167C78.8777 12.9464 78.3454 11.3397 77.7747 9.5964L76.7369 6.42691H74.8779C73.8554 6.42691 73.0188 6.43712 73.0188 6.44954C73.0188 6.46197 73.366 7.40967 73.7902 8.55545C74.2145 9.70123 74.7298 11.0982 74.9354 11.6598C75.1411 12.2213 75.7274 13.8103 76.2384 15.1909L77.1677 17.7009L79.0804 17.7238L80.9933 17.7466L81.2565 17.0431C81.4013 16.6562 82.5142 13.5827 83.7297 10.2133C84.945 6.84384 86.1529 3.49838 86.4137 2.77897C86.6746 2.05956 86.888 1.45646 86.888 1.43885C86.888 1.42124 86.0553 1.4072 85.0374 1.40771L83.1867 1.40873L81.1448 7.48846ZM60.511 4.76771V6.34182H59.6176H58.7242V7.95848V9.57513H59.6176H60.511L60.514 11.8938C60.5172 14.4567 60.6061 15.2448 60.9778 16.0043C61.2603 16.5817 61.8916 17.1515 62.5117 17.3889C63.1708 17.641 64.4216 17.7768 65.407 17.7029L66.2118 17.6425V16.1189V14.5953H65.5623C64.7858 14.5953 64.2817 14.4602 64.1164 14.2078C63.9324 13.9271 63.8214 12.3314 63.8843 10.8727L63.9402 9.57513H65.076H66.2118V7.95848V6.34182H65.0632H63.9145V4.76771V3.1936H62.2128H60.511V4.76771ZM4.38026 9.72157L0.365336 13.7019L5.57539 18.9644L10.7854 24.2269L15.0359 20.0274C17.3736 17.7176 20.0043 15.1226 20.8817 14.2605C21.7592 13.3985 22.4771 12.666 22.4771 12.6327C22.4771 12.5995 22.0578 12.1372 21.5452 11.6055L20.6133 10.6387L20.0544 11.1943L19.4955 11.75L19.8784 12.1303C20.089 12.3395 20.2622 12.5525 20.2631 12.6037C20.2641 12.6549 19.9106 13.0338 19.4778 13.4458C19.0449 13.8578 16.9158 15.9539 14.7464 18.1038L10.8022 22.0127L6.74823 17.9091C4.51861 15.6521 2.68336 13.7605 2.66992 13.7057C2.65639 13.6508 2.92442 13.3449 3.26553 13.0259C3.60656 12.7068 4.96719 11.3695 6.28918 10.0539L8.69272 7.66204L10.3946 9.36233L12.0965 11.0625L13.778 9.38267L15.4594 7.70271L15.8203 8.06356L16.1811 8.42442L16.7345 7.87109L17.2878 7.31777L16.5428 6.58168L15.7978 5.8456L12.0965 5.79344L8.39517 5.74128L4.38026 9.72157ZM31.5389 5.88652C30.0311 6.20049 29.008 6.90484 28.4478 8.01455C27.3724 10.145 28.5285 12.1497 31.2364 12.85C32.9565 13.2949 33.6235 13.6292 33.6235 14.0465C33.6235 14.7175 32.3109 14.9666 31.4388 14.4611C31.0672 14.2457 30.5604 13.6983 30.5604 13.5123C30.5604 13.4527 30.5347 13.4041 30.5033 13.4041C30.4193 13.4041 27.5823 15.0251 27.5823 15.0731C27.5823 15.2288 28.233 16.0757 28.6337 16.4417C29.6032 17.3269 30.6996 17.6918 32.3897 17.6918C34.6044 17.6918 36.105 16.9455 36.8192 15.4887C37.0456 15.0269 37.0695 14.8969 37.0692 14.1273C37.0688 13.0509 36.8806 12.5413 36.21 11.8002C35.6133 11.1409 34.9765 10.8246 33.2545 10.332C32.5601 10.1333 31.8996 9.89812 31.7867 9.80938C31.5044 9.5873 31.5129 9.2159 31.8056 8.98573C32.2784 8.61382 33.2464 8.83717 33.7761 9.44044L34.0547 9.75782L35.4345 9.01705C36.1934 8.60956 36.8282 8.26411 36.8452 8.24948C36.9237 8.18166 36.462 7.58605 35.9983 7.1567C35.3997 6.60253 34.3335 6.05678 33.5866 5.92226C33.0998 5.83453 31.8897 5.81343 31.5389 5.88652ZM42.6144 5.96438C41.3331 6.25138 40.4703 6.73467 39.596 7.65497C38.5387 8.76808 38.0292 10.1119 38.0292 11.7874C38.0292 15.0187 40.0844 17.2639 43.4113 17.6671C44.8733 17.8442 46.3739 17.568 47.4897 16.9161C48.014 16.6099 49.1093 15.6222 49.1093 15.4556C49.1093 15.4123 48.5296 15.0411 47.821 14.6308C46.5475 13.8934 46.5299 13.8864 46.3107 14.0262C45.4893 14.5497 45.1879 14.6378 44.2168 14.6378C43.1612 14.6378 42.6762 14.4824 42.1462 13.9741C41.8952 13.7333 41.6217 13.3273 41.6217 13.1956C41.6217 13.1698 43.4033 13.1488 45.5809 13.1488C49.2716 13.1488 49.5443 13.1387 49.6012 12.9999C49.6349 12.9179 49.6607 12.3149 49.6586 11.6598C49.655 10.5513 49.6365 10.4168 49.3918 9.7231C48.7491 7.90045 47.5325 6.6632 45.8518 6.12247C44.9612 5.83598 43.505 5.76493 42.6144 5.96438ZM89.2368 5.96685C88.2132 6.21453 87.0946 6.93275 86.4129 7.77997C85.9277 8.38298 85.406 9.44376 85.2164 10.2133C84.9968 11.1042 85.0169 12.5758 85.2606 13.4466C85.8126 15.4187 87.2031 16.958 88.9123 17.4887C90.4984 17.9813 92.381 17.6501 93.4157 16.6963L93.7801 16.3604V16.8818V17.4031H95.4818H97.1835V11.7874V6.17165H95.4861H93.7886L93.763 6.63971L93.7375 7.10769L93.4397 6.8492C93.026 6.49013 92.0403 6.0179 91.4924 5.9163C90.8591 5.79888 89.8363 5.82177 89.2368 5.96685ZM56.2751 6.52161C55.5373 6.64448 55.0093 6.98729 54.4526 7.70466L54.2226 8.00102L54.2186 7.3416L54.2146 6.68217H52.5554H50.8962V12.2128V17.7435H52.5492H54.2023L54.2298 14.9143C54.2566 12.1499 54.2618 12.075 54.4588 11.6392C54.8637 10.7433 55.6606 10.2658 56.8735 10.1923L57.6181 10.1472V8.287V6.42691L57.1713 6.43687C56.9256 6.44231 56.5224 6.48052 56.2751 6.52161ZM68.4241 12.0852V17.7435H70.0833H71.7425V12.0852V6.42691H70.0833H68.4241V12.0852ZM44.8449 8.94983C45.4126 9.13319 45.8921 9.55241 46.1687 10.1071L46.3912 10.5536L43.9936 10.5763C42.6749 10.5887 41.5775 10.5804 41.555 10.5578C41.4571 10.46 41.9922 9.57224 42.2826 9.35084C42.9575 8.83607 43.9915 8.67423 44.8449 8.94983ZM92.3761 9.29647C92.8416 9.54152 93.3074 10.0439 93.5419 10.5536C93.8117 11.1404 93.8189 12.4052 93.5556 12.983C93.3085 13.5253 92.8909 13.972 92.3838 14.2364C92.0009 14.436 91.852 14.4625 91.0998 14.4649C90.3378 14.4674 90.2037 14.4437 89.8159 14.2391C89.3094 13.9718 88.8926 13.5261 88.6413 12.983C88.499 12.6753 88.4622 12.4297 88.4622 11.7874C88.4621 11.0907 88.4929 10.9144 88.6853 10.5111C89.016 9.81755 89.5197 9.36318 90.2059 9.1394C90.3231 9.1012 90.7829 9.08052 91.2275 9.09354C91.8522 9.11183 92.1131 9.15795 92.3761 9.29647Z" fill="#5E7285"/>
</svg>
