<svg width="117" height="33" viewBox="0 0 117 33" fill="none" xmlns="http://www.w3.org/2000/svg">
<circle cx="7.12764" cy="19.0783" r="3.77388" fill="#5E7285"/>
<path d="M6.96362 19.0782L16.6445 11.0382L24.1922 18.7501L29.2788 8.90517" stroke="#5E7285" stroke-width="2.02865"/>
<circle cx="16.4806" cy="11.0382" r="2.95347" fill="#5E7285"/>
<circle cx="29.1148" cy="8.90522" r="2.13306" fill="#5E7285"/>
<circle cx="21.8949" cy="3.65453" r="1.47674" fill="#5E7285"/>
<circle cx="16.8086" cy="27.1183" r="2.29715" fill="#5E7285"/>
<circle cx="24.1922" cy="18.75" r="2.46123" fill="#5E7285"/>
<path d="M44.1452 10.3326C42.8879 10.3326 41.7996 10.8955 41.2179 11.7775V10.5578H38.4782V20.2593H41.2179V14.4609L41.2366 14.5172C41.2366 13.4663 42.1186 12.6407 43.2632 12.6407C44.3516 12.6407 45.1022 13.4663 45.1022 14.6673V20.2593H47.7481V14.0856C47.7481 11.8901 46.2469 10.3326 44.1452 10.3326ZM53.8891 18.0638C52.7444 18.0638 51.9 17.3507 51.581 16.2999H58.5803C58.5803 12.6407 56.7976 10.3326 53.7577 10.3326C50.9242 10.3326 48.7662 12.453 48.7662 15.3804C48.7662 18.364 51.018 20.4845 53.9078 20.4845C55.334 20.4845 57.0041 19.884 57.8672 18.9833L56.1221 17.2006C55.5967 17.7072 54.6584 18.0638 53.8891 18.0638ZM53.8703 12.7533C54.9774 12.7533 55.6905 13.3725 55.9532 14.3295H51.6185C51.975 13.3538 52.8382 12.7533 53.8703 12.7533ZM66.1196 10.5578V16.3562L66.1008 16.2999C66.1008 17.3507 65.2189 18.1764 64.0742 18.1764C62.9858 18.1764 62.2352 17.3507 62.2352 16.1497V10.5578H59.5894V16.7315C59.5894 18.927 61.0906 20.4845 63.1922 20.4845C64.4495 20.4845 65.5379 19.9215 66.1196 19.0396V20.2593H68.8593V10.5578H66.1196ZM73.1988 12.3592V10.5578H70.4591V20.2593H73.1988V15.6243C73.1988 13.8041 74.4936 12.6407 76.5202 12.6407V10.3326C75.0378 10.3326 73.8368 11.102 73.1988 12.3592ZM81.6849 10.3326C80.3338 10.3326 79.0015 10.7079 77.6316 11.4022L78.5511 13.2224C79.3205 12.8283 80.1649 12.5281 81.0656 12.5281C82.6606 12.5281 83.2986 13.4288 83.2986 14.4609V14.6485C82.473 14.3295 81.6098 14.1607 80.8217 14.1607C78.5699 14.1607 76.7872 15.4742 76.7872 17.3882C76.7872 19.246 78.3822 20.4845 80.4464 20.4845C81.4972 20.4845 82.6043 20.0716 83.2986 19.2835V20.2593H85.9445V14.4609C85.9445 11.9276 84.2181 10.3326 81.6849 10.3326ZM81.0656 18.5892C80.1274 18.5892 79.4331 18.1013 79.4331 17.3132C79.4331 16.525 80.2212 15.9433 81.2157 15.9433C81.9663 15.9433 82.6794 16.0747 83.2986 16.2999V17.2006C83.111 18.1013 82.1165 18.5892 81.0656 18.5892ZM93.4891 10.3326C92.138 10.3326 91.0121 10.9143 90.2427 11.9089V7.14254H87.503V20.2593H90.2427V18.8894C91.0121 19.9027 92.138 20.4845 93.4891 20.4845C96.0786 20.4845 97.9551 18.3828 97.9551 15.3991C97.9551 12.4343 96.0786 10.3326 93.4891 10.3326ZM92.7009 18.1764C91.3686 18.1764 90.3928 17.2006 90.2427 15.7744V15.0238C90.3928 13.6165 91.3686 12.6407 92.7009 12.6407C94.2209 12.6407 95.2905 13.7854 95.2905 15.3991C95.2905 17.0317 94.2209 18.1764 92.7009 18.1764ZM103.907 20.4845C106.778 20.4845 109.18 18.1576 109.18 15.3991C109.18 12.6407 106.778 10.3326 103.907 10.3326C101.017 10.3326 98.5961 12.6407 98.5961 15.3991C98.5961 18.1576 101.017 20.4845 103.907 20.4845ZM103.907 18.1764C102.443 18.1764 101.223 16.9003 101.223 15.3991C101.223 13.8979 102.443 12.6407 103.907 12.6407C105.351 12.6407 106.571 13.8979 106.571 15.3991C106.571 16.9003 105.351 18.1764 103.907 18.1764ZM115.387 17.8574C115.199 18.045 114.824 18.1764 114.449 18.1764C113.942 18.1764 113.529 17.726 113.529 17.088V12.772H115.631V10.5578H113.529V7.89314H110.902V10.5578H109.57V12.772H110.902V17.5196C110.902 19.2647 112.103 20.4845 113.811 20.4845C114.599 20.4845 115.481 20.1467 116.044 19.64L115.387 17.8574Z" fill="#5E7285"/>
</svg>
