<svg width="147" height="109" viewBox="0 0 147 109" fill="none" xmlns="http://www.w3.org/2000/svg">
<path d="M147 37.0989H133.211L117.452 55.4021L122.541 63.6099L133.047 79.5329H146.836L130.503 55.8946L147 37.0989Z" fill="black"/>
<path d="M99.5116 37.0991V62.461L99.4295 62.2148C99.4295 66.8111 95.5719 70.4225 90.5652 70.4225C85.8047 70.4225 82.5216 66.8111 82.5216 61.5582V37.0991H70.9487V64.1025C70.9487 73.7056 77.5149 80.518 86.7076 80.518C92.2067 80.518 96.9672 78.0557 99.5116 74.1981V79.5331H111.495V37.0991H99.5116Z" fill="black"/>
<path d="M46.0836 80.5178C56.5074 80.5178 63.3198 75.1828 63.3198 66.8109C63.3198 57.5362 55.1942 55.0739 47.8893 53.1861C42.1439 51.6266 40.4203 50.97 40.4203 48.6718C40.4203 47.1944 42.4722 46.1274 45.427 46.1274C49.0384 46.1274 53.4706 47.5228 57.3282 49.903L62.1707 41.367C57.4923 38.248 51.5007 36.114 45.427 36.114C35.4136 36.114 28.7653 41.8594 28.8474 49.903C28.9294 58.2749 35.6598 60.6551 44.36 62.7891C48.7101 63.9382 51.829 64.759 51.829 67.3855C51.829 69.2732 49.5308 70.5865 46.3298 70.5865C40.6665 70.5865 35.906 68.5345 32.1305 65.826L26.9596 74.1158C32.0484 78.2197 39.2712 80.5178 46.0836 80.5178Z" fill="black"/>
<path d="M7.7146 79.5331H19.6979V37.0991H7.7146V79.5331Z" fill="black"/>
<path d="M13.9531 27.9063C21.6592 27.9063 27.9063 21.6592 27.9063 13.9531C27.9063 6.24703 21.6592 -1.89223e-06 13.9531 -1.89223e-06C6.24703 -1.89223e-06 -1.75359e-05 6.24703 -1.75359e-05 13.9531C-1.75359e-05 21.6592 6.24703 27.9063 13.9531 27.9063Z" fill="#FFCC00"/>
<path d="M25.7573 21.3961C23.2855 25.3081 18.9226 27.9062 13.953 27.9062C8.98336 27.9062 4.62053 25.3081 2.14868 21.3961C4.62053 17.4841 8.98336 14.886 13.953 14.886C18.9226 14.886 23.2855 17.4841 25.7573 21.3961Z" fill="#FF7F2A"/>
<path d="M37.604 108H40.682V98.388H44.426V95.634H33.842V98.388H37.604V108Z" fill="black"/>
<path d="M13.976 108.216C17.036 108.216 18.926 106.668 18.926 104.184C18.926 101.862 17.144 101.07 14.372 100.476C12.536 100.08 11.942 99.828 11.942 99.072C11.942 98.46 12.5 97.992 13.49 97.992C14.642 97.992 15.884 98.442 17.018 99.306L18.584 97.11C17.27 96.012 15.65 95.418 13.58 95.418C10.754 95.418 8.84596 97.002 8.84596 99.378C8.84596 101.862 10.808 102.582 13.454 103.176C15.254 103.608 15.83 103.77 15.83 104.508C15.83 105.174 15.236 105.642 14.084 105.642C12.572 105.642 11.222 105.066 10.016 104.076L8.28796 106.146C9.78196 107.496 11.78 108.216 13.976 108.216Z" fill="black"/>
<path d="M115.007 108H118.085V95.634H115.007V108Z" fill="black"/>
<path d="M87.4714 108H91.9894C96.2374 108 99.2254 105.426 99.2254 101.808C99.2254 98.19 96.2374 95.634 91.9894 95.634H87.4714V108ZM90.5494 105.21V98.424H92.4574C94.5634 98.424 96.0754 99.828 96.0754 101.808C96.0754 103.788 94.5634 105.21 92.4574 105.21H90.5494Z" fill="black"/>
<path d="M65.5868 108.216C68.9708 108.216 71.3288 105.894 71.3288 102.582V95.634H68.2688V102.438C68.2688 104.184 67.1528 105.426 65.5868 105.426C64.0388 105.426 62.9228 104.184 62.9228 102.438V95.634H59.8448V102.582C59.8448 105.894 62.2208 108.216 65.5868 108.216Z" fill="black"/>
<path d="M139.454 108.216C143.072 108.216 146.114 105.282 146.114 101.808C146.114 98.334 143.072 95.418 139.454 95.418C135.854 95.418 132.812 98.334 132.812 101.808C132.812 105.282 135.854 108.216 139.454 108.216ZM139.454 105.426C137.564 105.426 135.962 103.77 135.962 101.808C135.962 99.864 137.564 98.208 139.454 98.208C141.344 98.208 142.946 99.864 142.946 101.808C142.946 103.77 141.344 105.426 139.454 105.426Z" fill="black"/>
</svg>
