<svg width="116" height="36" viewBox="0 0 116 36" fill="none" xmlns="http://www.w3.org/2000/svg">
<g clip-path="url(#clip0)">
<circle cx="6.30968" cy="26.0783" r="3.77388" fill="#5E7285"/>
<path d="M6.14563 26.0781L15.8265 18.0381L23.3742 25.7499L28.4608 15.905" stroke="#5E7285" stroke-width="2.02865"/>
<circle cx="15.6625" cy="18.0382" r="2.95347" fill="#5E7285"/>
<circle cx="28.2967" cy="15.9053" r="2.13306" fill="#5E7285"/>
<circle cx="21.0769" cy="10.6545" r="1.47674" fill="#5E7285"/>
<circle cx="15.9906" cy="34.1182" r="2.29715" fill="#5E7285"/>
<circle cx="23.3743" cy="25.75" r="2.46123" fill="#5E7285"/>
<path d="M43.3274 17.3326C42.0701 17.3326 40.9818 17.8955 40.4 18.7775V17.5578H37.6604V27.2593H40.4V21.4609L40.4188 21.5172C40.4188 20.4663 41.3008 19.6407 42.4454 19.6407C43.5338 19.6407 44.2844 20.4663 44.2844 21.6673V27.2593H46.9303V21.0856C46.9303 18.8901 45.4291 17.3326 43.3274 17.3326ZM53.0713 25.0638C51.9266 25.0638 51.0822 24.3507 50.7632 23.2999H57.7625C57.7625 19.6407 55.9798 17.3326 52.9399 17.3326C50.1064 17.3326 47.9484 19.453 47.9484 22.3804C47.9484 25.364 50.2002 27.4845 53.09 27.4845C54.5162 27.4845 56.1862 26.884 57.0494 25.9833L55.3043 24.2006C54.7789 24.7072 53.8406 25.0638 53.0713 25.0638ZM53.0525 19.7533C54.1596 19.7533 54.8727 20.3725 55.1354 21.3295H50.8007C51.1572 20.3538 52.0204 19.7533 53.0525 19.7533ZM65.3018 17.5578V23.3562L65.283 23.2999C65.283 24.3507 64.4011 25.1764 63.2564 25.1764C62.168 25.1764 61.4174 24.3507 61.4174 23.1497V17.5578H58.7716V23.7315C58.7716 25.927 60.2728 27.4845 62.3744 27.4845C63.6317 27.4845 64.7201 26.9215 65.3018 26.0396V27.2593H68.0415V17.5578H65.3018ZM72.381 19.3592V17.5578H69.6413V27.2593H72.381V22.6243C72.381 20.8041 73.6758 19.6407 75.7024 19.6407V17.3326C74.22 17.3326 73.019 18.102 72.381 19.3592ZM80.867 17.3326C79.516 17.3326 78.1837 17.7079 76.8138 18.4022L77.7333 20.2224C78.5027 19.8283 79.3471 19.5281 80.2478 19.5281C81.8428 19.5281 82.4808 20.4288 82.4808 21.4609V21.6485C81.6552 21.3295 80.792 21.1607 80.0039 21.1607C77.7521 21.1607 75.9694 22.4742 75.9694 24.3882C75.9694 26.246 77.5644 27.4845 79.6286 27.4845C80.6794 27.4845 81.7865 27.0716 82.4808 26.2835V27.2593H85.1267V21.4609C85.1267 18.9276 83.4003 17.3326 80.867 17.3326ZM80.2478 25.5892C79.3096 25.5892 78.6152 25.1013 78.6152 24.3132C78.6152 23.525 79.4034 22.9433 80.3979 22.9433C81.1485 22.9433 81.8616 23.0747 82.4808 23.2999V24.2006C82.2932 25.1013 81.2986 25.5892 80.2478 25.5892ZM92.6713 17.3326C91.3202 17.3326 90.1943 17.9143 89.4249 18.9089V14.1425H86.6852V27.2593H89.4249V25.8894C90.1943 26.9027 91.3202 27.4845 92.6713 27.4845C95.2608 27.4845 97.1373 25.3828 97.1373 22.3991C97.1373 19.4343 95.2608 17.3326 92.6713 17.3326ZM91.8831 25.1764C90.5508 25.1764 89.575 24.2006 89.4249 22.7744V22.0238C89.575 20.6165 90.5508 19.6407 91.8831 19.6407C93.4031 19.6407 94.4727 20.7854 94.4727 22.3991C94.4727 24.0317 93.4031 25.1764 91.8831 25.1764ZM103.089 27.4845C105.96 27.4845 108.362 25.1576 108.362 22.3991C108.362 19.6407 105.96 17.3326 103.089 17.3326C100.199 17.3326 97.7783 19.6407 97.7783 22.3991C97.7783 25.1576 100.199 27.4845 103.089 27.4845ZM103.089 25.1764C101.625 25.1764 100.405 23.9003 100.405 22.3991C100.405 20.8979 101.625 19.6407 103.089 19.6407C104.534 19.6407 105.753 20.8979 105.753 22.3991C105.753 23.9003 104.534 25.1764 103.089 25.1764ZM114.569 24.8574C114.381 25.045 114.006 25.1764 113.631 25.1764C113.124 25.1764 112.711 24.726 112.711 24.088V19.772H114.813V17.5578H112.711V14.8931H110.084V17.5578H108.752V19.772H110.084V24.5196C110.084 26.2647 111.285 27.4845 112.993 27.4845C113.781 27.4845 114.663 27.1467 115.226 26.64L114.569 24.8574Z" fill="#5E7285"/>
</g>
<defs>
<clipPath id="clip0">
<rect width="116" height="36" fill="white"/>
</clipPath>
</defs>
</svg>
