<svg width="91" height="36" viewBox="0 0 91 36" fill="none" xmlns="http://www.w3.org/2000/svg">
<g clip-path="url(#clip0)">
<path d="M36.3934 17.4879C35.8915 17.4879 35.4453 17.589 35.054 17.7904C34.6621 17.9918 34.3252 18.2713 34.0429 18.6276C33.761 18.9846 33.5458 19.4104 33.3966 19.9065C33.2475 20.4031 33.1735 20.953 33.1735 21.5579C33.1735 22.1472 33.2475 22.6898 33.3966 23.1857C33.5458 23.6819 33.761 24.1082 34.0429 24.4646C34.3252 24.8216 34.6621 25.1041 35.054 25.3134C35.4453 25.5226 35.8915 25.6273 36.3934 25.6273C36.8635 25.6273 37.3134 25.5384 37.7445 25.3599C38.1754 25.1821 38.5472 24.9219 38.8608 24.5808C39.1743 24.2402 39.425 23.8136 39.6127 23.3019C39.8009 22.7901 39.8951 22.2089 39.8951 21.5579C39.8951 20.9221 39.7968 20.3523 39.6011 19.8484C39.4048 19.345 39.1468 18.918 38.8259 18.5695C38.5044 18.2205 38.1326 17.953 37.7096 17.7674C37.2865 17.5811 36.8476 17.4879 36.3934 17.4879ZM36.1581 27.4881C35.3279 27.4881 34.5913 27.3405 33.9492 27.0459C33.3068 26.7519 32.7657 26.3406 32.3275 25.8137C31.8885 25.2868 31.5596 24.6588 31.3407 23.9298C31.1206 23.2015 31.0112 22.4108 31.0112 21.5579C31.0112 20.7516 31.1329 19.9917 31.3757 19.2786C31.6183 18.5659 31.963 17.938 32.41 17.3947C32.8563 16.8528 33.393 16.422 34.0196 16.1044C34.6461 15.7868 35.3511 15.6277 36.1349 15.6277C37.028 15.6277 37.764 15.779 38.3441 16.0809C38.9231 16.3832 39.4795 16.8528 40.0125 17.4879L40.2473 15.86H41.8924V32.8829H39.7777V25.8137C39.5894 26.0616 39.3461 26.2903 39.049 26.4996C38.7512 26.709 38.4377 26.8873 38.1088 27.0343C37.78 27.1819 37.4467 27.2938 37.1099 27.3713C36.7731 27.4488 36.4558 27.4881 36.1581 27.4881Z" fill="#5E7285"/>
<path d="M46.7888 26.9514H44.6125V15.6277L46.7888 17.5842V26.9514Z" fill="#5E7285"/>
<path d="M53.0642 27.4053C51.365 27.4053 50.0308 27.0668 49.062 26.3899L49.3243 24.3353C49.6415 24.6186 50.1298 24.887 50.7892 25.1382C51.448 25.39 52.1749 25.516 52.9694 25.516C54.5255 25.516 55.3039 25.0363 55.3039 24.0756C55.3039 23.2102 54.5255 22.5727 52.9694 22.163C52.4929 22.053 52.0435 21.9234 51.6233 21.7736C51.202 21.6243 50.8252 21.4278 50.4912 21.1833C50.1577 20.9395 49.8838 20.6286 49.6694 20.2504C49.455 19.8725 49.3317 19.4008 49.3 18.834C49.3 17.8421 49.6576 17.0159 50.3721 16.3544C51.0873 15.6936 52.1909 15.363 53.6839 15.363C54.748 15.363 55.804 15.6149 56.8525 16.1186L56.5904 18.0546C55.7642 17.3622 54.8111 17.0159 53.7316 17.0159C52.2226 17.0159 51.4685 17.5393 51.4685 18.5859C51.4685 18.8396 51.5074 19.0532 51.5874 19.2276C51.6668 19.4026 51.8092 19.5569 52.0162 19.6914C52.2226 19.8265 52.5003 19.9573 52.8498 20.0845C53.1992 20.211 53.6442 20.3529 54.1839 20.5101C54.5174 20.6048 54.8788 20.7349 55.2679 20.9001C55.6571 21.0654 56.0184 21.2816 56.3517 21.5493C56.6858 21.8172 56.9635 22.1477 57.1858 22.5407C57.4083 22.9344 57.5193 23.4068 57.5193 23.9578C57.5193 24.3353 57.4555 24.7291 57.329 25.1382C57.2014 25.5479 56.9714 25.9176 56.6381 26.248C56.3046 26.5785 55.8479 26.8543 55.2679 27.0741C54.6879 27.2948 53.9534 27.4053 53.0642 27.4053Z" fill="#5E7285"/>
<path d="M64.7612 27.4053C63.8236 27.4053 62.9982 27.2518 62.2835 26.9445C61.569 26.6375 60.9612 26.2125 60.461 25.6695C59.9609 25.1266 59.5835 24.489 59.3295 23.7569C59.0754 23.0253 58.9483 22.2262 58.9483 21.3602C58.9483 20.4789 59.0754 19.6723 59.3295 18.9403C59.5835 18.2081 59.9522 17.5747 60.4374 17.0393C60.9215 16.5043 61.5251 16.0915 62.2477 15.7998C62.9702 15.5086 63.8 15.363 64.7371 15.363C66.2937 15.363 67.4929 15.5915 68.3345 16.048L68.001 17.9606C67.0163 17.4882 66.008 17.2517 64.9756 17.2517C63.6891 17.2517 62.728 17.6062 62.0927 18.3143C61.4575 19.0225 61.1402 20.0378 61.1402 21.3602C61.1402 22.6826 61.4575 23.7096 62.0927 24.4417C62.728 25.1738 63.6891 25.5399 64.9756 25.5399C66.0236 25.5399 67.0398 25.3034 68.0252 24.8312L68.311 26.5313C67.4371 27.114 66.2541 27.4053 64.7612 27.4053Z" fill="#5E7285"/>
<path d="M79.9763 27.2531H78.0515L77.8106 25.9719C77.0727 26.9847 75.9824 27.4907 74.5383 27.4907C71.6348 27.4907 70.1832 25.7905 70.1832 22.3893V15.6277H72.3489V21.7961C72.3489 24.3271 73.2633 25.5923 75.0916 25.5923C76.3428 25.5923 77.2492 25.1499 77.8106 24.2636V15.6277L79.9763 17.7181V27.2531Z" fill="#5E7285"/>
<path d="M86.2255 27.4053C84.5263 27.4053 83.1922 27.0668 82.2234 26.3899L82.4856 24.3353C82.8028 24.6186 83.2912 24.887 83.9505 25.1382C84.6094 25.39 85.3363 25.516 86.1308 25.516C87.6867 25.516 88.4652 25.0363 88.4652 24.0756C88.4652 23.2102 87.6867 22.5727 86.1308 22.163C85.6542 22.053 85.2049 21.9234 84.7847 21.7736C84.3633 21.6243 83.9866 21.4278 83.6525 21.1833C83.319 20.9395 83.0452 20.6286 82.8308 20.2504C82.6164 19.8725 82.493 19.4008 82.4614 18.834C82.4614 17.8421 82.8189 17.0159 83.5334 16.3544C84.2486 15.6936 85.3523 15.363 86.8453 15.363C87.9094 15.363 88.9653 15.6149 90.0138 16.1186L89.7517 18.0546C88.9256 17.3622 87.9724 17.0159 86.8929 17.0159C85.384 17.0159 84.6298 17.5393 84.6298 18.5859C84.6298 18.8396 84.6687 19.0532 84.7487 19.2276C84.8281 19.4026 84.9706 19.5569 85.1775 19.6914C85.384 19.8265 85.6616 19.9573 86.0111 20.0845C86.3605 20.211 86.8055 20.3529 87.3453 20.5101C87.6788 20.6048 88.0401 20.7349 88.4293 20.9001C88.8184 21.0654 89.1797 21.2816 89.513 21.5493C89.8471 21.8172 90.1248 22.1477 90.3471 22.5407C90.5693 22.9344 90.6806 23.4068 90.6806 23.9578C90.6806 24.3353 90.6164 24.7291 90.4903 25.1382C90.3627 25.5479 90.1328 25.9176 89.7994 26.248C89.4659 26.5785 89.0093 26.8543 88.4293 27.0741C87.8493 27.2948 87.1148 27.4053 86.2255 27.4053Z" fill="#5E7285"/>
<path d="M7.01452 7C3.15645 7 0 10.1538 0 14.0082V24.4527C0 28.3071 3.15645 31.4609 7.01452 31.4609H17.4681C18.232 31.4609 19.1544 31.498 19.4453 31.5215C19.8851 31.5158 22.1859 31.7226 23.0769 32.8096C23.5045 33.3312 24.2919 30.9297 23.7419 30.002L23.0262 28.6711C23.9261 27.4925 24.4825 26.0407 24.4825 24.4527V14.0082C24.4825 10.1538 21.326 7 17.4681 7H7.01452ZM3.27714 22.803V15.6191C3.27714 12.6687 5.69323 10.2549 8.64629 10.2549H15.8364C18.7893 10.2549 21.2055 12.6687 21.2055 15.6191V22.4842C21.2049 22.5866 21.2013 22.7562 21.1882 22.9707C21.1812 23.192 21.1557 23.4084 21.1222 23.6225C21.1054 23.746 21.0457 24.2728 20.8586 24.6465C20.0271 24.3489 18.0258 24.9925 18.3519 25.1596C19.5731 25.7852 20.9822 28.9449 20.9822 28.9449C19.9487 28.1629 17.0375 28.1671 15.8364 28.1671H8.64629C5.69323 28.1671 3.27714 25.7535 3.27714 22.803Z" fill="#5E7285"/>
</g>
<defs>
<clipPath id="clip0">
<rect width="90.6806" height="25.8829" fill="white" transform="translate(0 7)"/>
</clipPath>
</defs>
</svg>
