<svg width="121" height="36" viewBox="0 0 121 36" fill="none" xmlns="http://www.w3.org/2000/svg">
<path d="M89.6909 18.6555C88.7338 18.6555 87.9533 18.9168 87.3498 19.4395C86.7597 19.9622 86.3858 20.6608 86.2284 21.5365H92.7795C92.6614 20.6608 92.3335 19.9622 91.7957 19.4395C91.2583 18.9168 90.5566 18.6555 89.6909 18.6555ZM94.5893 22.2423C94.5893 22.4903 94.5041 22.699 94.3336 22.8692C94.1631 23.026 93.9468 23.1042 93.6846 23.1042H86.2089C86.353 24.0187 86.7666 24.7574 87.448 25.319C88.1433 25.8807 88.9891 26.1615 89.9859 26.1615C90.3796 26.1615 90.7863 26.0902 91.206 25.9463C91.6382 25.8025 91.9925 25.6262 92.2681 25.4171C92.452 25.2733 92.6679 25.2015 92.9171 25.2015C93.1663 25.2015 93.3632 25.2668 93.5073 25.3977C93.7435 25.5934 93.8616 25.8154 93.8616 26.0638C93.8616 26.2988 93.7565 26.495 93.5466 26.6518C93.1006 27.0043 92.5433 27.292 91.8748 27.514C91.2186 27.7361 90.5895 27.8475 89.9859 27.8475C88.9104 27.8475 87.9464 27.6186 87.0945 27.1611C86.2418 26.6911 85.5729 26.044 85.0875 25.221C84.6158 24.398 84.3792 23.4636 84.3792 22.4182C84.3792 21.3732 84.6024 20.4388 85.0481 19.6158C85.5071 18.7799 86.1366 18.1327 86.937 17.6757C87.75 17.2052 88.6681 16.9702 89.6909 16.9702C90.7007 16.9702 91.5729 17.1923 92.3071 17.6364C93.0417 18.0805 93.6059 18.7012 93.9992 19.4983C94.3925 20.2953 94.5893 21.2099 94.5893 22.2423Z" fill="#5E7285"/>
<path d="M96.1347 13.4417C96.1347 13.1544 96.2264 12.9194 96.4103 12.7362C96.5937 12.5535 96.83 12.4619 97.1185 12.4619C97.4071 12.4619 97.6429 12.5535 97.8264 12.7362C98.0102 12.9194 98.1024 13.1544 98.1024 13.4417V24.2015C98.1024 24.6849 98.1941 25.0832 98.3771 25.3969C98.561 25.7105 98.7972 25.8673 99.0858 25.8673H99.5773C99.8395 25.8673 100.05 25.9589 100.207 26.1416C100.378 26.3244 100.463 26.5598 100.463 26.8471C100.463 27.1348 100.338 27.3698 100.089 27.5525C99.8395 27.7353 99.5184 27.8273 99.1248 27.8273H99.0858C98.522 27.8273 98.0102 27.6769 97.5512 27.3763C97.1055 27.0626 96.7577 26.6315 96.5085 26.0829C96.2593 25.5212 96.1347 24.894 96.1347 24.2015V13.4417Z" fill="#5E7285"/>
<path d="M102.383 18.048C102.383 17.7473 102.475 17.5054 102.658 17.3227C102.855 17.1399 103.098 17.0483 103.386 17.0483C103.688 17.0483 103.931 17.1399 104.114 17.3227C104.298 17.5054 104.39 17.7473 104.39 18.048V26.8279C104.39 27.1152 104.298 27.3571 104.114 27.5529C103.931 27.7356 103.688 27.8276 103.386 27.8276C103.098 27.8276 102.855 27.7356 102.658 27.5529C102.475 27.3571 102.383 27.1152 102.383 26.8279V18.048Z" fill="#5E7285"/>
<path d="M103.386 13.0354C103.741 13.0354 104.042 13.1659 104.291 13.4272C104.554 13.6756 104.685 13.9759 104.685 14.3288C104.685 14.6813 104.554 14.9885 104.291 15.2498C104.042 15.4982 103.741 15.6222 103.386 15.6222C103.032 15.6222 102.724 15.4982 102.462 15.2498C102.213 14.9885 102.088 14.6813 102.088 14.3288C102.088 13.9759 102.213 13.6756 102.462 13.4272C102.724 13.1659 103.032 13.0354 103.386 13.0354Z" fill="#5E7285"/>
<path d="M106.61 18.048C106.61 17.7473 106.702 17.5054 106.885 17.3227C107.082 17.1399 107.324 17.0483 107.613 17.0483C107.914 17.0483 108.158 17.1399 108.341 17.3227C108.524 17.5054 108.616 17.7473 108.616 18.048V26.8279C108.616 27.1152 108.524 27.3571 108.341 27.5529C108.158 27.7356 107.914 27.8276 107.613 27.8276C107.324 27.8276 107.082 27.7356 106.885 27.5529C106.702 27.3571 106.61 27.1152 106.61 26.8279V18.048Z" fill="#5E7285"/>
<path d="M107.613 13.0354C107.967 13.0354 108.269 13.1659 108.517 13.4272C108.78 13.6756 108.911 13.9759 108.911 14.3288C108.911 14.6813 108.78 14.9885 108.517 15.2498C108.269 15.4982 107.967 15.6222 107.613 15.6222C107.258 15.6222 106.95 15.4982 106.688 15.2498C106.439 14.9885 106.314 14.6813 106.314 14.3288C106.314 13.9759 106.439 13.6756 106.688 13.4272C106.95 13.1659 107.258 13.0354 107.613 13.0354Z" fill="#5E7285"/>
<path d="M116.178 16.95C117.083 16.95 117.896 17.1457 118.618 17.5379C119.339 17.9297 119.903 18.5047 120.309 19.2625C120.716 20.0072 120.919 20.9092 120.919 21.9672V26.8471C120.919 27.1348 120.821 27.3759 120.624 27.5724C120.44 27.7551 120.204 27.8467 119.916 27.8467C119.627 27.8467 119.385 27.7551 119.188 27.5724C119.004 27.3759 118.913 27.1348 118.913 26.8471V21.9672C118.913 20.9092 118.624 20.1122 118.047 19.5761C117.483 19.0274 116.729 18.7531 115.785 18.7531C115.234 18.7531 114.729 18.8641 114.27 19.0862C113.824 19.3082 113.47 19.6089 113.208 19.9878C112.959 20.3666 112.834 20.7913 112.834 21.2617V26.8471C112.834 27.1348 112.742 27.3759 112.558 27.5724C112.375 27.7551 112.132 27.8467 111.831 27.8467C111.542 27.8467 111.299 27.7551 111.103 27.5724C110.919 27.3759 110.827 27.1348 110.827 26.8471V18.0476C110.827 17.747 110.919 17.5051 111.103 17.3223C111.299 17.1396 111.542 17.048 111.831 17.048C112.132 17.048 112.375 17.1396 112.558 17.3223C112.742 17.5051 112.834 17.747 112.834 18.0476V18.2628C113.254 17.845 113.752 17.5249 114.329 17.3029C114.906 17.0675 115.522 16.95 116.178 16.95Z" fill="#5E7285"/>
<path d="M40.5761 25.8871C40.8124 25.8871 41.0088 25.9787 41.1663 26.1618C41.3367 26.3446 41.422 26.5796 41.422 26.8673C41.422 27.1546 41.3108 27.3896 41.0875 27.5728C40.8781 27.7555 40.6025 27.8471 40.2616 27.8471H39.9073C39.2648 27.8471 38.6746 27.6838 38.1369 27.3572C37.6121 27.0172 37.1993 26.5602 36.8977 25.9852C36.5958 25.4102 36.4448 24.7639 36.4448 24.0451V18.734H35.5401C35.2649 18.734 35.0417 18.6554 34.8712 18.499C34.7008 18.3422 34.6155 18.1461 34.6155 17.9107C34.6155 17.6497 34.7008 17.4402 34.8712 17.2838C35.0417 17.127 35.2649 17.0488 35.5401 17.0488H36.4448V14.618C36.4448 14.3307 36.5369 14.0953 36.7204 13.9125C36.9042 13.7298 37.14 13.6382 37.4286 13.6382C37.7172 13.6382 37.9534 13.7298 38.1369 13.9125C38.3203 14.0953 38.412 14.3307 38.412 14.618V17.0488H40.0846C40.3598 17.0488 40.5826 17.127 40.7535 17.2838C40.9236 17.4402 41.0088 17.6497 41.0088 17.9107C41.0088 18.1461 40.9236 18.3422 40.7535 18.499C40.5826 18.6554 40.3598 18.734 40.0846 18.734H38.412V24.0451C38.412 24.5674 38.5565 25.0054 38.8451 25.3579C39.1337 25.7108 39.4876 25.8871 39.9073 25.8871H40.5761Z" fill="#5E7285"/>
<path d="M43.263 18.048C43.263 17.7473 43.3551 17.5054 43.5382 17.3227C43.735 17.1399 43.9773 17.0483 44.2663 17.0483C44.5674 17.0483 44.8106 17.1399 44.994 17.3227C45.1779 17.5054 45.2692 17.7473 45.2692 18.048V26.8474C45.2692 27.1351 45.1779 27.3762 44.994 27.5727C44.8106 27.7555 44.5674 27.847 44.2663 27.847C43.9773 27.847 43.735 27.7555 43.5382 27.5727C43.3551 27.3762 43.263 27.1351 43.263 26.8474V18.048Z" fill="#5E7285"/>
<path d="M44.2667 13.0354C44.621 13.0354 44.9226 13.1659 45.1714 13.4272C45.434 13.6756 45.5651 13.9759 45.5651 14.3288C45.5651 14.6813 45.434 14.9885 45.1714 15.2498C44.9226 15.4982 44.621 15.6226 44.2667 15.6226C43.9124 15.6226 43.6047 15.4982 43.3421 15.2498C43.0929 14.9885 42.9683 14.6813 42.9683 14.3288C42.9683 13.9759 43.0929 13.6756 43.3421 13.4272C43.6047 13.1659 43.9124 13.0354 44.2667 13.0354Z" fill="#5E7285"/>
<path d="M53.0718 25.8871C53.308 25.8871 53.5044 25.9787 53.6619 26.1618C53.8324 26.3446 53.9176 26.5796 53.9176 26.8673C53.9176 27.1546 53.806 27.3896 53.5832 27.5728C53.3733 27.7555 53.0977 27.8471 52.7572 27.8471H52.4029C51.7604 27.8471 51.1699 27.6838 50.6321 27.3572C50.1077 27.0172 49.6945 26.5602 49.3929 25.9852C49.091 25.4102 48.9404 24.7639 48.9404 24.0451V18.734H48.0357C47.7601 18.734 47.5373 18.6554 47.3668 18.499C47.1964 18.3422 47.1107 18.1461 47.1107 17.9107C47.1107 17.6497 47.1964 17.4402 47.3668 17.2838C47.5373 17.127 47.7601 17.0488 48.0357 17.0488H48.9404V14.618C48.9404 14.3307 49.0325 14.0953 49.216 13.9125C49.3994 13.7298 49.6353 13.6382 49.9242 13.6382C50.2124 13.6382 50.4486 13.7298 50.6321 13.9125C50.8159 14.0953 50.9077 14.3307 50.9077 14.618V17.0488H52.5798C52.8554 17.0488 53.0783 17.127 53.2487 17.2838C53.4192 17.4402 53.5044 17.6497 53.5044 17.9107C53.5044 18.1461 53.4192 18.3422 53.2487 18.499C53.0783 18.6554 52.8554 18.734 52.5798 18.734H50.9077V24.0451C50.9077 24.5674 51.0517 25.0054 51.3407 25.3579C51.6289 25.7108 51.9832 25.8871 52.4029 25.8871H53.0718Z" fill="#5E7285"/>
<path d="M55.7592 18.048C55.7592 17.7473 55.8509 17.5054 56.0344 17.3227C56.2312 17.1399 56.4739 17.0483 56.7625 17.0483C57.0641 17.0483 57.3068 17.1399 57.4902 17.3227C57.6741 17.5054 57.7658 17.7473 57.7658 18.048V26.8474C57.7658 27.1351 57.6741 27.3762 57.4902 27.5727C57.3068 27.7555 57.0641 27.847 56.7625 27.847C56.4739 27.847 56.2312 27.7555 56.0344 27.5727C55.8509 27.3762 55.7592 27.1351 55.7592 26.8474V18.048Z" fill="#5E7285"/>
<path d="M56.7624 13.0354C57.1168 13.0354 57.4179 13.1659 57.6671 13.4272C57.9297 13.6756 58.0612 13.9759 58.0612 14.3288C58.0612 14.6813 57.9297 14.9885 57.6671 15.2498C57.4179 15.4982 57.1168 15.6226 56.7624 15.6226C56.4081 15.6226 56.1005 15.4982 55.8379 15.2498C55.5887 14.9885 55.4641 14.6813 55.4641 14.3288C55.4641 13.9759 55.5887 13.6756 55.8379 13.4272C56.1005 13.1659 56.4081 13.0354 56.7624 13.0354Z" fill="#5E7285"/>
<path d="M65.0173 26.0835C65.6728 26.0835 66.2634 25.9267 66.7877 25.6135C67.3255 25.2865 67.7452 24.8488 68.0472 24.3002C68.3617 23.7382 68.5188 23.1109 68.5188 22.4184C68.5188 21.7259 68.3617 21.0991 68.0472 20.5371C67.7452 19.9755 67.3255 19.5378 66.7877 19.2238C66.2634 18.8976 65.6728 18.7339 65.0173 18.7339C64.3614 18.7339 63.7648 18.8976 63.227 19.2238C62.7026 19.5378 62.2895 19.9755 61.9879 20.5371C61.6859 21.0991 61.5354 21.7259 61.5354 22.4184C61.5354 23.1109 61.6859 23.7382 61.9879 24.3002C62.2895 24.8488 62.7026 25.2865 63.227 25.6135C63.7648 25.9267 64.3614 26.0835 65.0173 26.0835ZM65.0173 16.9705C66.0271 16.9705 66.9452 17.2116 67.7716 17.6954C68.6109 18.1658 69.2668 18.819 69.7384 19.6553C70.2105 20.4783 70.4471 21.3993 70.4471 22.4184C70.4471 23.4379 70.2238 24.3654 69.7782 25.2018C69.3455 26.0248 68.742 26.6715 67.968 27.1419C67.2074 27.6123 66.3551 27.8478 65.4106 27.8478C64.6504 27.8478 63.9418 27.691 63.2859 27.3769C62.6304 27.0637 62.0731 26.6261 61.6141 26.0641V31.3556C61.6141 31.6563 61.5224 31.8982 61.3385 32.0809C61.1547 32.2637 60.9124 32.3553 60.6108 32.3553C60.3222 32.3553 60.0795 32.2637 59.8831 32.0809C59.6992 31.8982 59.6075 31.6563 59.6075 31.3556V22.4184C59.6075 21.3993 59.8433 20.4783 60.3157 19.6553C60.8007 18.819 61.4497 18.1658 62.2631 17.6954C63.0894 17.2116 64.0075 16.9705 65.0173 16.9705Z" fill="#5E7285"/>
<path d="M77.4034 26.0834C76.7479 26.0834 76.1513 25.9265 75.6131 25.6133C75.0887 25.2863 74.6755 24.8422 74.374 24.2806C74.072 23.7186 73.9214 23.0913 73.9214 22.3988C73.9214 21.7063 74.072 21.0856 74.374 20.5369C74.6755 19.9753 75.0887 19.5377 75.6131 19.2236C76.1513 18.8975 76.7479 18.7338 77.4034 18.7338C78.0593 18.7338 78.6494 18.8975 79.1742 19.2236C79.7116 19.5377 80.1313 19.9753 80.4332 20.5369C80.7478 21.0856 80.9053 21.7063 80.9053 22.3988C80.9053 23.0913 80.7478 23.7186 80.4332 24.2806C80.1313 24.8422 79.7116 25.2863 79.1742 25.6133C78.6494 25.9265 78.0593 26.0834 77.4034 26.0834ZM72.9969 12.4624C72.6953 12.4624 72.4526 12.5536 72.2691 12.7367C72.0853 12.9199 71.9936 13.1614 71.9936 13.462V22.3988C71.9936 23.4179 72.2298 24.3458 72.7018 25.1818C73.1868 26.0051 73.8362 26.6583 74.6492 27.1417C75.4755 27.6122 76.3936 27.8476 77.4034 27.8476C78.4132 27.8476 79.3313 27.6122 80.1577 27.1417C80.997 26.6583 81.6529 26.0051 82.1249 25.1818C82.5969 24.3458 82.8332 23.4179 82.8332 22.3988C82.8332 21.3797 82.6103 20.4587 82.1643 19.6353C81.7316 18.799 81.1281 18.1458 80.3545 17.6758C79.5939 17.2053 78.7412 16.9703 77.7967 16.9703C77.0365 16.9703 76.3283 17.1267 75.6724 17.4403C75.0169 17.754 74.4592 18.1916 74.0002 18.7536V13.462C74.0002 13.1614 73.9016 12.9199 73.7051 12.7367C73.5217 12.5536 73.2854 12.4624 72.9969 12.4624Z" fill="#5E7285"/>
<path d="M65.6548 28.7437C65.9969 28.4483 66.5144 28.4852 66.8111 28.8263C69.0032 31.3467 72.9373 31.3787 75.6449 28.7737C75.9708 28.4604 76.4895 28.4694 76.8045 28.7939C77.1186 29.1181 77.1097 29.6351 76.7838 29.9488C73.5125 33.0956 68.478 33.237 65.572 29.8957C65.2757 29.5549 65.3126 29.0391 65.6548 28.7437Z" fill="#5E7285"/>
<path d="M18.3714 20.6596C20.7575 20.6596 23.3474 20.8849 25.7234 21.4327C26.1914 19.3123 26.4828 17.4147 26.4544 16.6493C26.236 16.4297 25.3914 15.9118 23.3267 15.4847C19.6191 14.7185 15.1419 14.8465 13.3938 15.7153L14.2222 20.9019C15.4557 20.7483 16.8738 20.6596 18.3714 20.6596ZM26.456 23.6107C26.3675 23.6107 26.279 23.5989 26.1922 23.5746C22.6197 22.5807 17.4278 22.3351 13.5663 22.9774C13.3078 23.0191 13.044 22.9583 12.8313 22.806C12.619 22.6532 12.4762 22.4226 12.4352 22.1645L10.1797 8.04638C10.0941 7.51192 10.4594 7.00906 10.9951 6.92396C11.5313 6.83887 12.0342 7.20275 12.1198 7.73761L13.0756 13.7217C16.101 12.5867 21.525 12.9587 24.7087 13.7942C26.7502 14.3299 27.9301 15.0362 28.3161 15.9531C28.3482 16.0281 28.3701 16.1071 28.3822 16.1882C28.6108 17.7117 27.6135 22.0113 27.4114 22.8582C27.3493 23.1171 27.1845 23.34 26.9544 23.4749C26.8018 23.5649 26.6297 23.6107 26.456 23.6107Z" fill="#5E7285"/>
<path d="M26.227 26.6843C26.1426 26.6843 26.0573 26.6737 25.9721 26.6506C20.8163 25.2701 14.2871 25.5481 11.1943 26.598C10.9196 26.6908 10.618 26.6583 10.3696 26.5084C10.1216 26.3585 9.95237 26.1069 9.90772 25.8204L6.6778 5.13225C6.59419 4.59657 6.9611 4.09534 7.49685 4.01186C8.0326 3.92839 8.53506 4.29429 8.61867 4.82957L11.6769 24.418C15.7117 23.4216 21.9219 23.5354 26.4807 24.7563C27.0046 24.8969 27.3155 25.4346 27.1747 25.9577C27.0574 26.3954 26.6605 26.6843 26.227 26.6843Z" fill="#5E7285"/>
<path d="M0.981197 10.3814C0.502675 10.3814 0.0834097 10.0317 0.0107588 9.54502C-0.0687919 9.00893 0.301363 8.51053 0.837924 8.43111L11.0046 6.92172C11.5412 6.8419 12.0408 7.21185 12.1203 7.74712C12.2003 8.2828 11.8297 8.78161 11.2936 8.86103L1.1269 10.3704C1.07779 10.3777 1.0295 10.3814 0.981197 10.3814Z" fill="#5E7285"/>
<path d="M22.1444 30.4379C21.7219 30.4379 21.3797 30.0964 21.3797 29.6745C21.3797 29.2531 21.7219 28.9111 22.1444 28.9111C22.5669 28.9111 22.9091 29.2531 22.9091 29.6745C22.9091 30.0964 22.5669 30.4379 22.1444 30.4379ZM22.1444 26.9487C20.6362 26.9487 19.4137 28.1688 19.4137 29.6745C19.4137 31.1803 20.6362 32.4012 22.1444 32.4012C23.6526 32.4012 24.8751 31.1803 24.8751 29.6745C24.8751 28.1688 23.6526 26.9487 22.1444 26.9487Z" fill="#5E7285"/>
<path d="M14.4257 30.4379C14.0032 30.4379 13.661 30.0964 13.661 29.6745C13.661 29.2531 14.0032 28.9111 14.4257 28.9111C14.8478 28.9111 15.1903 29.2531 15.1903 29.6745C15.1903 30.0964 14.8478 30.4379 14.4257 30.4379ZM14.4257 26.9487C12.9174 26.9487 11.695 28.1688 11.695 29.6745C11.695 31.1803 12.9174 32.4012 14.4257 32.4012C15.9339 32.4012 17.1564 31.1803 17.1564 29.6745C17.1564 28.1688 15.9339 26.9487 14.4257 26.9487Z" fill="#5E7285"/>
</svg>
