<svg width="97" height="36" viewBox="0 0 97 36" fill="none" xmlns="http://www.w3.org/2000/svg">
<g clip-path="url(#clip0)">
<path fill-rule="evenodd" clip-rule="evenodd" d="M3.97901 13.951L0 17.9021L0.934512 18.8435C1.44852 19.3614 1.90799 19.7839 1.95556 19.7825C2.00312 19.7811 2.27123 19.5522 2.55125 19.2738L3.06033 18.7676L2.63634 18.3336L2.21226 17.8995L5.27395 14.8719L8.33564 11.8444L9.99629 13.5532L11.6569 15.262L13.3574 13.6095C14.2927 12.7006 15.0818 11.957 15.111 11.957C15.1689 11.957 19.8104 16.7047 19.849 16.8035C19.862 16.8368 17.7753 18.934 15.2118 21.4638C12.6482 23.9935 10.5207 26.0944 10.4838 26.1323C10.4469 26.1703 9.49963 25.2849 8.37878 24.1647L6.34077 22.1281L5.78584 22.6781L5.2309 23.2281L7.80538 25.8036C9.22131 27.2201 10.4053 28.3695 10.4364 28.3577C10.57 28.3072 22.0838 16.8614 22.0619 16.801C22.0485 16.7643 20.5502 15.2191 18.7324 13.3672L15.4272 10H11.6926H7.95794L3.97901 13.951ZM69.2609 11.5157C68.4529 11.895 68.0271 12.5324 68.0271 13.3627C68.0271 15.2516 70.3208 16.1024 71.5479 14.6687C72.6169 13.42 71.7718 11.47 70.124 11.3833C69.7447 11.3634 69.5078 11.3997 69.2609 11.5157ZM81.0882 17.4431L79.0463 23.5228L78.901 23.1216C78.8211 22.901 78.2888 21.2943 77.718 19.551L76.6803 16.3815H74.8212C73.7988 16.3815 72.9622 16.3917 72.9622 16.4042C72.9622 16.4166 73.3093 17.3643 73.7336 18.5101C74.1578 19.6559 74.6732 21.0528 74.8788 21.6144C75.0844 22.176 75.6708 23.765 76.1818 25.1455L77.111 27.6556L79.0238 27.6784L80.9366 27.7013L81.1999 26.9977C81.3447 26.6108 82.4576 23.5374 83.673 20.1679C84.8884 16.7985 86.0963 13.453 86.3571 12.7336C86.618 12.0142 86.8314 11.4111 86.8314 11.3935C86.8314 11.3759 85.9986 11.3618 84.9807 11.3623L83.1301 11.3634L81.0882 17.4431ZM60.4544 14.7223V16.2964H59.561H58.6675V17.9131V19.5298H59.561H60.4544L60.4573 21.8484C60.4606 24.4114 60.5495 25.1994 60.9212 25.9589C61.2037 26.5363 61.8349 27.1062 62.455 27.3435C63.1141 27.5957 64.365 27.7314 65.3504 27.6575L66.1552 27.5971V26.0735V24.5499H65.5057C64.7291 24.5499 64.2251 24.4148 64.0598 24.1624C63.8758 23.8817 63.7648 22.2861 63.8277 20.8273L63.8836 19.5298H65.0194H66.1552V17.9131V16.2964H65.0065H63.8579V14.7223V13.1482H62.1561H60.4544V14.7223ZM4.32362 19.6762L0.308696 23.6565L5.51875 28.919L10.7287 34.1815L14.9792 29.982C17.3169 27.6722 19.9476 25.0772 20.8251 24.2152C21.7026 23.3531 22.4204 22.6206 22.4204 22.5874C22.4204 22.5541 22.0011 22.0918 21.4886 21.5601L20.5567 20.5933L19.9978 21.149L19.4388 21.7046L19.8218 22.0849C20.0324 22.2941 20.2055 22.5071 20.2065 22.5583C20.2074 22.6095 19.854 22.9885 19.4211 23.4004C18.9883 23.8124 16.8592 25.9085 14.6898 28.0585L10.7456 31.9674L6.69159 27.8637C4.46197 25.6067 2.62672 23.7151 2.61328 23.6603C2.59975 23.6054 2.86777 23.2995 3.20889 22.9805C3.54992 22.6615 4.91055 21.3242 6.23254 20.0085L8.63608 17.6167L10.338 19.3169L12.0398 21.0172L13.7213 19.3373L15.4028 17.6573L15.7637 18.0182L16.1244 18.379L16.6778 17.8257L17.2312 17.2724L16.4861 16.5363L15.7411 15.8002L12.0398 15.7481L8.33853 15.6959L4.32362 19.6762ZM31.4822 15.8411C29.9745 16.1551 28.9514 16.8595 28.3912 17.9692C27.3158 20.0997 28.4718 22.1043 31.1797 22.8047C32.8999 23.2495 33.5669 23.5838 33.5669 24.0011C33.5669 24.6722 32.2543 24.9212 31.3822 24.4157C31.0106 24.2004 30.5037 23.6529 30.5037 23.4669C30.5037 23.4073 30.478 23.3587 30.4466 23.3587C30.3626 23.3587 27.5257 24.9798 27.5257 25.0277C27.5257 25.1834 28.1763 26.0303 28.5771 26.3963C29.5466 27.2815 30.643 27.6465 32.3331 27.6465C34.5477 27.6465 36.0483 26.9001 36.7626 25.4433C36.989 24.9815 37.0129 24.8515 37.0125 24.0819C37.0122 23.0056 36.824 22.4959 36.1533 21.7548C35.5567 21.0955 34.9198 20.7792 33.1978 20.2866C32.5034 20.0879 31.843 19.8527 31.7301 19.764C31.4478 19.5419 31.4563 19.1705 31.749 18.9404C32.2218 18.5684 33.1897 18.7918 33.7194 19.3951L33.9981 19.7124L35.3778 18.9717C36.1367 18.5642 36.7716 18.2187 36.7886 18.2041C36.867 18.1363 36.4054 17.5407 35.9416 17.1113C35.343 16.5572 34.2769 16.0114 33.5299 15.8769C33.0431 15.7892 31.833 15.7681 31.4822 15.8411ZM42.5578 15.919C41.2764 16.206 40.4136 16.6893 39.5394 17.6096C38.4821 18.7227 37.9726 20.0666 37.9726 21.742C37.9726 24.9733 40.0278 27.2185 43.3547 27.6217C44.8166 27.7989 46.3172 27.5226 47.4331 26.8707C47.9574 26.5645 49.0527 25.5768 49.0527 25.4102C49.0527 25.3669 48.4729 24.9957 47.7643 24.5855C46.4908 23.848 46.4733 23.841 46.254 23.9808C45.4327 24.5044 45.1312 24.5924 44.1602 24.5924C43.1045 24.5924 42.6196 24.437 42.0896 23.9287C41.8386 23.688 41.565 23.2819 41.565 23.1502C41.565 23.1244 43.3467 23.1034 45.5242 23.1034C49.215 23.1034 49.4877 23.0933 49.5446 22.9545C49.5783 22.8726 49.6041 22.2696 49.6019 21.6144C49.5984 20.5059 49.5799 20.3714 49.3352 19.6777C48.6924 17.8551 47.4759 16.6178 45.7951 16.0771C44.9045 15.7906 43.4484 15.7196 42.5578 15.919ZM89.1801 15.9215C88.1566 16.1692 87.038 16.8874 86.3562 17.7346C85.8711 18.3376 85.3494 19.3984 85.1597 20.1679C84.9401 21.0589 84.9603 22.5304 85.204 23.4012C85.756 25.3734 87.1464 26.9126 88.8557 27.4434C90.4418 27.9359 92.3243 27.6047 93.3591 26.6509L93.7234 26.315V26.8364V27.3578H95.4252H97.1269V21.742V16.1263H95.4294H93.7319L93.7064 16.5943L93.6809 17.0623L93.3831 16.8038C92.9694 16.4448 91.9837 15.9725 91.4358 15.8709C90.8025 15.7535 89.7796 15.7764 89.1801 15.9215ZM56.2185 16.4762C55.4807 16.5991 54.9526 16.9419 54.3959 17.6593L54.1659 17.9556L54.1619 17.2962L54.1579 16.6368H52.4987H50.8395V22.1675V27.6981H52.4926H54.1457L54.1732 24.869C54.2 22.1045 54.2052 22.0296 54.4021 21.5938C54.8071 20.6979 55.604 20.2204 56.8169 20.1469L57.5614 20.1018V18.2416V16.3815L57.1147 16.3915C56.869 16.3969 56.4657 16.4351 56.2185 16.4762ZM68.3675 22.0398V27.6981H70.0267H71.6859V22.0398V16.3815H70.0267H68.3675V22.0398ZM44.7882 18.9044C45.356 19.0878 45.8355 19.507 46.112 20.0617L46.3345 20.5083L43.9369 20.5309C42.6182 20.5433 41.5209 20.535 41.4983 20.5124C41.4005 20.4146 41.9356 19.5269 42.2259 19.3055C42.9008 18.7907 43.9349 18.6289 44.7882 18.9044ZM92.3195 19.2511C92.785 19.4961 93.2508 19.9985 93.4853 20.5083C93.7551 21.095 93.7622 22.3598 93.499 22.9376C93.2519 23.4799 92.8343 23.9266 92.3271 24.191C91.9443 24.3906 91.7953 24.4172 91.0432 24.4195C90.2811 24.422 90.147 24.3984 89.7592 24.1937C89.2528 23.9265 88.8359 23.4807 88.5847 22.9376C88.4424 22.6299 88.4056 22.3843 88.4056 21.742C88.4055 21.0453 88.4363 20.869 88.6287 20.4657C88.9593 19.7722 89.463 19.3178 90.1493 19.094C90.2665 19.0558 90.7262 19.0351 91.1708 19.0482C91.7955 19.0665 92.0565 19.1126 92.3195 19.2511Z" fill="#5E7285"/>
</g>
<defs>
<clipPath id="clip0">
<rect width="97" height="36" fill="white"/>
</clipPath>
</defs>
</svg>
