<svg width="147" height="109" fill="none" xmlns="http://www.w3.org/2000/svg"><path d="M147 37.099h-13.789l-15.759 18.303 5.089 8.208 10.506 15.923h13.789l-16.333-23.638L147 37.099zm-47.488.001v25.36l-.082-.246c0 4.596-3.858 8.207-8.865 8.207-4.76 0-8.043-3.61-8.043-8.864V37.1H70.949v27.004c0 9.603 6.566 16.415 15.759 16.415 5.499 0 10.26-2.462 12.804-6.32v5.335h11.983V37.1H99.512zM46.084 80.518c10.423 0 17.236-5.335 17.236-13.707 0-9.275-8.126-11.737-15.43-13.625-5.746-1.56-7.47-2.216-7.47-4.514 0-1.478 2.052-2.545 5.007-2.545 3.611 0 8.044 1.396 11.901 3.776l4.843-8.536c-4.679-3.119-10.67-5.253-16.744-5.253-10.013 0-16.662 5.745-16.58 13.789.082 8.372 6.813 10.752 15.513 12.886 4.35 1.15 7.469 1.97 7.469 4.596 0 1.888-2.298 3.201-5.5 3.201-5.663 0-10.423-2.052-14.199-4.76l-5.17 8.29c5.088 4.104 12.311 6.402 19.124 6.402zm-38.369-.985h11.983V37.1H7.715v42.434z" fill="#000"/><path d="M13.953 27.906c7.706 0 13.953-6.247 13.953-13.953C27.906 6.247 21.66 0 13.953 0 6.247 0 0 6.247 0 13.953c0 7.706 6.247 13.953 13.953 13.953z" fill="#FC0"/><path d="M25.757 21.396a13.943 13.943 0 01-11.804 6.51c-4.97 0-9.332-2.598-11.804-6.51a13.943 13.943 0 0111.804-6.51c4.97 0 9.332 2.598 11.804 6.51z" fill="#FF7F2A"/><path d="M37.604 108h3.078v-9.612h3.744v-2.754H33.842v2.754h3.762V108zm-23.628.216c3.06 0 4.95-1.548 4.95-4.032 0-2.322-1.782-3.114-4.554-3.708-1.836-.396-2.43-.648-2.43-1.404 0-.612.558-1.08 1.548-1.08 1.152 0 2.394.45 3.528 1.314l1.566-2.196c-1.314-1.098-2.934-1.692-5.004-1.692-2.826 0-4.734 1.584-4.734 3.96 0 2.484 1.962 3.204 4.608 3.798 1.8.432 2.376.594 2.376 1.332 0 .666-.594 1.134-1.746 1.134-1.512 0-2.862-.576-4.068-1.566l-1.728 2.07c1.494 1.35 3.492 2.07 5.688 2.07zM115.007 108h3.078V95.634h-3.078V108zm-27.536 0h4.518c4.248 0 7.236-2.574 7.236-6.192 0-3.618-2.988-6.174-7.236-6.174h-4.518V108zm3.078-2.79v-6.786h1.908c2.106 0 3.618 1.404 3.618 3.384s-1.512 3.402-3.618 3.402H90.55zm-24.962 3.006c3.384 0 5.742-2.322 5.742-5.634v-6.948h-3.06v6.804c0 1.746-1.116 2.988-2.682 2.988-1.548 0-2.664-1.242-2.664-2.988v-6.804h-3.078v6.948c0 3.312 2.376 5.634 5.742 5.634zm73.867 0c3.618 0 6.66-2.934 6.66-6.408s-3.042-6.39-6.66-6.39c-3.6 0-6.642 2.916-6.642 6.39 0 3.474 3.042 6.408 6.642 6.408zm0-2.79c-1.89 0-3.492-1.656-3.492-3.618 0-1.944 1.602-3.6 3.492-3.6s3.492 1.656 3.492 3.6c0 1.962-1.602 3.618-3.492 3.618z" fill="#000"/></svg>