<svg width="91" height="26" fill="none" xmlns="http://www.w3.org/2000/svg"><g clip-path="url(#clip0)" fill="#5E7285"><path d="M36.393 10.488c-.502 0-.948.1-1.339.302a3.068 3.068 0 00-1.011.838 3.808 3.808 0 00-.646 1.278 5.727 5.727 0 00-.224 1.652c0 .59.075 1.132.224 1.628a3.8 3.8 0 00.646 1.279c.282.357.62.639 1.011.848.391.21.837.314 1.34.314.47 0 .92-.089 1.35-.267a3.11 3.11 0 001.117-.78 3.79 3.79 0 00.752-1.278c.188-.512.282-1.093.282-1.744 0-.636-.098-1.206-.294-1.71a4.02 4.02 0 00-.775-1.279 3.319 3.319 0 00-2.433-1.081zm-.235 10c-.83 0-1.567-.148-2.209-.442a4.533 4.533 0 01-1.621-1.232 5.272 5.272 0 01-.987-1.884 8.166 8.166 0 01-.33-2.372c0-.806.122-1.566.365-2.28a5.953 5.953 0 011.034-1.883 4.982 4.982 0 011.61-1.29c.626-.318 1.331-.477 2.115-.477.893 0 1.629.15 2.21.453.578.302 1.135.772 1.668 1.407l.234-1.628h1.645v17.023h-2.114v-7.07a3.268 3.268 0 01-.729.687 5.614 5.614 0 01-1.94.871 4.255 4.255 0 01-.95.117zm10.631-.537h-2.177V8.628l2.177 1.956v9.367zm6.275.454c-1.699 0-3.033-.338-4.002-1.015l.262-2.055c.318.284.806.552 1.465.803a6.059 6.059 0 002.18.378c1.556 0 2.335-.48 2.335-1.44 0-.866-.779-1.503-2.335-1.913a12.11 12.11 0 01-1.346-.39 4.376 4.376 0 01-1.132-.59 2.923 2.923 0 01-.822-.933c-.214-.377-.337-.85-.369-1.416 0-.992.358-1.818 1.072-2.48.715-.66 1.819-.99 3.312-.99 1.064 0 2.12.25 3.169.755l-.263 1.936a4.322 4.322 0 00-2.858-1.04c-1.51 0-2.264.524-2.264 1.57 0 .255.04.468.12.643.079.175.221.329.428.463.207.136.484.266.834.393s.794.269 1.334.426a9.28 9.28 0 011.084.39c.39.165.75.382 1.084.65.334.267.612.598.834.99.222.394.333.867.333 1.418 0 .377-.063.771-.19 1.18a2.67 2.67 0 01-.69 1.11c-.334.33-.791.606-1.371.826-.58.22-1.315.331-2.204.331zm11.697 0c-.937 0-1.763-.153-2.478-.46a5.273 5.273 0 01-1.822-1.276 5.399 5.399 0 01-1.132-1.912 7.26 7.26 0 01-.38-2.397c0-.881.126-1.688.38-2.42a5.455 5.455 0 011.108-1.9 4.844 4.844 0 011.81-1.24c.723-.291 1.553-.437 2.49-.437 1.557 0 2.756.229 3.597.685l-.333 1.913a6.923 6.923 0 00-3.026-.71c-1.286 0-2.247.355-2.882 1.063-.636.709-.953 1.724-.953 3.046 0 1.323.317 2.35.953 3.082.635.732 1.596 1.098 2.882 1.098a6.98 6.98 0 003.05-.709l.286 1.7c-.874.583-2.057.874-3.55.874zm15.215-.152h-1.925l-.24-1.281c-.738 1.013-1.829 1.519-3.273 1.519-2.903 0-4.355-1.7-4.355-5.102V8.628h2.166v6.168c0 2.531.914 3.796 2.742 3.796 1.252 0 2.158-.442 2.72-1.328V8.628l2.165 2.09v9.535zm6.249.152c-1.699 0-3.033-.338-4.002-1.015l.263-2.055c.317.284.805.552 1.465.803.658.252 1.385.378 2.18.378 1.556 0 2.334-.48 2.334-1.44 0-.866-.778-1.503-2.334-1.913-.477-.11-.926-.24-1.346-.39a4.375 4.375 0 01-1.132-.59 2.923 2.923 0 01-.822-.933c-.215-.377-.338-.85-.37-1.416 0-.992.358-1.818 1.073-2.48.715-.66 1.818-.99 3.311-.99 1.064 0 2.12.25 3.169.755l-.262 1.936a4.322 4.322 0 00-2.86-1.04c-1.508 0-2.262.524-2.262 1.57 0 .255.039.468.119.643.08.175.222.329.429.463.206.136.484.266.833.393.35.127.795.269 1.334.426a9.28 9.28 0 011.084.39c.39.165.75.382 1.084.65.334.267.612.598.834.99.222.394.334.867.334 1.418 0 .377-.065.771-.19 1.18a2.67 2.67 0 01-.692 1.11c-.333.33-.79.606-1.37.826-.58.22-1.314.331-2.204.331zM7.015 0C3.156 0 0 3.154 0 7.008v10.445c0 3.854 3.156 7.008 7.015 7.008h10.453c.764 0 1.686.037 1.977.06.44-.005 2.74.202 3.632 1.289.427.521 1.215-1.88.665-2.808l-.716-1.33c.9-1.18 1.457-2.631 1.457-4.22V7.009C24.483 3.154 21.326 0 17.468 0H7.015zM3.277 15.803V8.62c0-2.95 2.416-5.364 5.37-5.364h7.19c2.952 0 5.369 2.414 5.369 5.364v6.865a9.778 9.778 0 01-.018.487 5.286 5.286 0 01-.066.651c-.017.124-.076.65-.263 1.024-.832-.297-2.833.346-2.507.514 1.221.625 2.63 3.785 2.63 3.785-1.033-.782-3.944-.778-5.146-.778h-7.19c-2.953 0-5.369-2.414-5.369-5.364z"/></g><defs><clipPath id="clip0"><path fill="#fff" d="M0 0h90.681v25.883H0z"/></clipPath></defs></svg>