<svg width="121" height="36" fill="none" xmlns="http://www.w3.org/2000/svg"><path d="M89.69 18.655c-.956 0-1.737.262-2.34.784-.59.523-.964 1.222-1.122 2.098h6.552c-.119-.876-.447-1.575-.984-2.098-.538-.522-1.24-.784-2.105-.784zm4.9 3.587a.851.851 0 01-.256.627.921.921 0 01-.65.235H86.21c.144.915.558 1.653 1.239 2.215.695.562 1.541.843 2.538.843.394 0 .8-.072 1.22-.216.432-.144.787-.32 1.062-.529.184-.144.4-.216.65-.216.248 0 .445.066.59.197.236.195.354.417.354.666 0 .235-.105.431-.315.588-.446.352-1.004.64-1.672.862a5.884 5.884 0 01-1.89.334c-1.075 0-2.039-.23-2.89-.687a5.197 5.197 0 01-2.007-1.94c-.472-.823-.709-1.757-.709-2.803 0-1.045.223-1.98.67-2.802a4.897 4.897 0 011.888-1.94c.813-.47 1.731-.706 2.754-.706 1.01 0 1.882.222 2.616.666A4.398 4.398 0 0194 19.498c.394.797.59 1.712.59 2.744zm1.545-8.8c0-.288.091-.523.275-.706a.961.961 0 01.709-.274.96.96 0 01.707.274.953.953 0 01.276.706v10.76c0 .483.092.881.275 1.195.184.314.42.47.709.47h.491a.79.79 0 01.63.275c.171.182.256.418.256.705 0 .288-.125.523-.374.705-.25.183-.57.275-.964.275h-.04c-.563 0-1.075-.15-1.534-.45-.445-.314-.793-.745-1.043-1.294-.249-.562-.373-1.189-.373-1.881v-10.76zm6.248 4.606c0-.3.092-.543.275-.725a1.03 1.03 0 01.728-.275c.302 0 .545.092.728.275.184.182.276.424.276.725v8.78c0 .287-.092.53-.276.725-.183.183-.426.275-.728.275a1.03 1.03 0 01-.728-.275 1.022 1.022 0 01-.275-.725v-8.78zm1.003-5.013c.355 0 .656.13.905.392.263.249.394.549.394.902 0 .352-.131.66-.394.92-.249.25-.55.373-.905.373a1.3 1.3 0 01-.924-.372 1.292 1.292 0 01-.374-.921c0-.353.125-.653.374-.902.262-.261.57-.392.924-.392zm3.224 5.013c0-.3.092-.543.275-.725a1.03 1.03 0 01.728-.275c.301 0 .545.092.728.275.183.182.275.424.275.725v8.78c0 .287-.092.53-.275.725-.183.183-.427.275-.728.275a1.03 1.03 0 01-.728-.275 1.022 1.022 0 01-.275-.725v-8.78zm1.003-5.013c.354 0 .656.13.904.392.263.249.394.549.394.902 0 .352-.131.66-.394.92a1.23 1.23 0 01-.904.373 1.3 1.3 0 01-.925-.372 1.292 1.292 0 01-.374-.921c0-.353.125-.653.374-.902.262-.261.57-.392.925-.392zm8.565 3.915c.905 0 1.718.196 2.44.588a4.131 4.131 0 011.691 1.724c.407.745.61 1.647.61 2.705v4.88a.983.983 0 01-.295.725.962.962 0 01-.708.275 1.03 1.03 0 01-.728-.275 1.02 1.02 0 01-.275-.725v-4.88c0-1.058-.289-1.855-.866-2.39-.564-.55-1.318-.824-2.262-.824-.551 0-1.056.111-1.515.333-.446.222-.8.523-1.062.902a2.269 2.269 0 00-.374 1.274v5.585c0 .288-.092.529-.276.725-.183.183-.426.275-.727.275-.289 0-.532-.092-.728-.275a1.02 1.02 0 01-.276-.725v-8.8c0-.3.092-.542.276-.725a1.03 1.03 0 01.728-.274c.301 0 .544.092.727.274.184.183.276.425.276.726v.215a4.26 4.26 0 011.495-.96 4.846 4.846 0 011.849-.353zm-75.602 8.937c.236 0 .433.092.59.275.17.183.256.418.256.705a.871.871 0 01-.334.706c-.21.183-.486.274-.826.274h-.355a3.346 3.346 0 01-1.77-.49 3.586 3.586 0 01-1.24-1.372c-.301-.575-.452-1.221-.452-1.94v-5.311h-.905c-.275 0-.498-.079-.669-.235a.766.766 0 01-.256-.588c0-.261.086-.47.256-.627.17-.157.394-.235.67-.235h.904v-2.431c0-.287.092-.523.275-.706a.962.962 0 01.709-.274c.288 0 .524.092.708.274a.954.954 0 01.275.706v2.43h1.673c.275 0 .498.079.669.236.17.156.255.366.255.627a.767.767 0 01-.255.588c-.171.156-.394.235-.67.235h-1.672v5.311c0 .522.145.96.433 1.313.289.353.643.53 1.062.53h.67zm2.687-7.839c0-.3.092-.543.275-.725a1.03 1.03 0 01.728-.275c.301 0 .545.092.728.275.184.182.275.424.275.725v8.8c0 .287-.091.528-.275.725-.183.183-.427.274-.728.274-.289 0-.531-.091-.728-.274a1.023 1.023 0 01-.275-.726v-8.799zm1.004-5.013c.354 0 .656.13.904.392.263.249.394.549.394.902 0 .352-.131.66-.394.92-.248.25-.55.374-.904.374-.355 0-.662-.125-.925-.373a1.291 1.291 0 01-.374-.921c0-.353.125-.653.374-.902a1.27 1.27 0 01.925-.392zm8.805 12.852c.236 0 .432.092.59.275.17.183.256.418.256.705a.872.872 0 01-.335.706c-.21.183-.485.274-.826.274h-.354a3.348 3.348 0 01-1.77-.49 3.59 3.59 0 01-1.24-1.372c-.302-.575-.453-1.221-.453-1.94v-5.311h-.904c-.276 0-.499-.079-.67-.235a.767.767 0 01-.255-.588c0-.261.085-.47.256-.627.17-.157.393-.235.669-.235h.904v-2.431c0-.287.093-.523.276-.706a.96.96 0 01.708-.274c.288 0 .525.092.708.274a.952.952 0 01.276.706v2.43h1.672c.275 0 .498.079.669.236.17.156.255.366.255.627a.766.766 0 01-.255.588c-.17.156-.394.235-.67.235h-1.671v5.311c0 .522.144.96.433 1.313.288.353.642.53 1.062.53h.669zm2.688-7.839c0-.3.09-.543.274-.725a1.03 1.03 0 01.729-.275c.301 0 .544.092.727.275.184.182.276.424.276.725v8.8c0 .287-.092.528-.276.725-.183.183-.426.274-.727.274a1.03 1.03 0 01-.729-.274 1.022 1.022 0 01-.275-.726v-8.799zm1.002-5.013c.355 0 .656.13.905.392.263.249.394.549.394.902 0 .352-.131.66-.394.92-.25.25-.55.374-.905.374-.354 0-.662-.125-.924-.373a1.291 1.291 0 01-.374-.921c0-.353.125-.653.374-.902.262-.261.57-.392.924-.392zm8.255 13.049c.656 0 1.246-.157 1.77-.47a3.472 3.472 0 001.26-1.314c.315-.562.472-1.19.472-1.882s-.157-1.319-.472-1.88c-.302-.563-.721-1-1.26-1.314a3.284 3.284 0 00-1.77-.49 3.385 3.385 0 00-3.03 1.803 3.91 3.91 0 00-.452 1.881c0 .693.15 1.32.453 1.882.301.549.715.986 1.239 1.313.538.314 1.134.47 1.79.47zm0-9.113c1.01 0 1.928.24 2.755.724a5.051 5.051 0 011.966 1.96c.472.823.71 1.744.71 2.763 0 1.02-.224 1.947-.67 2.784a4.88 4.88 0 01-1.81 1.94c-.76.47-1.613.706-2.557.706a4.856 4.856 0 01-3.797-1.784v5.292c0 .3-.092.542-.275.725-.184.183-.427.274-.728.274-.289 0-.531-.091-.728-.274-.184-.183-.276-.425-.276-.725v-8.938c0-1.019.236-1.94.709-2.763a5.276 5.276 0 011.947-1.96c.826-.483 1.744-.724 2.754-.724zm12.386 9.112a3.494 3.494 0 01-1.79-.47 3.478 3.478 0 01-1.239-1.332 3.911 3.911 0 01-.453-1.882c0-.693.151-1.313.453-1.862.302-.562.715-1 1.24-1.313a3.388 3.388 0 011.79-.49c.655 0 1.245.163 1.77.49.538.314.957.751 1.26 1.313.314.549.471 1.17.471 1.862 0 .692-.157 1.32-.472 1.882a3.434 3.434 0 01-1.259 1.332 3.389 3.389 0 01-1.77.47zm-4.406-13.62c-.302 0-.544.09-.728.274-.184.183-.275.424-.275.725v8.937c0 1.019.236 1.947.708 2.783a5.477 5.477 0 001.947 1.96c.826.47 1.745.706 2.754.706 1.01 0 1.928-.236 2.755-.706a5.234 5.234 0 001.967-1.96c.472-.836.708-1.764.708-2.783 0-1.02-.223-1.94-.669-2.764a4.846 4.846 0 00-1.81-1.96c-.76-.47-1.613-.705-2.557-.705a4.86 4.86 0 00-2.125.47A4.819 4.819 0 0074 18.754v-5.292c0-.3-.098-.542-.295-.725a.96.96 0 00-.708-.275z" fill="#5E7285"/><path d="M65.655 28.744a.822.822 0 011.156.082c2.192 2.52 6.126 2.553 8.834-.052a.822.822 0 011.16.02.815.815 0 01-.021 1.155c-3.272 3.147-8.306 3.288-11.212-.053a.815.815 0 01.083-1.152zM18.371 20.66c2.387 0 4.976.225 7.352.773.468-2.12.76-4.018.731-4.784-.218-.22-1.063-.737-3.127-1.164-3.708-.766-8.185-.638-9.933.23l.828 5.187a34.085 34.085 0 014.15-.242zm8.085 2.95a.977.977 0 01-.264-.035c-3.572-.994-8.764-1.24-12.626-.598a.98.98 0 01-1.131-.813L10.18 8.046a.982.982 0 011.94-.309l.956 5.985c3.025-1.135 8.449-.763 11.633.072 2.041.536 3.221 1.242 3.607 2.16a.955.955 0 01.066.234c.229 1.524-.769 5.823-.97 6.67a.98.98 0 01-.956.753z" fill="#5E7285"/><path d="M26.227 26.684a.97.97 0 01-.255-.033c-5.156-1.38-11.685-1.103-14.778-.053a.985.985 0 01-1.286-.778L6.678 5.132a.981.981 0 011.94-.302l3.059 19.588c4.035-.996 10.245-.883 14.804.338a.98.98 0 01-.254 1.928z" fill="#5E7285"/><path d="M.981 10.381a.98.98 0 01-.143-1.95l10.167-1.51a.981.981 0 11.289 1.94l-10.167 1.51a.987.987 0 01-.146.01zm21.163 20.057a.764.764 0 11-.001-1.528.764.764 0 01.001 1.528zm0-3.49a2.728 2.728 0 00-2.73 2.726 2.729 2.729 0 002.73 2.727 2.728 2.728 0 002.731-2.727 2.728 2.728 0 00-2.73-2.725zm-7.718 3.49a.764.764 0 11-.002-1.528.764.764 0 01.002 1.528zm0-3.49a2.728 2.728 0 00-2.731 2.726 2.729 2.729 0 002.73 2.727 2.728 2.728 0 002.731-2.727 2.728 2.728 0 00-2.73-2.725z" fill="#5E7285"/></svg>