<svg width="97" height="36" fill="none" xmlns="http://www.w3.org/2000/svg"><g clip-path="url(#clip0)"><path fill-rule="evenodd" clip-rule="evenodd" d="M3.979 13.951L0 17.902l.935.941c.514.518.973.94 1.02.94.048-.002.316-.23.596-.51l.51-.505-.425-.434-.424-.434 3.062-3.028 3.062-3.028 1.66 1.71 1.66 1.708 1.701-1.652c.936-.91 1.725-1.653 1.754-1.653.058 0 4.7 4.748 4.738 4.846.013.034-2.074 2.131-4.637 4.66a5596.51 5596.51 0 00-4.728 4.67c-.037.037-.984-.848-2.105-1.968L6.34 22.128l-.555.55-.555.55 2.574 2.576c1.416 1.416 2.6 2.566 2.631 2.554.134-.05 11.648-11.497 11.626-11.557-.014-.037-1.512-1.582-3.33-3.434L15.427 10H7.958l-3.979 3.951zm65.282-2.435c-.808.379-1.234 1.016-1.234 1.847 0 1.889 2.294 2.74 3.52 1.306 1.07-1.249.225-3.199-1.423-3.286-.38-.02-.616.017-.863.133zm11.827 5.927l-2.042 6.08-.145-.401c-.08-.221-.612-1.828-1.183-3.571l-1.038-3.17h-1.859c-1.022 0-1.859.01-1.859.023s.347.96.772 2.106c.424 1.146.94 2.543 1.145 3.104.205.562.792 2.151 1.303 3.531l.929 2.51 1.913.023 1.913.023.263-.703c.145-.387 1.258-3.46 2.473-6.83a6573.16 6573.16 0 012.684-7.434 48.2 48.2 0 00.474-1.34c0-.018-.832-.032-1.85-.032l-1.85.001-2.043 6.08zm-20.634-2.72v1.573h-1.787v3.234h1.787l.003 2.318c.004 2.563.093 3.351.464 4.11.283.578.914 1.148 1.534 1.386.66.252 1.91.387 2.895.313l.805-.06V24.55h-.65c-.776 0-1.28-.135-1.445-.388-.184-.28-.295-1.876-.232-3.335l.056-1.297h2.271v-3.234h-2.298v-3.148h-3.403v1.574zm-56.13 4.953l-4.015 3.98 5.21 5.263 5.21 5.262 4.25-4.199c2.338-2.31 4.969-4.905 5.846-5.767.878-.862 1.595-1.594 1.595-1.628 0-.033-.419-.495-.931-1.027l-.932-.967-.56.556-.558.556.383.38c.21.21.384.422.384.473.001.052-.352.43-.785.842-.433.412-2.562 2.509-4.731 4.659l-3.944 3.908-4.054-4.103c-2.23-2.257-4.065-4.149-4.079-4.204-.013-.055.255-.36.596-.68.34-.319 1.702-1.656 3.024-2.971l2.403-2.392 1.702 1.7 1.702 1.7 1.681-1.68 1.682-1.68.36.361.361.361.554-.553.553-.554-.745-.736-.745-.736-3.701-.052-3.701-.052-4.015 3.98zm27.158-3.835c-1.508.314-2.53 1.019-3.09 2.128-1.076 2.13.08 4.135 2.788 4.836 1.72.445 2.387.779 2.387 1.196 0 .671-1.313.92-2.185.415-.371-.216-.878-.763-.878-.95 0-.059-.026-.107-.057-.107-.084 0-2.921 1.62-2.921 1.669 0 .155.65 1.002 1.051 1.368.97.886 2.066 1.25 3.756 1.25 2.215 0 3.715-.746 4.43-2.203.226-.462.25-.591.25-1.361 0-1.076-.189-1.586-.86-2.327-.596-.66-1.233-.976-2.955-1.468-.695-.2-1.355-.434-1.468-.523-.282-.222-.274-.593.019-.824.473-.372 1.44-.148 1.97.455l.28.317 1.379-.74a77.003 77.003 0 001.41-.768c.079-.068-.383-.663-.846-1.093-.599-.554-1.665-1.1-2.412-1.234-.487-.088-1.697-.109-2.048-.036zm11.076.078c-1.282.287-2.144.77-3.019 1.69-1.057 1.114-1.566 2.458-1.566 4.133 0 3.231 2.055 5.476 5.382 5.88 1.462.177 2.962-.1 4.078-.751.524-.306 1.62-1.294 1.62-1.46 0-.044-.58-.415-1.289-.826-1.273-.737-1.29-.744-1.51-.604-.821.523-1.123.611-2.094.611-1.055 0-1.54-.155-2.07-.663-.251-.241-.525-.647-.525-.779 0-.026 1.782-.047 3.96-.047 3.69 0 3.963-.01 4.02-.149.033-.081.06-.684.057-1.34-.004-1.108-.022-1.243-.267-1.936-.643-1.823-1.86-3.06-3.54-3.6-.89-.287-2.347-.358-3.237-.159zm46.622.002c-1.023.248-2.142.966-2.824 1.814-.485.603-1.007 1.663-1.196 2.433-.22.89-.2 2.362.044 3.233.552 1.972 1.942 3.512 3.652 4.042 1.586.493 3.468.162 4.503-.792l.364-.336v1.043h3.404V16.126h-3.395l-.026.468-.025.468-.298-.258c-.414-.36-1.4-.831-1.947-.933-.634-.117-1.656-.095-2.256.05zm-32.962.555c-.737.123-1.265.466-1.822 1.183l-.23.297-.004-.66-.004-.66H50.84v11.063h3.306l.027-2.829c.027-2.764.032-2.84.23-3.275.404-.896 1.201-1.374 2.414-1.447l.744-.045v-3.72l-.446.01a7.637 7.637 0 00-.897.084zm12.15 5.564v5.658h3.318V16.381h-3.318v5.659zm-23.58-3.136a2.275 2.275 0 011.324 1.158l.222.446-2.397.023c-1.319.012-2.416.004-2.439-.019-.097-.097.438-.985.728-1.207.675-.514 1.709-.676 2.562-.4zm47.532.347c.465.245.93.747 1.165 1.257.27.587.277 1.852.014 2.43a2.655 2.655 0 01-1.172 1.253c-.383.2-.532.226-1.284.229-.762.002-.896-.022-1.284-.226a2.7 2.7 0 01-1.174-1.256c-.143-.308-.18-.554-.18-1.196 0-.697.031-.873.224-1.276.33-.694.834-1.148 1.52-1.372.117-.038.577-.059 1.022-.046.624.019.885.065 1.148.203z" fill="#5E7285"/></g><defs><clipPath id="clip0"><path fill="#fff" d="M0 0h97v36H0z"/></clipPath></defs></svg>