<svg width="121" height="29" fill="none" xmlns="http://www.w3.org/2000/svg"><path d="M89.69 14.656c-.956 0-1.737.26-2.34.784-.59.522-.964 1.22-1.122 2.097h6.552c-.119-.876-.447-1.575-.984-2.097-.538-.523-1.24-.784-2.105-.784zm4.9 3.586a.851.851 0 01-.257.627.921.921 0 01-.648.235h-7.476c.144.915.557 1.654 1.239 2.215.695.562 1.541.843 2.538.843.393 0 .8-.072 1.22-.216.432-.143.787-.32 1.062-.529.184-.144.4-.215.65-.215.248 0 .445.065.59.196.235.195.354.418.354.666 0 .235-.106.431-.315.588-.447.352-1.004.64-1.672.862a5.885 5.885 0 01-1.89.334c-1.075 0-2.039-.23-2.89-.687a5.197 5.197 0 01-2.008-1.94c-.471-.823-.708-1.757-.708-2.803 0-1.045.223-1.98.669-2.802a4.9 4.9 0 011.889-1.94c.813-.47 1.731-.706 2.754-.706 1.01 0 1.882.222 2.616.666a4.398 4.398 0 011.692 1.862c.393.797.59 1.712.59 2.744zm1.545-8.8c0-.288.091-.523.275-.706a.96.96 0 01.709-.274.96.96 0 01.707.274.953.953 0 01.276.706v10.76c0 .483.092.881.275 1.195.184.313.42.47.709.47h.491c.263 0 .473.092.63.275.171.182.256.418.256.705 0 .288-.125.523-.374.705-.25.183-.57.275-.964.275h-.04a2.74 2.74 0 01-1.534-.45c-.445-.314-.793-.745-1.042-1.294-.25-.562-.374-1.189-.374-1.881V9.441zm6.248 4.606c0-.3.092-.543.275-.726.197-.182.44-.274.728-.274.302 0 .545.092.728.274.184.183.276.425.276.726v8.78c0 .287-.092.529-.276.725-.183.182-.426.274-.728.274-.288 0-.531-.092-.728-.274a1.022 1.022 0 01-.275-.725v-8.78zm1.004-5.013c.354 0 .655.13.904.392.263.249.394.549.394.902 0 .352-.131.66-.394.92-.249.25-.55.373-.904.373-.355 0-.662-.124-.925-.372a1.292 1.292 0 01-.374-.921c0-.353.125-.653.374-.902a1.27 1.27 0 01.925-.392zm3.223 5.013c0-.3.092-.543.275-.726a1.03 1.03 0 01.728-.274c.301 0 .545.092.728.274.184.183.275.425.275.726v8.78c0 .287-.091.529-.275.725-.183.182-.427.274-.728.274a1.03 1.03 0 01-.728-.274 1.022 1.022 0 01-.275-.725v-8.78zm1.003-5.013c.354 0 .656.13.904.392.263.249.394.549.394.902 0 .352-.131.66-.394.92a1.23 1.23 0 01-.904.373 1.3 1.3 0 01-.925-.372 1.292 1.292 0 01-.374-.921c0-.353.125-.653.374-.902.262-.261.57-.392.925-.392zm8.565 3.915c.905 0 1.718.196 2.44.588a4.132 4.132 0 011.691 1.724c.407.745.61 1.647.61 2.705v4.88a.983.983 0 01-.295.725.962.962 0 01-.708.275 1.03 1.03 0 01-.728-.275 1.02 1.02 0 01-.275-.725v-4.88c0-1.058-.289-1.855-.866-2.391-.564-.549-1.318-.823-2.262-.823-.551 0-1.056.111-1.515.333-.446.222-.8.523-1.062.902a2.27 2.27 0 00-.374 1.274v5.585c0 .288-.092.529-.276.725-.183.183-.426.275-.727.275-.289 0-.532-.092-.728-.275a1.02 1.02 0 01-.276-.725v-8.8c0-.3.092-.542.276-.725a1.03 1.03 0 01.728-.274c.301 0 .544.091.727.274.184.183.276.425.276.726v.215a4.26 4.26 0 011.495-.96 4.846 4.846 0 011.849-.353zm-75.602 8.937c.236 0 .433.092.59.275.17.183.256.418.256.705a.87.87 0 01-.334.706c-.21.183-.486.274-.826.274h-.355a3.346 3.346 0 01-1.77-.49 3.586 3.586 0 01-1.24-1.372c-.301-.575-.452-1.221-.452-1.94v-5.31h-.905c-.275 0-.498-.08-.669-.236a.766.766 0 01-.256-.588c0-.261.086-.47.256-.627.17-.157.394-.235.67-.235h.904v-2.431c0-.287.092-.523.275-.705a.962.962 0 01.709-.275c.288 0 .524.092.708.275a.953.953 0 01.275.705v2.43h1.673c.275 0 .498.08.669.236.17.156.255.366.255.627a.767.767 0 01-.255.588c-.171.156-.394.235-.67.235h-1.672v5.311c0 .522.145.96.433 1.313.289.353.643.53 1.062.53h.67zm2.687-7.839c0-.3.092-.543.275-.725a1.03 1.03 0 01.728-.274c.301 0 .544.091.728.274.184.182.275.424.275.725v8.8c0 .287-.091.528-.275.725-.184.183-.427.274-.728.274a1.03 1.03 0 01-.728-.274 1.024 1.024 0 01-.275-.726v-8.799zm1.004-5.013c.354 0 .655.13.904.392.263.249.394.549.394.902 0 .352-.131.66-.394.92-.248.25-.55.374-.904.374-.355 0-.662-.125-.925-.373a1.292 1.292 0 01-.374-.921c0-.353.125-.653.374-.902a1.27 1.27 0 01.925-.392zm8.805 12.852c.236 0 .432.092.59.275.17.183.256.418.256.705a.872.872 0 01-.335.706c-.21.183-.485.274-.826.274h-.354a3.348 3.348 0 01-1.77-.49 3.588 3.588 0 01-1.24-1.372c-.302-.575-.453-1.221-.453-1.94v-5.31h-.904c-.276 0-.499-.08-.67-.236a.767.767 0 01-.255-.588c0-.261.086-.47.256-.627.17-.157.393-.235.669-.235h.904v-2.431c0-.287.093-.523.276-.705a.96.96 0 01.708-.275.96.96 0 01.708.275.952.952 0 01.276.705v2.43h1.672c.276 0 .498.08.669.236.17.156.255.366.255.627a.766.766 0 01-.255.588c-.17.156-.394.235-.669.235h-1.672v5.311c0 .522.144.96.433 1.313.288.353.642.53 1.062.53h.669zm2.688-7.839c0-.3.091-.543.275-.725a1.03 1.03 0 01.728-.274c.301 0 .544.091.727.274.184.182.276.424.276.725v8.8c0 .287-.092.528-.276.725-.183.183-.426.274-.727.274a1.03 1.03 0 01-.728-.274 1.022 1.022 0 01-.276-.726v-8.799zm1.003-5.013c.354 0 .655.13.904.392.263.249.394.549.394.902 0 .352-.131.66-.394.92-.249.25-.55.374-.904.374-.355 0-.663-.125-.925-.373a1.292 1.292 0 01-.374-.921c0-.353.125-.653.374-.902.262-.261.57-.392.925-.392zm8.254 13.049c.656 0 1.246-.157 1.77-.47a3.47 3.47 0 001.26-1.314 3.78 3.78 0 00.472-1.881c0-.693-.157-1.32-.472-1.882-.302-.561-.721-1-1.26-1.313a3.284 3.284 0 00-1.77-.49 3.385 3.385 0 00-3.03 1.803 3.91 3.91 0 00-.452 1.882c0 .692.15 1.32.453 1.881.301.549.715.986 1.239 1.313.538.314 1.134.47 1.79.47zm0-9.114c1.01 0 1.928.242 2.755.725a5.051 5.051 0 011.966 1.96c.472.823.709 1.744.709 2.764 0 1.019-.223 1.947-.669 2.783a4.88 4.88 0 01-1.81 1.94c-.76.47-1.613.706-2.557.706a4.857 4.857 0 01-3.797-1.784v5.292c0 .3-.092.542-.275.725-.184.183-.427.274-.728.274-.289 0-.531-.091-.728-.274-.184-.183-.276-.425-.276-.725v-8.938c0-1.019.236-1.94.709-2.763a5.276 5.276 0 011.947-1.96c.826-.483 1.744-.725 2.754-.725zm12.386 9.113a3.494 3.494 0 01-1.79-.47 3.478 3.478 0 01-1.239-1.332 3.911 3.911 0 01-.453-1.882c0-.693.151-1.313.453-1.862.302-.562.715-1 1.24-1.313a3.388 3.388 0 011.79-.49c.655 0 1.246.164 1.77.49.538.314.957.751 1.26 1.313.314.549.471 1.17.471 1.862 0 .692-.157 1.32-.472 1.882a3.434 3.434 0 01-1.259 1.332 3.389 3.389 0 01-1.77.47zm-4.406-13.62c-.302 0-.544.09-.728.274-.184.183-.275.424-.275.725v8.937c0 1.019.236 1.947.708 2.783a5.477 5.477 0 001.947 1.96c.827.47 1.745.706 2.754.706 1.01 0 1.928-.236 2.755-.706a5.234 5.234 0 001.967-1.96c.472-.836.708-1.764.708-2.783 0-1.02-.223-1.94-.669-2.764a4.846 4.846 0 00-1.81-1.96c-.76-.47-1.613-.705-2.557-.705a4.86 4.86 0 00-2.124.47A4.819 4.819 0 0074 14.754V9.462c0-.3-.098-.542-.295-.725a.96.96 0 00-.708-.275z" fill="#5E7285"/><path d="M65.655 24.744a.822.822 0 011.156.082c2.192 2.52 6.126 2.553 8.834-.052a.822.822 0 011.16.02.815.815 0 01-.021 1.155c-3.272 3.147-8.306 3.288-11.212-.053a.815.815 0 01.083-1.152zM18.371 16.66c2.387 0 4.976.225 7.352.773.468-2.12.76-4.018.731-4.784-.218-.22-1.063-.737-3.127-1.164-3.708-.766-8.185-.638-9.933.23l.828 5.187a34.083 34.083 0 014.15-.242zm8.085 2.95a.978.978 0 01-.264-.035c-3.572-.994-8.764-1.24-12.626-.598a.98.98 0 01-1.131-.813L10.18 4.046a.982.982 0 011.94-.309l.956 5.985c3.025-1.135 8.449-.763 11.633.072 2.041.536 3.221 1.242 3.607 2.16a.96.96 0 01.066.234c.229 1.524-.769 5.823-.97 6.67a.98.98 0 01-.956.753z" fill="#5E7285"/><path d="M26.227 22.684a.97.97 0 01-.255-.033c-5.156-1.38-11.685-1.103-14.778-.053a.985.985 0 01-1.286-.778L6.678 1.132A.981.981 0 018.618.83l3.059 19.588c4.035-.996 10.245-.883 14.804.338a.98.98 0 01-.254 1.928z" fill="#5E7285"/><path d="M.981 6.381a.98.98 0 01-.143-1.95l10.167-1.51a.981.981 0 11.289 1.94L1.127 6.371a.988.988 0 01-.146.01zm21.163 20.057a.764.764 0 11-.001-1.528.764.764 0 01.001 1.528zm0-3.49a2.728 2.728 0 00-2.73 2.726 2.729 2.729 0 002.73 2.727 2.728 2.728 0 002.731-2.727 2.728 2.728 0 00-2.73-2.725zm-7.718 3.49a.764.764 0 11-.002-1.528.764.764 0 01.002 1.528zm0-3.49a2.728 2.728 0 00-2.73 2.726 2.729 2.729 0 002.73 2.727c1.508 0 2.73-1.22 2.73-2.727a2.728 2.728 0 00-2.73-2.725z" fill="#5E7285"/></svg>