<svg width="116" height="36" fill="none" xmlns="http://www.w3.org/2000/svg"><g clip-path="url(#clip0)"><circle cx="6.31" cy="26.078" r="3.774" fill="#5E7285"/><path d="M6.146 26.078l9.68-8.04 7.548 7.712 5.087-9.845" stroke="#5E7285" stroke-width="2.029"/><circle cx="15.662" cy="18.038" r="2.953" fill="#5E7285"/><circle cx="28.297" cy="15.905" r="2.133" fill="#5E7285"/><circle cx="21.077" cy="10.655" r="1.477" fill="#5E7285"/><circle cx="15.991" cy="34.118" r="2.297" fill="#5E7285"/><circle cx="23.374" cy="25.75" r="2.461" fill="#5E7285"/><path d="M43.327 17.333c-1.257 0-2.345.563-2.927 1.445v-1.22h-2.74v9.701h2.74v-5.798l.019.056c0-1.05.882-1.876 2.026-1.876 1.089 0 1.84.825 1.84 2.026v5.592h2.645v-6.173c0-2.196-1.5-3.753-3.603-3.753zm9.744 7.73c-1.144 0-1.989-.712-2.308-1.763h7c0-3.66-1.783-5.967-4.823-5.967-2.834 0-4.992 2.12-4.992 5.047 0 2.984 2.252 5.105 5.142 5.105 1.426 0 3.096-.601 3.96-1.502l-1.746-1.782c-.525.506-1.463.863-2.233.863zm-.018-5.31c1.107 0 1.82.62 2.082 1.576h-4.334a2.345 2.345 0 012.252-1.576zm12.249-2.195v5.798l-.019-.056c0 1.05-.882 1.876-2.027 1.876-1.088 0-1.839-.825-1.839-2.026v-5.592h-2.645v6.174c0 2.195 1.5 3.753 3.602 3.753 1.258 0 2.346-.563 2.928-1.445v1.22h2.74v-9.702h-2.74zm7.079 1.801v-1.801h-2.74v9.701h2.74v-4.635c0-1.82 1.295-2.983 3.321-2.983v-2.308c-1.482 0-2.683.769-3.321 2.026zm8.486-2.026c-1.351 0-2.683.375-4.053 1.07l.92 1.82c.769-.395 1.613-.695 2.514-.695 1.595 0 2.233.9 2.233 1.933v.188c-.826-.32-1.689-.488-2.477-.488-2.252 0-4.035 1.313-4.035 3.227 0 1.858 1.595 3.096 3.66 3.096 1.05 0 2.157-.412 2.852-1.2v.975h2.646v-5.798c0-2.533-1.727-4.128-4.26-4.128zm-.62 8.256c-.937 0-1.632-.488-1.632-1.276s.788-1.37 1.783-1.37c.75 0 1.464.132 2.083.357v.9c-.188.901-1.182 1.39-2.233 1.39zm12.424-8.256c-1.35 0-2.477.581-3.246 1.576v-4.766h-2.74v13.116h2.74v-1.37c.77 1.014 1.895 1.596 3.246 1.596 2.59 0 4.466-2.102 4.466-5.086 0-2.965-1.876-5.066-4.466-5.066zm-.788 7.843c-1.332 0-2.308-.975-2.458-2.402v-.75c.15-1.408 1.126-2.383 2.458-2.383 1.52 0 2.59 1.144 2.59 2.758 0 1.633-1.07 2.777-2.59 2.777zm11.206 2.309c2.871 0 5.273-2.327 5.273-5.086 0-2.758-2.402-5.066-5.273-5.066-2.89 0-5.31 2.308-5.31 5.066 0 2.759 2.42 5.085 5.31 5.085zm0-2.309c-1.464 0-2.684-1.276-2.684-2.777 0-1.501 1.22-2.758 2.684-2.758 1.445 0 2.664 1.257 2.664 2.758 0 1.501-1.219 2.777-2.664 2.777zm11.48-.319c-.188.188-.563.32-.938.32-.507 0-.92-.451-.92-1.089v-4.316h2.102v-2.214h-2.102v-2.665h-2.627v2.665h-1.332v2.214h1.332v4.748c0 1.745 1.201 2.965 2.909 2.965.788 0 1.67-.338 2.233-.845l-.657-1.783z" fill="#5E7285"/></g><defs><clipPath id="clip0"><path fill="#fff" d="M0 0h116v36H0z"/></clipPath></defs></svg>