<svg width="24" height="24" viewBox="0 0 24 24" fill="none" xmlns="http://www.w3.org/2000/svg">
<path d="M3.12368 20H6.41662V7.93903H3.12368V20ZM4.77788 6.3843C5.75958 6.3843 6.56349 5.62263 6.56349 4.68822C6.56349 3.76166 5.75958 3 4.77788 3C3.80391 3 3 3.76166 3 4.68822C3 5.62263 3.80391 6.3843 4.77788 6.3843Z" fill="#5E7285"/>
<path d="M12.3474 13.0273C12.3551 11.4725 13.2673 10.5617 14.5968 10.5617C15.9186 10.5617 16.7148 11.4411 16.7071 12.9173V20H20V12.3206C20 9.50947 18.3767 7.78199 15.9031 7.78199C14.1407 7.78199 12.8653 8.66143 12.3319 10.067H12.1928V7.93903H9.05445V20H12.3474V13.0273Z" fill="#5E7285"/>
</svg>
