<svg width="24" height="24" viewBox="0 0 24 24" fill="none" xmlns="http://www.w3.org/2000/svg">
<path d="M21 12L21.7071 11.2929C22.0976 11.6834 22.0976 12.3166 21.7071 12.7071L21 12ZM3 13C2.44772 13 2 12.5523 2 12C2 11.4477 2.44772 11 3 11V13ZM16.2929 8.70711C15.9024 8.31658 15.9024 7.68342 16.2929 7.29289C16.6834 6.90237 17.3166 6.90237 17.7071 7.29289L16.2929 8.70711ZM17.7071 16.7071C17.3166 17.0976 16.6834 17.0976 16.2929 16.7071C15.9024 16.3166 15.9024 15.6834 16.2929 15.2929L17.7071 16.7071ZM21 13H3V11H21V13ZM20.2929 12.7071L16.2929 8.70711L17.7071 7.29289L21.7071 11.2929L20.2929 12.7071ZM21.7071 12.7071L17.7071 16.7071L16.2929 15.2929L20.2929 11.2929L21.7071 12.7071Z" fill="white"/>
</svg>
