<svg width="24" height="24" viewBox="0 0 24 24" fill="none" xmlns="http://www.w3.org/2000/svg">
<path d="M3 12L2.29289 11.2929C1.90237 11.6834 1.90237 12.3166 2.29289 12.7071L3 12ZM21 13C21.5523 13 22 12.5523 22 12C22 11.4477 21.5523 11 21 11V13ZM7.70711 8.70711C8.09763 8.31658 8.09763 7.68342 7.70711 7.29289C7.31658 6.90237 6.68342 6.90237 6.29289 7.29289L7.70711 8.70711ZM6.29289 16.7071C6.68342 17.0976 7.31658 17.0976 7.70711 16.7071C8.09763 16.3166 8.09763 15.6834 7.70711 15.2929L6.29289 16.7071ZM3 13H21V11H3V13ZM3.70711 12.7071L7.70711 8.70711L6.29289 7.29289L2.29289 11.2929L3.70711 12.7071ZM2.29289 12.7071L6.29289 16.7071L7.70711 15.2929L3.70711 11.2929L2.29289 12.7071Z" fill="white"/>
</svg>
