<svg width="24" height="24" viewBox="0 0 24 24" fill="none" xmlns="http://www.w3.org/2000/svg">
<path d="M21 12L21.3536 11.6464C21.5488 11.8417 21.5488 12.1583 21.3536 12.3536L21 12ZM3 12.5C2.72386 12.5 2.5 12.2761 2.5 12C2.5 11.7239 2.72386 11.5 3 11.5V12.5ZM16.6464 8.35355C16.4512 8.15829 16.4512 7.84171 16.6464 7.64645C16.8417 7.45118 17.1583 7.45118 17.3536 7.64645L16.6464 8.35355ZM17.3536 16.3536C17.1583 16.5488 16.8417 16.5488 16.6464 16.3536C16.4512 16.1583 16.4512 15.8417 16.6464 15.6464L17.3536 16.3536ZM21 12.5H3V11.5H21V12.5ZM20.6464 12.3536L16.6464 8.35355L17.3536 7.64645L21.3536 11.6464L20.6464 12.3536ZM21.3536 12.3536L17.3536 16.3536L16.6464 15.6464L20.6464 11.6464L21.3536 12.3536Z" fill="#FF662A"/>
</svg>
